<svg version="1.1" xmlns="http://www.w3.org/2000/svg" viewBox="0 0 1356.199990845868 1160.0269348144534" width="1356.199990845868" height="1160.0269348144534">
  <!-- svg-source:excalidraw -->
  
  <defs>
    <style class="style-fonts">
      @font-face {
        font-family: "Virgil";
        src: url("https://excalidraw.com/Virgil.woff2");
      }
      @font-face {
        font-family: "Cascadia";
        src: url("https://excalidraw.com/Cascadia.woff2");
      }
      @font-face {
        font-family: "Assistant";
        src: url("https://excalidraw.com/Assistant-Regular.woff2");
      }
    </style>
    
  </defs>
  <rect x="0" y="0" width="1356.199990845868" height="1160.0269348144534" fill="#ffffff"></rect><g transform="translate(34.74581336205886 612.108357747527) rotate(0 22.339981079101562 12.5)"><text x="0" y="0" font-family="Virgil, Segoe UI Emoji" font-size="20px" fill="#000000" text-anchor="start" style="white-space: pre;" direction="ltr" dominant-baseline="text-before-edge">User</text></g><g stroke-linecap="round"><g transform="translate(31.95859271355146 602.4554317375482) rotate(0 24.634710359068734 -21.936502105304612)" fill-rule="evenodd"><path d="M13.47 -38.64 C13.47 -38.64, 13.47 -38.64, 13.47 -38.64 M13.47 -38.64 C13.47 -38.64, 13.47 -38.64, 13.47 -38.64 M3.11 -14.53 C9.06 -21.37, 15.01 -28.22, 28.04 -43.2 M3.11 -14.53 C12.7 -25.56, 22.29 -36.59, 28.04 -43.2 M0.61 0.53 C9.95 -10.2, 19.28 -20.94, 35.39 -39.47 M0.61 0.53 C14.33 -15.25, 28.05 -31.02, 35.39 -39.47 M11.24 0.5 C17.78 -7.02, 24.32 -14.54, 40.77 -33.46 M11.24 0.5 C19 -8.42, 26.76 -17.35, 40.77 -33.46 M21.87 0.47 C28.4 -7.05, 34.93 -14.56, 44.84 -25.95 M21.87 0.47 C27.41 -5.9, 32.94 -12.27, 44.84 -25.95 M32.5 0.43 C38.6 -6.58, 44.7 -13.6, 48.91 -18.44 M32.5 0.43 C38.78 -6.79, 45.05 -14, 48.91 -18.44 M44.45 -1.11 C47.27 -4.36, 50.1 -7.61, 51.66 -9.41 M44.45 -1.11 C46.08 -2.99, 47.72 -4.88, 51.66 -9.41 M0 0 C0 0, 0 0, 0 0 M0 0 C0 0, 0 0, 0 0 M12.04 -0.13 C8.66 -3.08, 5.27 -6.02, 1.47 -9.32 M12.04 -0.13 C9.73 -2.14, 7.43 -4.14, 1.47 -9.32 M24.84 0.39 C20.38 -3.48, 15.93 -7.35, 2.95 -18.64 M24.84 0.39 C19.68 -4.09, 14.53 -8.57, 2.95 -18.64 M36.12 -0.4 C23.82 -11.1, 11.51 -21.79, 5.18 -27.3 M36.12 -0.4 C24.89 -10.16, 13.66 -19.92, 5.18 -27.3 M46.65 -1.84 C36.95 -10.28, 27.24 -18.72, 9.67 -33.99 M46.65 -1.84 C34.18 -12.68, 21.72 -23.52, 9.67 -33.99 M51.9 -7.88 C42.85 -15.75, 33.79 -23.63, 14.92 -40.03 M51.9 -7.88 C37.6 -20.32, 23.29 -32.76, 14.92 -40.03 M47.34 -22.45 C41.26 -27.74, 35.17 -33.03, 22.43 -44.1 M47.34 -22.45 C41.92 -27.16, 36.5 -31.87, 22.43 -44.1" stroke="#ced4da" stroke-width="1" fill="none"></path><path d="M0 0 C0.92 -4.85, 1.58 -21.76, 5.52 -29.07 C9.46 -36.38, 17.61 -43.34, 23.65 -43.87 C29.69 -44.4, 37.51 -39.05, 41.78 -32.24 C46.05 -25.43, 56.23 -8.39, 49.27 -3.02 C42.31 2.36, 8.21 -0.5, 0 0 M0 0 C0.92 -4.85, 1.58 -21.76, 5.52 -29.07 C9.46 -36.38, 17.61 -43.34, 23.65 -43.87 C29.69 -44.4, 37.51 -39.05, 41.78 -32.24 C46.05 -25.43, 56.23 -8.39, 49.27 -3.02 C42.31 2.36, 8.21 -0.5, 0 0" stroke="#000000" stroke-width="2" fill="none"></path></g></g><mask></mask><g stroke-linecap="round" transform="translate(44.412463549867134 535.7643839516918) rotate(0 12.6129717038432 11.036350240862816)"><path d="M2.98 3.91 C2.98 3.91, 2.98 3.91, 2.98 3.91 M2.98 3.91 C2.98 3.91, 2.98 3.91, 2.98 3.91 M2.45 16.71 C5.65 13.03, 8.84 9.36, 16.23 0.86 M2.45 16.71 C6.74 11.78, 11.02 6.86, 16.23 0.86 M8.49 21.96 C13.83 15.81, 19.17 9.67, 22.92 5.35 M8.49 21.96 C12.79 17.01, 17.08 12.07, 22.92 5.35 M4.36 19.37 C4.36 19.37, 4.36 19.37, 4.36 19.37 M4.36 19.37 C4.36 19.37, 4.36 19.37, 4.36 19.37 M17.91 20.55 C12.46 15.81, 7.01 11.07, 1.31 6.11 M17.91 20.55 C12.83 16.13, 7.74 11.71, 1.31 6.11 M23.92 15.17 C17.98 10, 12.04 4.84, 7.31 0.73 M23.92 15.17 C18.16 10.16, 12.41 5.16, 7.31 0.73" stroke="#ced4da" stroke-width="1" fill="none"></path><path d="M25.23 11.04 C25.23 11.68, 25.16 12.32, 25.03 12.95 C24.91 13.58, 24.71 14.21, 24.47 14.81 C24.22 15.41, 23.9 16, 23.54 16.55 C23.17 17.11, 22.74 17.64, 22.28 18.13 C21.81 18.62, 21.28 19.08, 20.72 19.49 C20.16 19.9, 19.55 20.27, 18.92 20.59 C18.29 20.91, 17.61 21.19, 16.93 21.41 C16.24 21.63, 15.52 21.79, 14.8 21.91 C14.08 22.02, 13.34 22.07, 12.61 22.07 C11.88 22.07, 11.14 22.02, 10.42 21.91 C9.7 21.79, 8.99 21.63, 8.3 21.41 C7.61 21.19, 6.94 20.91, 6.31 20.59 C5.67 20.27, 5.06 19.9, 4.51 19.49 C3.95 19.08, 3.42 18.62, 2.95 18.13 C2.48 17.64, 2.05 17.11, 1.69 16.55 C1.32 16, 1.01 15.41, 0.76 14.81 C0.51 14.21, 0.32 13.58, 0.19 12.95 C0.06 12.32, 0 11.68, 0 11.04 C0 10.4, 0.06 9.75, 0.19 9.12 C0.32 8.49, 0.51 7.86, 0.76 7.26 C1.01 6.66, 1.32 6.07, 1.69 5.52 C2.05 4.96, 2.48 4.43, 2.95 3.94 C3.42 3.45, 3.95 2.99, 4.51 2.58 C5.06 2.17, 5.67 1.8, 6.31 1.48 C6.94 1.16, 7.61 0.88, 8.3 0.67 C8.99 0.45, 9.7 0.28, 10.42 0.17 C11.14 0.06, 11.88 0, 12.61 0 C13.34 0, 14.08 0.06, 14.8 0.17 C15.52 0.28, 16.24 0.45, 16.93 0.67 C17.61 0.88, 18.29 1.16, 18.92 1.48 C19.55 1.8, 20.16 2.17, 20.72 2.58 C21.28 2.99, 21.81 3.45, 22.28 3.94 C22.74 4.43, 23.17 4.96, 23.54 5.52 C23.9 6.07, 24.22 6.66, 24.47 7.26 C24.71 7.86, 24.91 8.49, 25.03 9.12 C25.16 9.75, 25.19 10.72, 25.23 11.04 C25.26 11.36, 25.26 10.72, 25.23 11.04" stroke="#000000" stroke-width="2" fill="none"></path></g><g stroke-linecap="round" transform="translate(300.5328389839713 724.7183844842898) rotate(0 32.326690673828125 32.326690673828125)"><path d="M-2.06 0.5 L62.06 -1.76 L64.88 66.42 L1.38 63.65" stroke="none" stroke-width="0" fill="#e64980"></path><path d="M1.77 -3.2 C23.22 -2.07, 44.54 -2.16, 61.67 3.78 M1.02 0.09 C13.77 -3.01, 29.53 0.41, 65.91 -0.21 M68.35 -2.67 C63.41 15.96, 66.17 36.07, 66.95 65.24 M63.98 1.7 C63.51 18.14, 64.64 32.82, 63.08 63.3 M68.29 68.13 C38.98 68.83, 12.55 64.92, 3.52 63.16 M65.74 64.02 C48.98 63.83, 31.41 62.88, 0.23 66.01 M-0.84 66.07 C-4.42 49.04, 0.39 35.66, -0.02 -0.15 M0.67 66.31 C-2.49 46.85, 1.01 29.75, 0.64 -0.57" stroke="#00000000" stroke-width="1" fill="none"></path></g><g stroke-linecap="round" transform="translate(294.6956526260306 724.8370506119815) rotate(0 32.326690673828125 32.326690673828125)"><path d="M0 0 C0 0, 0 0, 0 0 M0 0 C0 0, 0 0, 0 0 M-0.26 6.4 C0.97 4.98, 2.21 3.55, 4.99 0.36 M-0.26 6.4 C1.42 4.47, 3.1 2.53, 4.99 0.36 M0.13 12.04 C3.62 8.03, 7.1 4.03, 10.63 -0.03 M0.13 12.04 C3.75 7.89, 7.36 3.73, 10.63 -0.03 M-0.13 18.44 C6.03 11.36, 12.19 4.27, 15.62 0.33 M-0.13 18.44 C4.08 13.6, 8.29 8.76, 15.62 0.33 M0.27 24.08 C8.53 14.57, 16.8 5.06, 21.26 -0.07 M0.27 24.08 C8.23 14.92, 16.2 5.76, 21.26 -0.07 M0 30.48 C6.26 23.28, 12.52 16.08, 26.25 0.29 M0 30.48 C10.45 18.46, 20.9 6.45, 26.25 0.29 M-0.26 36.88 C10.19 24.85, 20.65 12.83, 31.89 -0.1 M-0.26 36.88 C10.49 24.52, 21.23 12.16, 31.89 -0.1 M0.14 42.52 C8.96 32.37, 17.78 22.22, 36.88 0.26 M0.14 42.52 C9.62 31.61, 19.11 20.7, 36.88 0.26 M-0.12 48.92 C14.4 32.21, 28.92 15.51, 42.52 -0.14 M-0.12 48.92 C15.43 31.03, 30.97 13.14, 42.52 -0.14 M0.27 54.56 C11.52 41.62, 22.78 28.67, 47.51 0.22 M0.27 54.56 C16.27 36.15, 32.28 17.74, 47.51 0.22 M0.01 60.96 C20.44 37.45, 40.87 13.95, 53.15 -0.17 M0.01 60.96 C11.8 47.4, 23.58 33.84, 53.15 -0.17 M1.72 65.09 C21.71 42.09, 41.71 19.09, 58.14 0.19 M1.72 65.09 C22.95 40.66, 44.19 16.23, 58.14 0.19 M7.36 64.7 C20.4 49.7, 33.43 34.7, 63.78 -0.21 M7.36 64.7 C27.24 41.82, 47.13 18.95, 63.78 -0.21 M12.35 65.06 C27.57 47.54, 42.8 30.02, 64.83 4.68 M12.35 65.06 C25.61 49.8, 38.87 34.54, 64.83 4.68 M17.99 64.66 C35.88 44.08, 53.77 23.51, 64.57 11.08 M17.99 64.66 C36.55 43.31, 55.11 21.97, 64.57 11.08 M22.98 65.02 C32.49 54.08, 42 43.14, 64.96 16.72 M22.98 65.02 C35.36 50.78, 47.74 36.54, 64.96 16.72 M27.96 65.38 C41.81 49.45, 55.66 33.52, 64.7 23.12 M27.96 65.38 C38.87 52.83, 49.78 40.28, 64.7 23.12 M33.61 64.99 C43.82 53.23, 54.04 41.48, 65.1 28.76 M33.61 64.99 C45.42 51.4, 57.23 37.81, 65.1 28.76 M38.59 65.35 C45.75 57.11, 52.91 48.88, 64.84 35.16 M38.59 65.35 C48.58 53.86, 58.57 42.37, 64.84 35.16 M44.24 64.95 C48.8 59.7, 53.36 54.45, 64.57 41.56 M44.24 64.95 C48.54 60.01, 52.83 55.07, 64.57 41.56 M49.22 65.31 C54.97 58.71, 60.71 52.11, 64.97 47.2 M49.22 65.31 C53.59 60.29, 57.96 55.27, 64.97 47.2 M54.87 64.92 C58.28 61, 61.69 57.07, 64.71 53.6 M54.87 64.92 C57.49 61.9, 60.11 58.89, 64.71 53.6 M59.85 65.28 C61.3 63.62, 62.74 61.96, 65.1 59.24 M59.85 65.28 C60.96 64.01, 62.06 62.74, 65.1 59.24" stroke="#e64980" stroke-width="0.5" fill="none"></path><path d="M0 0 C16.85 0, 33.7 0, 64.65 0 M0 0 C14.57 0, 29.14 0, 64.65 0 M64.65 0 C64.65 16.12, 64.65 32.23, 64.65 64.65 M64.65 0 C64.65 20.66, 64.65 41.33, 64.65 64.65 M64.65 64.65 C51.35 64.65, 38.04 64.65, 0 64.65 M64.65 64.65 C39.77 64.65, 14.9 64.65, 0 64.65 M0 64.65 C0 39.48, 0 14.31, 0 0 M0 64.65 C0 48.11, 0 31.56, 0 0" stroke="#000000" stroke-width="1" fill="none"></path></g><g stroke-linecap="round"><g transform="translate(320.59215297151337 744.9331461350075) rotate(0 7.584660526743164 0)"><path d="M0 0 C3.34 0, 6.67 0, 15.17 0" stroke="#ffffff" stroke-width="2.5" fill="none" stroke-dasharray="1.5 8"></path></g></g><mask></mask><g stroke-linecap="round"><g transform="translate(319.12025861807166 769.7120406535038) rotate(0 8.568918700631542 0)"><path d="M0 0 C4.03 0, 8.07 0, 17.14 0" stroke="#ffffff" stroke-width="2.5" fill="none" stroke-dasharray="1.5 8"></path></g></g><mask></mask><g stroke-linecap="round"><g transform="translate(302.3197090097597 740.7624855684685) rotate(0 8.477523156769621 16.805789676925713)"><path d="M0 0 C3.95 -1.73, 7.91 -3.45, 16.96 -7.4 M0 0 C5.17 -2.25, 10.33 -4.51, 16.96 -7.4 M16.96 -7.4 C16.93 7.51, 16.9 22.43, 16.87 41.01 M16.96 -7.4 C16.93 8.66, 16.9 24.71, 16.87 41.01 M16.87 41.01 C12.4 39, 7.93 36.98, 0.08 33.45 M16.87 41.01 C12.97 39.25, 9.06 37.5, 0.08 33.45 M0.08 33.45 C0.05 20.96, 0.02 8.48, 0 0 M0.08 33.45 C0.06 24.67, 0.04 15.88, 0 0" stroke="#ffffff" stroke-width="2" fill="none"></path></g></g><mask></mask><g stroke-linecap="round"><g transform="translate(336.78075268905974 733.1768741092615) rotate(0 8.48838764300524 24.139529940593718)"><path d="M0 0 C0.08 19.05, 0.16 38.09, 0.2 48.28 M0 0 C0.04 10.26, 0.08 20.52, 0.2 48.28 M0.2 48.28 C4.17 46.54, 8.14 44.81, 16.96 40.95 M0.2 48.28 C6.19 45.66, 12.18 43.04, 16.96 40.95 M16.96 40.95 C16.96 33.64, 16.97 26.32, 16.98 7.51 M16.96 40.95 C16.97 33.14, 16.97 25.33, 16.98 7.51 M16.98 7.51 C12.3 5.44, 7.62 3.37, 0 0 M16.98 7.51 C12.42 5.49, 7.87 3.48, 0 0" stroke="#ffffff" stroke-width="2" fill="none"></path></g></g><mask></mask><g stroke-linecap="round"><g transform="translate(323.4617209025742 763.312513671958) rotate(0 4.55055974260361 -6.101967954136683)"><path d="M0 0 C3.61 -4.83, 7.21 -9.67, 9.1 -12.2 M0 0 C3.49 -4.68, 6.98 -9.36, 9.1 -12.2" stroke="#ffffff" stroke-width="2" fill="none"></path></g></g><mask></mask><g stroke-linecap="round"><g transform="translate(331.27023490738117 753.4437597535143) rotate(0 2.4973872120515352 4.2069285343138745)"><path d="M0 0 C1.76 1.53, 3.51 3.07, 5.01 4.37 M0 0 C1.45 1.26, 2.9 2.53, 5.01 4.37 M5.01 4.37 C4 5.18, 2.99 6, -0.01 8.41 M5.01 4.37 C3.78 5.36, 2.55 6.35, -0.01 8.41" stroke="#ffffff" stroke-width="2" fill="none"></path></g></g><mask></mask><g stroke-linecap="round"><g transform="translate(319.464418306249 752.9003764007641) rotate(180 2.4973872120515352 4.2069285343138745)"><path d="M0 0 C1.25 1.09, 2.5 2.18, 5.01 4.37 M0 0 C1.6 1.4, 3.2 2.79, 5.01 4.37 M5.01 4.37 C3.97 5.2, 2.94 6.04, -0.01 8.41 M5.01 4.37 C3.08 5.93, 1.14 7.48, -0.01 8.41" stroke="#ffffff" stroke-width="2" fill="none"></path></g></g><mask></mask><g transform="translate(273.66227111930544 791.1470940313352) rotate(0 53.39996337890625 20)"><text x="53.39996337890625" y="0" font-family="Virgil, Segoe UI Emoji" font-size="16px" fill="#000000" text-anchor="middle" style="white-space: pre;" direction="ltr" dominant-baseline="text-before-edge">Amazon</text><text x="53.39996337890625" y="20" font-family="Virgil, Segoe UI Emoji" font-size="16px" fill="#000000" text-anchor="middle" style="white-space: pre;" direction="ltr" dominant-baseline="text-before-edge">API Gateway</text></g><g stroke-linecap="round"><g transform="translate(942.3096505044444 898.6922274040619) rotate(89.99999999999994 31.297249589261867 77.80634036691146)" fill-rule="evenodd"><path d="M2.5 -5.78 C2.5 -5.78, 2.5 -5.78, 2.5 -5.78 M2.5 -5.78 C2.5 -5.78, 2.5 -5.78, 2.5 -5.78 M1.58 1.37 C4.24 -0.24, 5.12 -1.98, 9.45 -7.68 M1.58 1.37 C3.6 -1.84, 6.88 -4.12, 9.45 -7.68 M1.32 7.77 C6.57 4.08, 7.68 -1.98, 17.06 -10.34 M1.32 7.77 C7.07 1.62, 14.35 -7.09, 17.06 -10.34 M1.71 13.41 C8.07 9.06, 10.16 4.42, 23.36 -11.49 M1.71 13.41 C6.94 5.53, 13.96 -0.38, 23.36 -11.49 M1.45 19.81 C10.93 10.19, 17.49 0.91, 30.97 -14.15 M1.45 19.81 C10.93 9.38, 20.13 -0.48, 30.97 -14.15 M1.85 25.46 C12.24 14.73, 22.37 4.82, 35.31 -13.04 M1.85 25.46 C10.33 16.5, 16.51 9.11, 35.31 -13.04 M1.58 31.85 C8.71 23.81, 20.41 12.37, 40.29 -12.67 M1.58 31.85 C14.9 16.47, 28.75 -0.09, 40.29 -12.67 M1.32 38.25 C12.51 28.57, 20.92 15.71, 44.62 -11.56 M1.32 38.25 C15.34 20.8, 30.82 3.33, 44.62 -11.56 M1.72 43.89 C19.84 25.3, 36.89 5.4, 48.95 -10.45 M1.72 43.89 C18.94 24.8, 34.4 4.42, 48.95 -10.45 M1.46 50.29 C13.31 37.95, 24.13 24.46, 53.29 -9.33 M1.46 50.29 C16.04 33.37, 28.17 18.74, 53.29 -9.33 M1.19 56.69 C14.05 42.92, 25.53 26.03, 56.96 -7.46 M1.19 56.69 C19.04 35.75, 38.06 13.92, 56.96 -7.46 M1.59 62.33 C21.1 37.79, 45.49 13.49, 59.98 -4.84 M1.59 62.33 C15.94 46.28, 29.37 28.84, 59.98 -4.84 M1.33 68.73 C22.57 42.81, 44.13 21.18, 63 -2.21 M1.33 68.73 C19.89 45.96, 39.69 24.12, 63 -2.21 M63 -2.21 C63 -2.21, 63 -2.21, 63 -2.21 M63 -2.21 C63 -2.21, 63 -2.21, 63 -2.21 M1.72 74.37 C22.49 49.84, 44.54 23.05, 62.74 4.19 M1.72 74.37 C15.97 57.18, 28.82 40.6, 62.74 4.19 M1.46 80.77 C16.96 65.74, 29.58 50.11, 62.47 10.58 M1.46 80.77 C18.66 61.23, 36.2 41.62, 62.47 10.58 M1.2 87.17 C17.72 72.19, 30.66 55.47, 62.87 16.23 M1.2 87.17 C21.08 66.73, 39.24 43.01, 62.87 16.23 M1.59 92.81 C23.32 68.65, 42.6 43.57, 62.61 22.62 M1.59 92.81 C26.1 64.04, 50.7 36.96, 62.61 22.62 M1.33 99.21 C15.55 80.85, 29.21 66.86, 63 28.27 M1.33 99.21 C16.8 82.37, 30.17 66.54, 63 28.27 M1.73 104.85 C20.39 82.04, 41 57.02, 62.74 34.66 M1.73 104.85 C18.92 86.72, 33.01 68.73, 62.74 34.66 M1.47 111.25 C15.38 91.96, 31.01 77.96, 62.48 41.06 M1.47 111.25 C24.97 84.66, 47.77 58.59, 62.48 41.06 M1.2 117.65 C23.79 94.03, 43.3 69.77, 62.87 46.71 M1.2 117.65 C17.75 99.71, 34.54 81.51, 62.87 46.71 M1.6 123.29 C24.32 97.42, 44.69 73.84, 62.61 53.1 M1.6 123.29 C25.25 95.95, 48.76 69.78, 62.61 53.1 M1.34 129.69 C19.16 108.8, 33.87 91.33, 63.01 58.75 M1.34 129.69 C16.96 111.31, 31.67 95.37, 63.01 58.75 M1.73 135.33 C17.68 118.74, 33.98 101.52, 62.75 65.14 M1.73 135.33 C25.29 108.05, 49.16 80.99, 62.75 65.14 M1.47 141.73 C21.04 117.76, 41.59 96.01, 62.48 71.54 M1.47 141.73 C16.92 124.12, 33.62 106.11, 62.48 71.54 M1.21 148.13 C25.9 119.24, 48.66 92.09, 62.88 77.19 M1.21 148.13 C14.06 134.28, 25.58 119.73, 62.88 77.19 M0.29 155.28 C25.96 127.28, 46.31 103.74, 62.62 83.58 M0.29 155.28 C25.66 127.97, 48.47 100.76, 62.62 83.58 M1.34 160.17 C20.31 139.84, 37.29 121.19, 63.01 89.23 M1.34 160.17 C20.81 138.21, 40.53 116.49, 63.01 89.23 M4.36 162.79 C20.92 142.9, 34.04 125.53, 62.75 95.62 M4.36 162.79 C25.21 140.43, 44.67 116.05, 62.75 95.62 M7.38 165.42 C28.13 141.83, 45.68 119.01, 62.49 102.02 M7.38 165.42 C24.38 146.07, 40.71 128, 62.49 102.02 M10.4 168.04 C26.67 148.33, 44.74 130.21, 62.88 107.66 M10.4 168.04 C25.63 150.45, 41.83 131.91, 62.88 107.66 M14.73 169.16 C28.68 151.42, 43.35 135.27, 62.62 114.06 M14.73 169.16 C32.7 147.38, 50.52 127.55, 62.62 114.06 M19.06 170.27 C32.13 152.62, 47.9 135.43, 63.02 119.71 M19.06 170.27 C36.56 150.72, 53.34 130.64, 63.02 119.71 M24.05 170.63 C38.94 156.08, 50.66 139.56, 62.76 126.1 M24.05 170.63 C36.59 155.53, 49.67 141.92, 62.76 126.1 M29.04 170.99 C41.35 160.05, 50.45 145.69, 62.49 132.5 M29.04 170.99 C37.27 161.51, 46.38 151.41, 62.49 132.5 M34.02 171.35 C42.24 158.93, 53.57 148.48, 62.89 138.14 M34.02 171.35 C42.97 160.46, 51.87 151.16, 62.89 138.14 M40.32 170.2 C45.98 160.31, 55.04 154.35, 62.63 144.54 M40.32 170.2 C47.65 161.37, 55.53 153.94, 62.63 144.54 M46.62 169.05 C52.01 162.62, 59.43 153.97, 63.02 150.18 M46.62 169.05 C51.71 165.07, 54.33 159.7, 63.02 150.18 M52.26 168.66 C55.09 165.12, 56.69 162.85, 63.42 155.83 M52.26 168.66 C54.84 165.52, 57.8 161.49, 63.42 155.83" stroke="#40c057" stroke-width="0.5" fill="none"></path><path d="M-0.09 0.29 C0.12 23.68, 0.88 114.74, 0.78 140.7 C0.67 166.66, -1.28 152.54, -0.73 156.06 C-0.17 159.57, 1.6 159.9, 4.09 161.8 C6.58 163.7, 9.38 166.03, 14.21 167.46 C19.03 168.89, 26.71 170.31, 33.05 170.38 C39.39 170.44, 47.52 169.38, 52.24 167.83 C56.96 166.28, 59.84 163.22, 61.37 161.05 C62.89 158.89, 61.33 157.94, 61.39 154.82 C61.45 151.69, 61.69 166.01, 61.73 142.31 C61.77 118.6, 61.75 36.55, 61.63 12.57 C61.52 -11.42, 61.43 1.87, 61.04 -1.61 C60.65 -5.08, 61.13 -6.75, 59.3 -8.28 C57.47 -9.81, 54.71 -9.49, 50.05 -10.77 C45.39 -12.04, 37.01 -15.56, 31.33 -15.93 C25.65 -16.3, 20.89 -14.63, 15.97 -12.98 C11.05 -11.33, 4.65 -8.3, 1.8 -6.02 C-1.06 -3.74, -0.77 -0.33, -1.17 0.71 C-1.57 1.75, -0.84 0.32, -0.6 0.24 M-1.59 -0.61 C-1.45 22.41, -0.43 112.64, 0.13 138.99 C0.69 165.33, 1.01 153.58, 1.78 157.48 C2.56 161.39, 2.98 160.78, 4.79 162.41 C6.59 164.05, 7.7 166.12, 12.62 167.27 C17.53 168.43, 27.51 169.44, 34.29 169.34 C41.07 169.24, 48.92 168.07, 53.29 166.67 C57.65 165.28, 58.9 163.18, 60.49 160.98 C62.08 158.78, 62.57 156.64, 62.82 153.49 C63.08 150.34, 62.24 165.94, 62.02 142.08 C61.8 118.22, 61.39 33.83, 61.51 10.33 C61.62 -13.17, 63.54 3.78, 62.71 1.08 C61.87 -1.62, 58.68 -3.94, 56.49 -5.89 C54.3 -7.84, 54.22 -9.36, 49.56 -10.62 C44.9 -11.88, 34.47 -13.24, 28.53 -13.44 C22.59 -13.65, 18.06 -13.21, 13.93 -11.85 C9.8 -10.49, 5.96 -7.51, 3.74 -5.28 C1.52 -3.06, 1 0.51, 0.6 1.49 C0.21 2.48, 1.32 1.1, 1.36 0.62" stroke="#087f5b" stroke-width="1" fill="none"></path></g></g><mask></mask><g stroke-linecap="round"><g transform="translate(912.9324294446428 969.4840209891329) rotate(89.99999999999994 30.37292764020924 6.9054319199414635)"><path d="M0.57 0.78 C0.73 1.78, -0.6 4.7, 0.87 6.27 C2.33 7.84, 6.6 9.07, 9.36 10.22 C12.13 11.36, 13.73 12.41, 17.46 13.13 C21.19 13.85, 26.39 14.55, 31.75 14.52 C37.11 14.48, 45.1 14.34, 49.64 12.9 C54.17 11.47, 57.28 8.17, 58.95 5.92 C60.63 3.67, 59.55 0.44, 59.7 -0.59 M-0.59 0.14 C-0.04 0.73, 1.59 2.44, 3.19 4.26 C4.8 6.07, 6.65 9.48, 9.05 11.04 C11.45 12.61, 13.47 13.01, 17.59 13.66 C21.71 14.3, 28.74 15.18, 33.77 14.91 C38.81 14.64, 43.46 13.73, 47.79 12.05 C52.12 10.37, 57.42 6.99, 59.75 4.84 C62.08 2.68, 61.51 0.17, 61.78 -0.88" stroke="#087f5b" stroke-width="1" fill="none"></path></g></g><mask></mask><g stroke-linecap="round"><g transform="translate(967.3402610343524 969.8901534960302) rotate(89.99999999999994 30.2860936553285 5.53539447441932)"><path d="M-0.73 0.21 C-0.42 0.73, 0.96 2.66, 2.46 3.93 C3.95 5.2, 5.78 6.59, 8.25 7.84 C10.73 9.08, 13.23 10.72, 17.31 11.41 C21.4 12.1, 27.47 12.13, 32.75 11.99 C38.04 11.85, 44.89 11.82, 49.01 10.56 C53.13 9.31, 55.67 6.23, 57.45 4.45 C59.23 2.66, 59.29 0.56, 59.67 -0.14 M1.08 -0.73 C1.26 -0.15, 0.91 3.42, 1.96 4.98 C3.01 6.53, 4.8 7.32, 7.37 8.58 C9.94 9.83, 13.34 11.85, 17.39 12.52 C21.44 13.18, 26.77 13.02, 31.69 12.56 C36.61 12.11, 42.6 11.36, 46.91 9.79 C51.22 8.22, 55.06 4.83, 57.54 3.16 C60.03 1.48, 61.21 0.38, 61.83 -0.26" stroke="#087f5b" stroke-width="1" fill="none"></path></g></g><mask></mask><g stroke-linecap="round" transform="translate(1023.1602069712799 962.8796037625077) rotate(89.99999999999994 30.70868250431886 13.65241946688451)"><path d="M33.5 0.68 C39.81 0.9, 47.18 2.43, 51.67 4.51 C56.15 6.6, 59.65 10.46, 60.41 13.19 C61.17 15.92, 59.91 18.49, 56.21 20.9 C52.5 23.32, 44.55 26.88, 38.2 27.69 C31.85 28.51, 24.05 27.04, 18.12 25.82 C12.19 24.59, 5.35 23.08, 2.64 20.33 C-0.07 17.58, 0.27 12.4, 1.86 9.34 C3.45 6.29, 6.43 3.38, 12.16 1.98 C17.89 0.59, 31.53 1.26, 36.21 0.97 C40.9 0.68, 40.12 0.17, 40.24 0.24 M40.02 1.12 C46.11 2.07, 54.37 4.22, 57.75 6.7 C61.13 9.18, 61.43 13.05, 60.31 15.98 C59.18 18.9, 56.07 22.29, 50.97 24.26 C45.88 26.23, 36.38 27.81, 29.74 27.81 C23.09 27.8, 16.16 26.14, 11.09 24.23 C6.01 22.32, 0.44 19.2, -0.71 16.34 C-1.86 13.47, 0.48 9.64, 4.19 7.04 C7.9 4.44, 15.25 1.92, 21.53 0.75 C27.82 -0.43, 38.56 -0.13, 41.9 -0.01 C45.24 0.11, 41.75 0.86, 41.59 1.46" stroke="none" stroke-width="0" fill="#fff"></path><path d="M27.83 0.7 C34.22 0.35, 42.96 1.24, 48.45 2.65 C53.93 4.06, 59.02 6.5, 60.74 9.15 C62.45 11.81, 61.47 15.9, 58.72 18.59 C55.97 21.27, 50.07 24.05, 44.23 25.28 C38.38 26.51, 30.23 26.4, 23.66 25.94 C17.08 25.49, 8.85 24.72, 4.8 22.54 C0.76 20.37, -1.37 15.83, -0.61 12.89 C0.15 9.95, 4.47 6.89, 9.38 4.9 C14.3 2.9, 25.17 1.82, 28.89 0.93 C32.61 0.04, 31.53 -0.37, 31.7 -0.46 M40.99 1.06 C47.3 1.92, 54.48 5.17, 57.87 7.64 C61.27 10.11, 62.43 13.07, 61.34 15.89 C60.25 18.7, 56.31 22.8, 51.33 24.53 C46.34 26.26, 38.02 26.49, 31.44 26.24 C24.86 26, 17.15 24.9, 11.84 23.08 C6.53 21.26, 0.66 17.76, -0.43 15.34 C-1.53 12.92, 1.79 11.13, 5.28 8.54 C8.77 5.96, 14.47 0.99, 20.51 -0.17 C26.54 -1.32, 37.95 1.3, 41.47 1.6 C44.99 1.89, 41.92 1.38, 41.62 1.62" stroke="#087f5b" stroke-width="1" fill="none"></path></g><g transform="translate(912.8802886974304 918.9719543457031) rotate(0 56.25 9.599999999999994)"><text x="0" y="0" font-family="Cascadia, Segoe UI Emoji" font-size="16px" fill="#1e1e1e" text-anchor="start" style="white-space: pre;" direction="ltr" dominant-baseline="text-before-edge">Apache Kafka</text></g><g stroke-linecap="round"><g transform="translate(106.06717834586794 855.7935485839844) rotate(0 73.17153930664062 -37.32432556152344)"><path d="M0 0 C24.39 -12.44, 121.95 -62.21, 146.34 -74.65 M0 0 C24.39 -12.44, 121.95 -62.21, 146.34 -74.65" stroke="#1e1e1e" stroke-width="1" fill="none"></path></g><g transform="translate(106.06717834586794 855.7935485839844) rotate(0 73.17153930664062 -37.32432556152344)"><path d="M129.3 -56.36 C133.47 -60.84, 137.65 -65.31, 146.34 -74.65 M129.3 -56.36 C133.61 -60.98, 137.92 -65.61, 146.34 -74.65" stroke="#1e1e1e" stroke-width="1" fill="none"></path></g><g transform="translate(106.06717834586794 855.7935485839844) rotate(0 73.17153930664062 -37.32432556152344)"><path d="M121.53 -71.59 C127.61 -72.34, 133.68 -73.09, 146.34 -74.65 M121.53 -71.59 C127.81 -72.36, 134.08 -73.14, 146.34 -74.65" stroke="#1e1e1e" stroke-width="1" fill="none"></path></g></g><mask></mask><g stroke-linecap="round"><g transform="translate(398.0584503185242 792.8097229003906) rotate(0 58.51389142709667 87.57354076590744)"><path d="M0 0 C19.5 29.19, 97.52 145.96, 117.03 175.15 M0 0 C19.5 29.19, 97.52 145.96, 117.03 175.15" stroke="#1e1e1e" stroke-width="1" fill="none"></path></g><g transform="translate(398.0584503185242 792.8097229003906) rotate(0 58.51389142709667 87.57354076590744)"><path d="M96.87 160.36 C103.49 165.22, 110.11 170.08, 117.03 175.15 M96.87 160.36 C103.65 165.34, 110.43 170.31, 117.03 175.15" stroke="#1e1e1e" stroke-width="1" fill="none"></path></g><g transform="translate(398.0584503185242 792.8097229003906) rotate(0 58.51389142709667 87.57354076590744)"><path d="M111.09 150.86 C113.04 158.84, 114.99 166.82, 117.03 175.15 M111.09 150.86 C113.08 159.03, 115.08 167.19, 117.03 175.15" stroke="#1e1e1e" stroke-width="1" fill="none"></path></g></g><mask></mask><g stroke-linecap="round"><g transform="translate(748.1821685802429 968.6530456831196) rotate(0 58.814239501953125 -0.07687379370821645)"><path d="M0 0 C19.6 -0.03, 98.02 -0.13, 117.63 -0.15 M0 0 C19.6 -0.03, 98.02 -0.13, 117.63 -0.15" stroke="#1e1e1e" stroke-width="1" fill="none"></path></g><g transform="translate(748.1821685802429 968.6530456831196) rotate(0 58.814239501953125 -0.07687379370821645)"><path d="M94.15 8.43 C103.27 5.09, 112.39 1.76, 117.63 -0.15 M94.15 8.43 C100.32 6.17, 106.5 3.91, 117.63 -0.15" stroke="#1e1e1e" stroke-width="1" fill="none"></path></g><g transform="translate(748.1821685802429 968.6530456831196) rotate(0 58.814239501953125 -0.07687379370821645)"><path d="M94.13 -8.67 C103.25 -5.36, 112.38 -2.06, 117.63 -0.15 M94.13 -8.67 C100.31 -6.43, 106.49 -4.19, 117.63 -0.15" stroke="#1e1e1e" stroke-width="1" fill="none"></path></g></g><mask></mask><g stroke-linecap="round" transform="translate(581.2299896251648 918.6561889648438) rotate(0 75.32723999023438 37.57110595703125)"><path d="M18.79 0 C42.71 0, 66.64 0, 131.87 0 M18.79 0 C61.88 0, 104.98 0, 131.87 0 M131.87 0 C144.39 0, 150.65 6.26, 150.65 18.79 M131.87 0 C144.39 0, 150.65 6.26, 150.65 18.79 M150.65 18.79 C150.65 28.99, 150.65 39.19, 150.65 56.36 M150.65 18.79 C150.65 31.03, 150.65 43.27, 150.65 56.36 M150.65 56.36 C150.65 68.88, 144.39 75.14, 131.87 75.14 M150.65 56.36 C150.65 68.88, 144.39 75.14, 131.87 75.14 M131.87 75.14 C105.66 75.14, 79.44 75.14, 18.79 75.14 M131.87 75.14 C102.5 75.14, 73.14 75.14, 18.79 75.14 M18.79 75.14 C6.26 75.14, 0 68.88, 0 56.36 M18.79 75.14 C6.26 75.14, 0 68.88, 0 56.36 M0 56.36 C0 43.61, 0 30.86, 0 18.79 M0 56.36 C0 48.81, 0 41.27, 0 18.79 M0 18.79 C0 6.26, 6.26 0, 18.79 0 M0 18.79 C0 6.26, 6.26 0, 18.79 0" stroke="#1e1e1e" stroke-width="1" fill="none"></path></g><g stroke-linecap="round" transform="translate(551.6373992931335 941.1028442382812) rotate(0 75.32723999023438 37.57110595703125)"><path d="M18.79 0 C45.75 0, 72.72 0, 131.87 0 C144.39 0, 150.65 6.26, 150.65 18.79 C150.65 27.52, 150.65 36.25, 150.65 56.36 C150.65 68.88, 144.39 75.14, 131.87 75.14 C94.67 75.14, 57.47 75.14, 18.79 75.14 C6.26 75.14, 0 68.88, 0 56.36 C0 47.2, 0 38.04, 0 18.79 C0 6.26, 6.26 0, 18.79 0" stroke="none" stroke-width="0" fill="white"></path><path d="M18.79 0 C44.73 0, 70.67 0, 131.87 0 M18.79 0 C63.1 0, 107.42 0, 131.87 0 M131.87 0 C144.39 0, 150.65 6.26, 150.65 18.79 M131.87 0 C144.39 0, 150.65 6.26, 150.65 18.79 M150.65 18.79 C150.65 28.34, 150.65 37.89, 150.65 56.36 M150.65 18.79 C150.65 32.76, 150.65 46.74, 150.65 56.36 M150.65 56.36 C150.65 68.88, 144.39 75.14, 131.87 75.14 M150.65 56.36 C150.65 68.88, 144.39 75.14, 131.87 75.14 M131.87 75.14 C92.12 75.14, 52.37 75.14, 18.79 75.14 M131.87 75.14 C106.77 75.14, 81.67 75.14, 18.79 75.14 M18.79 75.14 C6.26 75.14, 0 68.88, 0 56.36 M18.79 75.14 C6.26 75.14, 0 68.88, 0 56.36 M0 56.36 C0 44.58, 0 32.81, 0 18.79 M0 56.36 C0 48.22, 0 40.09, 0 18.79 M0 18.79 C0 6.26, 6.26 0, 18.79 0 M0 18.79 C0 6.26, 6.26 0, 18.79 0" stroke="#1e1e1e" stroke-width="1" fill="none"></path></g><g stroke-linecap="round" transform="translate(529.9952789318054 971.0504760742188) rotate(0 75.32723999023438 37.57110595703125)"><path d="M18.79 0 C54.97 0, 91.15 0, 131.87 0 C144.39 0, 150.65 6.26, 150.65 18.79 C150.65 26.64, 150.65 34.49, 150.65 56.36 C150.65 68.88, 144.39 75.14, 131.87 75.14 C101.13 75.14, 70.38 75.14, 18.79 75.14 C6.26 75.14, 0 68.88, 0 56.36 C0 47.2, 0 38.04, 0 18.79 C0 6.26, 6.26 0, 18.79 0" stroke="none" stroke-width="0" fill="white"></path><path d="M18.79 0 C56.78 0, 94.77 0, 131.87 0 M18.79 0 C61.02 0, 103.25 0, 131.87 0 M131.87 0 C144.39 0, 150.65 6.26, 150.65 18.79 M131.87 0 C144.39 0, 150.65 6.26, 150.65 18.79 M150.65 18.79 C150.65 27.89, 150.65 36.99, 150.65 56.36 M150.65 18.79 C150.65 31.52, 150.65 44.25, 150.65 56.36 M150.65 56.36 C150.65 68.88, 144.39 75.14, 131.87 75.14 M150.65 56.36 C150.65 68.88, 144.39 75.14, 131.87 75.14 M131.87 75.14 C102.34 75.14, 72.81 75.14, 18.79 75.14 M131.87 75.14 C101.79 75.14, 71.72 75.14, 18.79 75.14 M18.79 75.14 C6.26 75.14, 0 68.88, 0 56.36 M18.79 75.14 C6.26 75.14, 0 68.88, 0 56.36 M0 56.36 C0 48.03, 0 39.7, 0 18.79 M0 56.36 C0 47.66, 0 38.96, 0 18.79 M0 18.79 C0 6.26, 6.26 0, 18.79 0 M0 18.79 C0 6.26, 6.26 0, 18.79 0" stroke="#1e1e1e" stroke-width="1" fill="none"></path></g><g transform="translate(553.8902984630554 985.0813293457031) rotate(0 51.5625 19.19999999999999)"><text x="51.5625" y="0" font-family="Cascadia, Segoe UI Emoji" font-size="16px" fill="#1e1e1e" text-anchor="middle" style="white-space: pre;" direction="ltr" dominant-baseline="text-before-edge">Tracking</text><text x="51.5625" y="19.2" font-family="Cascadia, Segoe UI Emoji" font-size="16px" fill="#1e1e1e" text-anchor="middle" style="white-space: pre;" direction="ltr" dominant-baseline="text-before-edge">Service API</text></g><g stroke-linecap="round" transform="translate(1174.1712585460632 715.7261657714844) rotate(0 75.32723999023438 37.57110595703125)"><path d="M18.79 0 C47.95 0, 77.12 0, 131.87 0 M18.79 0 C42.74 0, 66.7 0, 131.87 0 M131.87 0 C144.39 0, 150.65 6.26, 150.65 18.79 M131.87 0 C144.39 0, 150.65 6.26, 150.65 18.79 M150.65 18.79 C150.65 26.58, 150.65 34.37, 150.65 56.36 M150.65 18.79 C150.65 28.2, 150.65 37.61, 150.65 56.36 M150.65 56.36 C150.65 68.88, 144.39 75.14, 131.87 75.14 M150.65 56.36 C150.65 68.88, 144.39 75.14, 131.87 75.14 M131.87 75.14 C91.74 75.14, 51.61 75.14, 18.79 75.14 M131.87 75.14 C90.33 75.14, 48.79 75.14, 18.79 75.14 M18.79 75.14 C6.26 75.14, 0 68.88, 0 56.36 M18.79 75.14 C6.26 75.14, 0 68.88, 0 56.36 M0 56.36 C0 47.44, 0 38.52, 0 18.79 M0 56.36 C0 45.86, 0 35.36, 0 18.79 M0 18.79 C0 6.26, 6.26 0, 18.79 0 M0 18.79 C0 6.26, 6.26 0, 18.79 0" stroke="#1e1e1e" stroke-width="1" fill="none"></path></g><g stroke-linecap="round" transform="translate(1144.578668214032 738.1728210449219) rotate(0 75.32723999023438 37.57110595703125)"><path d="M18.79 0 C63.62 0, 108.46 0, 131.87 0 C144.39 0, 150.65 6.26, 150.65 18.79 C150.65 30.92, 150.65 43.05, 150.65 56.36 C150.65 68.88, 144.39 75.14, 131.87 75.14 C102.32 75.14, 72.77 75.14, 18.79 75.14 C6.26 75.14, 0 68.88, 0 56.36 C0 46.86, 0 37.36, 0 18.79 C0 6.26, 6.26 0, 18.79 0" stroke="none" stroke-width="0" fill="white"></path><path d="M18.79 0 C41.62 0, 64.46 0, 131.87 0 M18.79 0 C57.15 0, 95.52 0, 131.87 0 M131.87 0 C144.39 0, 150.65 6.26, 150.65 18.79 M131.87 0 C144.39 0, 150.65 6.26, 150.65 18.79 M150.65 18.79 C150.65 32.34, 150.65 45.89, 150.65 56.36 M150.65 18.79 C150.65 29.83, 150.65 40.88, 150.65 56.36 M150.65 56.36 C150.65 68.88, 144.39 75.14, 131.87 75.14 M150.65 56.36 C150.65 68.88, 144.39 75.14, 131.87 75.14 M131.87 75.14 C102.73 75.14, 73.6 75.14, 18.79 75.14 M131.87 75.14 C88.83 75.14, 45.79 75.14, 18.79 75.14 M18.79 75.14 C6.26 75.14, 0 68.88, 0 56.36 M18.79 75.14 C6.26 75.14, 0 68.88, 0 56.36 M0 56.36 C0 42.65, 0 28.93, 0 18.79 M0 56.36 C0 43.39, 0 30.42, 0 18.79 M0 18.79 C0 6.26, 6.26 0, 18.79 0 M0 18.79 C0 6.26, 6.26 0, 18.79 0" stroke="#1e1e1e" stroke-width="1" fill="none"></path></g><g stroke-linecap="round" transform="translate(1122.9365478527038 768.1204528808594) rotate(0 75.32723999023438 37.57110595703125)"><path d="M18.79 0 C62.97 0, 107.15 0, 131.87 0 C144.39 0, 150.65 6.26, 150.65 18.79 C150.65 27.22, 150.65 35.66, 150.65 56.36 C150.65 68.88, 144.39 75.14, 131.87 75.14 C89.83 75.14, 47.78 75.14, 18.79 75.14 C6.26 75.14, 0 68.88, 0 56.36 C0 46.83, 0 37.31, 0 18.79 C0 6.26, 6.26 0, 18.79 0" stroke="none" stroke-width="0" fill="white"></path><path d="M18.79 0 C60.03 0, 101.26 0, 131.87 0 M18.79 0 C62.9 0, 107.01 0, 131.87 0 M131.87 0 C144.39 0, 150.65 6.26, 150.65 18.79 M131.87 0 C144.39 0, 150.65 6.26, 150.65 18.79 M150.65 18.79 C150.65 33.49, 150.65 48.19, 150.65 56.36 M150.65 18.79 C150.65 29.23, 150.65 39.67, 150.65 56.36 M150.65 56.36 C150.65 68.88, 144.39 75.14, 131.87 75.14 M150.65 56.36 C150.65 68.88, 144.39 75.14, 131.87 75.14 M131.87 75.14 C90.69 75.14, 49.51 75.14, 18.79 75.14 M131.87 75.14 C89.37 75.14, 46.88 75.14, 18.79 75.14 M18.79 75.14 C6.26 75.14, 0 68.88, 0 56.36 M18.79 75.14 C6.26 75.14, 0 68.88, 0 56.36 M0 56.36 C0 42.51, 0 28.67, 0 18.79 M0 56.36 C0 43.93, 0 31.5, 0 18.79 M0 18.79 C0 6.26, 6.26 0, 18.79 0 M0 18.79 C0 6.26, 6.26 0, 18.79 0" stroke="#1e1e1e" stroke-width="1" fill="none"></path></g><g transform="translate(1160.8940673839538 782.1513061523438) rotate(0 37.5 19.19999999999999)"><text x="37.5" y="0" font-family="Cascadia, Segoe UI Emoji" font-size="16px" fill="#1e1e1e" text-anchor="middle" style="white-space: pre;" direction="ltr" dominant-baseline="text-before-edge">Tracking</text><text x="37.5" y="19.2" font-family="Cascadia, Segoe UI Emoji" font-size="16px" fill="#1e1e1e" text-anchor="middle" style="white-space: pre;" direction="ltr" dominant-baseline="text-before-edge">Consumer</text></g><g stroke-linecap="round"><g transform="translate(1019.3219223758226 519.5592146713177) rotate(0 44.06059301640448 47.85201411482012)" fill-rule="evenodd"><path d="M0.92 1.52 C0.93 15.21, 2.16 68.79, 2.27 84.4 C2.38 100.01, 1.1 92.69, 1.56 95.16 C2.02 97.63, 1.55 97.59, 5.01 99.24 C8.47 100.89, 14.95 103.78, 22.34 105.06 C29.74 106.35, 41.32 107.13, 49.37 106.96 C57.42 106.8, 64.3 105.51, 70.63 104.06 C76.96 102.61, 84.83 99.41, 87.36 98.27 C89.9 97.13, 85.39 99.06, 85.85 97.22 C86.3 95.37, 89.86 101.94, 90.11 87.2 C90.35 72.47, 87.38 23.1, 87.34 8.82 C87.29 -5.46, 91.12 3.34, 89.86 1.51 C88.6 -0.31, 82.75 -0.83, 79.77 -2.12 C76.79 -3.42, 78.36 -5.2, 71.98 -6.23 C65.61 -7.26, 50.18 -8.29, 41.53 -8.3 C32.87 -8.32, 26.4 -6.82, 20.06 -6.32 C13.71 -5.82, 7.21 -6.52, 3.46 -5.3 C-0.3 -4.09, -1.57 0.06, -2.46 0.98 C-3.35 1.9, -2.32 0.29, -1.88 0.24" stroke="none" stroke-width="0" fill="#228be6" fill-rule="evenodd"></path><path d="M-0.27 -0.89 C-0.47 13.51, -0.46 69.67, -0.57 85.73 C-0.68 101.79, -1.71 93.16, -0.93 95.49 C-0.15 97.81, 0.43 98.47, 4.09 99.67 C7.76 100.86, 14.03 101.95, 21.05 102.63 C28.08 103.32, 37.6 103.8, 46.25 103.78 C54.89 103.76, 66.22 103.44, 72.92 102.51 C79.61 101.58, 83.82 99.26, 86.39 98.2 C88.97 97.15, 88.24 97.92, 88.37 96.18 C88.5 94.43, 87.07 102.65, 87.19 87.73 C87.31 72.81, 88.93 21.23, 89.1 6.66 C89.27 -7.91, 89.46 2.19, 88.21 0.32 C86.96 -1.55, 84.63 -3.16, 81.62 -4.54 C78.62 -5.93, 76.78 -7.11, 70.15 -7.96 C63.52 -8.82, 50.12 -9.85, 41.83 -9.66 C33.55 -9.47, 26.59 -7.64, 20.43 -6.85 C14.27 -6.05, 8.45 -6.05, 4.89 -4.88 C1.33 -3.71, -0.3 -0.7, -0.93 0.17 C-1.55 1.04, 1.03 0.5, 1.13 0.34 M1.79 1.25 C1.9 15.89, 1.75 71.2, 1.69 87.1 C1.64 102.99, 1.07 94.37, 1.47 96.61 C1.87 98.86, 1.02 99.57, 4.1 100.55 C7.19 101.53, 12.77 101.6, 19.97 102.48 C27.16 103.37, 38.3 105.53, 47.27 105.87 C56.24 106.22, 67.41 105.95, 73.8 104.57 C80.18 103.19, 83.39 99.12, 85.58 97.58 C87.77 96.04, 86.63 97.01, 86.94 95.33 C87.25 93.66, 87.54 102.19, 87.45 87.52 C87.35 72.86, 86.41 21.9, 86.36 7.35 C86.32 -7.2, 87.95 2.36, 87.18 0.25 C86.41 -1.87, 84.68 -3.87, 81.75 -5.36 C78.82 -6.84, 76.26 -7.79, 69.58 -8.65 C62.91 -9.51, 49.77 -10.51, 41.7 -10.52 C33.64 -10.54, 27.45 -9.69, 21.21 -8.73 C14.96 -7.77, 7.59 -6.32, 4.22 -4.76 C0.85 -3.19, 1.63 -0.26, 0.99 0.66 C0.34 1.58, 0.5 0.77, 0.33 0.77" stroke="#0a11d3" stroke-width="1" fill="none"></path></g></g><mask></mask><g stroke-linecap="round"><g transform="translate(1020.00928396532 584.8493427021053) rotate(0 44.15404313987267 4.448651936218255)"><path d="M-0.86 -0.32 C-0.58 0.42, -0.75 2.36, 1.38 3.54 C3.51 4.72, 7.73 6, 11.91 6.76 C16.09 7.53, 20.78 7.87, 26.44 8.14 C32.11 8.4, 38.38 8.44, 45.89 8.35 C53.4 8.26, 64.86 8.49, 71.49 7.6 C78.13 6.7, 82.81 4.12, 85.69 2.95 C88.57 1.78, 88.5 1.07, 88.78 0.58 M0.89 -1.54 C1.56 -0.55, 1.93 3.32, 3.6 4.89 C5.27 6.46, 6.99 7.23, 10.91 7.86 C14.82 8.5, 20.95 8.64, 27.08 8.7 C33.21 8.76, 40.63 8.61, 47.69 8.21 C54.76 7.81, 63.01 6.84, 69.49 6.3 C75.96 5.76, 83.46 5.9, 86.55 4.98 C89.63 4.06, 87.62 1.79, 88 0.78" stroke="#0a11d3" stroke-width="1" fill="none"></path></g></g><mask></mask><g stroke-linecap="round"><g transform="translate(1018.9155424532585 551.7751881400336) rotate(0 44.15404313987267 4.448651936218255)"><path d="M-0.94 -0.36 C-0.49 0.27, -0.46 2.4, 1.88 3.49 C4.22 4.57, 9.24 5.37, 13.09 6.15 C16.94 6.93, 19.31 7.71, 24.98 8.17 C30.64 8.62, 39.34 8.96, 47.09 8.86 C54.83 8.76, 64.99 8.27, 71.44 7.55 C77.88 6.82, 83.11 5.77, 85.76 4.52 C88.41 3.26, 86.71 0.94, 87.33 0.02 M0.76 -1.6 C1.09 -0.77, -1.3 3.39, 0.69 4.81 C2.68 6.23, 8.69 6.27, 12.71 6.93 C16.74 7.58, 19.31 8.4, 24.84 8.74 C30.36 9.09, 38.43 8.8, 45.86 8.99 C53.28 9.18, 62.6 10.77, 69.4 9.89 C76.2 9.01, 83.3 5.37, 86.65 3.71 C89.99 2.05, 89.16 0.38, 89.45 -0.08" stroke="#0a11d3" stroke-width="1" fill="none"></path></g></g><mask></mask><g stroke-linecap="round" transform="translate(1017.7947197670969 511.534518444221) rotate(0 43.825373054270926 8.863351988406805)"><path d="M54.86 0.69 C63.62 1.04, 73.93 1.97, 79.4 3.4 C84.88 4.84, 88.32 7.37, 87.71 9.29 C87.09 11.22, 82.3 13.63, 75.71 14.95 C69.12 16.26, 57.5 17.04, 48.14 17.18 C38.79 17.33, 27.32 16.81, 19.59 15.84 C11.86 14.86, 4.38 13.15, 1.77 11.35 C-0.85 9.56, 0.02 6.77, 3.9 5.06 C7.77 3.35, 16.3 1.8, 25.01 1.09 C33.72 0.38, 50.68 0.76, 56.15 0.77 C61.62 0.78, 58.04 1.09, 57.82 1.15 M38.49 0.43 C47.42 0.18, 60.48 0.63, 68.29 1.59 C76.11 2.55, 82.85 4.47, 85.38 6.21 C87.91 7.94, 87.23 10.2, 83.48 12 C79.73 13.79, 71.28 16.08, 62.86 16.98 C54.44 17.88, 41.99 17.73, 32.97 17.37 C23.94 17.01, 14.29 16.28, 8.73 14.83 C3.17 13.38, -1 10.66, -0.38 8.69 C0.24 6.71, 5.87 4.39, 12.48 2.99 C19.08 1.59, 34.84 0.88, 39.25 0.3 C43.65 -0.28, 38.91 -0.46, 38.89 -0.47" stroke="none" stroke-width="0" fill="#fff"></path><path d="M50.08 0.29 C59.02 0.54, 70.35 1.76, 76.57 3.19 C82.8 4.62, 87.11 7.06, 87.42 8.87 C87.73 10.67, 84.24 12.48, 78.43 14 C72.62 15.53, 61.89 17.54, 52.57 18.03 C43.25 18.52, 30.73 17.94, 22.51 16.94 C14.29 15.93, 6.62 13.8, 3.26 11.99 C-0.11 10.19, -0.57 7.97, 2.34 6.12 C5.24 4.28, 12.51 1.95, 20.7 0.92 C28.89 -0.11, 46.07 -0.04, 51.48 -0.06 C56.9 -0.07, 53.36 0.71, 53.18 0.83 M45.66 -0.49 C54.59 -0.44, 67.21 1.59, 74.2 3.04 C81.18 4.49, 86.39 6.52, 87.57 8.2 C88.76 9.88, 86.36 11.66, 81.32 13.14 C76.28 14.63, 66.39 16.51, 57.35 17.11 C48.31 17.72, 35.71 17.41, 27.07 16.78 C18.43 16.16, 9.72 14.89, 5.51 13.36 C1.3 11.83, -0.06 9.46, 1.8 7.59 C3.66 5.72, 9.28 3.43, 16.69 2.14 C24.11 0.85, 41.54 0.09, 46.29 -0.13 C51.04 -0.35, 45.21 0.65, 45.2 0.82" stroke="#0a11d3" stroke-width="1" fill="none"></path></g><g stroke-linecap="round" transform="translate(1089.3044520676774 536.1103213213546) rotate(0 6.423028523489961 6.970952181208077)"><path d="M5.25 -0.09 C6.45 -0.57, 8.36 -0.09, 9.6 0.64 C10.84 1.37, 12.26 2.96, 12.69 4.29 C13.12 5.63, 12.64 7.27, 12.2 8.63 C11.76 10, 11.14 11.62, 10.04 12.5 C8.93 13.38, 6.95 14.09, 5.58 13.91 C4.2 13.73, 2.64 12.5, 1.78 11.42 C0.93 10.34, 0.58 8.79, 0.46 7.4 C0.35 6.01, 0.32 4.22, 1.12 3.08 C1.93 1.94, 4.53 1.04, 5.3 0.54 C6.07 0.03, 5.73 0.07, 5.75 0.05 M6.01 0.14 C7.3 -0.17, 8.55 0.31, 9.57 1.07 C10.58 1.83, 11.73 3.19, 12.11 4.69 C12.49 6.18, 12.4 8.63, 11.82 10.04 C11.24 11.45, 9.78 12.42, 8.64 13.15 C7.51 13.88, 6.32 14.72, 5 14.43 C3.68 14.14, 1.5 12.7, 0.73 11.4 C-0.04 10.11, 0.17 8.18, 0.4 6.67 C0.64 5.16, 1.26 3.56, 2.14 2.33 C3.01 1.11, 5.09 -0.19, 5.65 -0.67 C6.2 -1.15, 5.47 -0.67, 5.46 -0.54" stroke="none" stroke-width="0" fill="#fff"></path><path d="M5.24 0.25 C6.55 -0.05, 8.25 0.53, 9.53 1.2 C10.81 1.88, 12.42 2.86, 12.93 4.32 C13.45 5.78, 13.21 8.46, 12.61 9.97 C12 11.48, 10.47 12.76, 9.28 13.38 C8.09 14.01, 6.76 14.05, 5.45 13.73 C4.14 13.4, 2.4 12.66, 1.43 11.44 C0.45 10.23, -0.38 8, -0.39 6.46 C-0.41 4.91, 0.28 3.16, 1.35 2.17 C2.41 1.19, 5.35 0.92, 6 0.52 C6.65 0.13, 5.28 -0.3, 5.24 -0.19 M7.54 0.71 C8.93 0.88, 10.19 1.59, 11.17 2.42 C12.15 3.26, 13.24 4.37, 13.42 5.74 C13.59 7.11, 13.07 9.38, 12.22 10.66 C11.37 11.94, 9.63 12.9, 8.33 13.41 C7.04 13.93, 5.59 14.22, 4.43 13.77 C3.27 13.31, 2.18 12.05, 1.38 10.69 C0.58 9.33, -0.65 7.19, -0.37 5.61 C-0.09 4.02, 1.97 2.01, 3.07 1.19 C4.17 0.36, 5.51 0.83, 6.24 0.65 C6.97 0.48, 7.39 0.05, 7.46 0.14" stroke="#0a11d3" stroke-width="1" fill="none"></path></g><g stroke-linecap="round" transform="translate(1089.3044520676774 566.7127751804151) rotate(0 6.423028523489961 6.970952181208077)"><path d="M7.94 -0.02 C9.26 0.23, 11.05 1.51, 11.81 2.64 C12.57 3.77, 12.58 5.31, 12.51 6.75 C12.44 8.19, 12.25 10.08, 11.39 11.27 C10.53 12.47, 8.72 13.68, 7.34 13.91 C5.96 14.14, 4.23 13.42, 3.13 12.65 C2.04 11.88, 1.25 10.6, 0.77 9.28 C0.28 7.96, -0.16 6.07, 0.24 4.73 C0.64 3.4, 1.91 2.05, 3.15 1.28 C4.39 0.51, 6.88 0.32, 7.69 0.12 C8.5 -0.08, 8.01 -0.01, 8.01 0.07 M6.74 -0.1 C7.93 -0.1, 9.69 0.67, 10.63 1.82 C11.58 2.97, 12.33 5.26, 12.39 6.81 C12.45 8.35, 11.72 9.8, 10.99 11.08 C10.26 12.35, 9.36 14.06, 8.03 14.48 C6.7 14.89, 4.21 14.31, 3.02 13.55 C1.83 12.79, 1.29 11.31, 0.89 9.91 C0.48 8.51, 0.27 6.74, 0.59 5.16 C0.9 3.57, 1.74 1.38, 2.78 0.41 C3.83 -0.56, 6.18 -0.52, 6.87 -0.66 C7.56 -0.8, 6.96 -0.68, 6.93 -0.42" stroke="none" stroke-width="0" fill="#fff"></path><path d="M6.81 0.23 C8.23 0.18, 10.4 0.56, 11.43 1.68 C12.47 2.79, 13.02 5.29, 13.02 6.9 C13.02 8.5, 12.21 10.2, 11.42 11.32 C10.64 12.44, 9.6 13.3, 8.31 13.64 C7.02 13.98, 5.03 14.06, 3.67 13.37 C2.32 12.68, 0.8 10.91, 0.19 9.5 C-0.43 8.09, -0.51 6.21, -0.01 4.91 C0.49 3.61, 2.09 2.56, 3.2 1.69 C4.31 0.82, 5.97 -0.15, 6.66 -0.32 C7.36 -0.49, 7.27 0.52, 7.36 0.67 M5.63 0.56 C6.9 0.04, 9.06 -0.19, 10.28 0.45 C11.5 1.09, 12.56 2.97, 12.95 4.42 C13.33 5.87, 13.04 7.63, 12.59 9.14 C12.13 10.65, 11.32 12.57, 10.22 13.46 C9.12 14.35, 7.55 14.78, 6 14.5 C4.45 14.21, 1.84 13.03, 0.92 11.74 C-0.01 10.45, 0.42 8.22, 0.42 6.78 C0.42 5.34, -0.02 4.2, 0.9 3.09 C1.82 1.97, 5.23 0.47, 5.94 0.08 C6.66 -0.31, 5.14 0.51, 5.18 0.73" stroke="#0a11d3" stroke-width="1" fill="none"></path></g><g stroke-linecap="round" transform="translate(1089.3044520676774 599.9735763549118) rotate(0 6.423028523489961 6.970952181208077)"><path d="M5.96 -0.01 C7.17 -0.33, 8.46 -0.12, 9.6 0.64 C10.74 1.4, 12.32 3.04, 12.78 4.56 C13.24 6.08, 12.93 8.34, 12.38 9.74 C11.83 11.14, 10.62 12.27, 9.47 12.97 C8.31 13.67, 6.83 14.18, 5.43 13.95 C4.03 13.71, 2 12.7, 1.05 11.56 C0.1 10.41, -0.33 8.65, -0.27 7.07 C-0.22 5.5, 0.38 3.35, 1.39 2.11 C2.41 0.87, 5.01 0.03, 5.82 -0.35 C6.63 -0.73, 6.15 -0.37, 6.24 -0.17 M6.15 -0.41 C7.47 -0.39, 9.26 0.92, 10.28 1.97 C11.29 3.02, 11.94 4.33, 12.24 5.9 C12.53 7.47, 12.77 10.03, 12.05 11.38 C11.34 12.72, 9.21 13.6, 7.94 13.98 C6.66 14.36, 5.54 14.25, 4.4 13.67 C3.25 13.09, 1.78 11.96, 1.05 10.49 C0.31 9.01, -0.19 6.44, -0.02 4.82 C0.16 3.19, 1.05 1.66, 2.11 0.76 C3.18 -0.15, 5.69 -0.53, 6.37 -0.61 C7.05 -0.69, 6.08 -0.06, 6.19 0.28" stroke="none" stroke-width="0" fill="#fff"></path><path d="M7.39 -0.38 C8.77 -0.31, 10.28 1.33, 11.14 2.5 C12.01 3.67, 12.45 5.25, 12.59 6.64 C12.72 8.04, 12.72 9.67, 11.97 10.87 C11.23 12.06, 9.56 13.46, 8.12 13.81 C6.68 14.15, 4.63 13.61, 3.33 12.93 C2.04 12.26, 0.82 10.95, 0.37 9.74 C-0.08 8.52, 0.32 7.13, 0.63 5.65 C0.94 4.18, 1.12 1.76, 2.22 0.91 C3.33 0.05, 6.39 0.66, 7.27 0.52 C8.15 0.38, 7.59 -0.04, 7.51 0.07 M8.5 -0.32 C9.83 -0.19, 11.3 1.35, 12.04 2.59 C12.79 3.83, 13.03 5.51, 12.98 7.11 C12.92 8.71, 12.57 10.94, 11.72 12.18 C10.88 13.42, 9.47 14.41, 7.91 14.56 C6.34 14.72, 3.54 14.08, 2.34 13.12 C1.14 12.17, 1.1 10.21, 0.69 8.83 C0.28 7.46, -0.68 6.2, -0.11 4.85 C0.47 3.5, 2.83 1.42, 4.13 0.73 C5.43 0.03, 6.96 0.65, 7.71 0.68 C8.45 0.7, 8.69 0.73, 8.6 0.89" stroke="#0a11d3" stroke-width="1" fill="none"></path></g><g stroke-linecap="round"><g transform="translate(1252.2823883068054 682.9264678955078) rotate(0 -51.65814208984375 -60.00010681152344)"><path d="M0 0 C-1.98 -17.5, 5.33 -85.02, -11.89 -105.02 C-29.11 -125.02, -88.08 -117.5, -103.32 -120 M0 0 C-1.98 -17.5, 5.33 -85.02, -11.89 -105.02 C-29.11 -125.02, -88.08 -117.5, -103.32 -120" stroke="#1e1e1e" stroke-width="1" fill="none"></path></g><g transform="translate(1252.2823883068054 682.9264678955078) rotate(0 -51.65814208984375 -60.00010681152344)"><path d="M-79.63 -127.98 C-85.36 -126.05, -91.1 -124.12, -103.32 -120 M-79.63 -127.98 C-84.76 -126.25, -89.89 -124.52, -103.32 -120" stroke="#1e1e1e" stroke-width="1" fill="none"></path></g><g transform="translate(1252.2823883068054 682.9264678955078) rotate(0 -51.65814208984375 -60.00010681152344)"><path d="M-80.04 -110.89 C-85.67 -113.09, -91.31 -115.3, -103.32 -120 M-80.04 -110.89 C-85.08 -112.86, -90.13 -114.84, -103.32 -120" stroke="#1e1e1e" stroke-width="1" fill="none"></path></g></g><mask></mask><g stroke-linecap="round" transform="translate(612.6342102062194 513.1195220947266) rotate(0 75.32723999023438 37.57110595703125)"><path d="M18.79 0 C45.59 0, 72.4 0, 131.87 0 M18.79 0 C41.81 0, 64.84 0, 131.87 0 M131.87 0 C144.39 0, 150.65 6.26, 150.65 18.79 M131.87 0 C144.39 0, 150.65 6.26, 150.65 18.79 M150.65 18.79 C150.65 33.23, 150.65 47.67, 150.65 56.36 M150.65 18.79 C150.65 32.4, 150.65 46.01, 150.65 56.36 M150.65 56.36 C150.65 68.88, 144.39 75.14, 131.87 75.14 M150.65 56.36 C150.65 68.88, 144.39 75.14, 131.87 75.14 M131.87 75.14 C97.91 75.14, 63.95 75.14, 18.79 75.14 M131.87 75.14 C107.04 75.14, 82.22 75.14, 18.79 75.14 M18.79 75.14 C6.26 75.14, 0 68.88, 0 56.36 M18.79 75.14 C6.26 75.14, 0 68.88, 0 56.36 M0 56.36 C0 46.81, 0 37.25, 0 18.79 M0 56.36 C0 48.52, 0 40.69, 0 18.79 M0 18.79 C0 6.26, 6.26 0, 18.79 0 M0 18.79 C0 6.26, 6.26 0, 18.79 0" stroke="#1e1e1e" stroke-width="1" fill="none"></path></g><g stroke-linecap="round" transform="translate(583.0416198741882 535.5661773681641) rotate(0 75.32723999023438 37.57110595703125)"><path d="M18.79 0 C49.26 0, 79.74 0, 131.87 0 C144.39 0, 150.65 6.26, 150.65 18.79 C150.65 32.86, 150.65 46.93, 150.65 56.36 C150.65 68.88, 144.39 75.14, 131.87 75.14 C94.96 75.14, 58.06 75.14, 18.79 75.14 C6.26 75.14, 0 68.88, 0 56.36 C0 44.01, 0 31.66, 0 18.79 C0 6.26, 6.26 0, 18.79 0" stroke="none" stroke-width="0" fill="white"></path><path d="M18.79 0 C48.29 0, 77.8 0, 131.87 0 M18.79 0 C54.38 0, 89.98 0, 131.87 0 M131.87 0 C144.39 0, 150.65 6.26, 150.65 18.79 M131.87 0 C144.39 0, 150.65 6.26, 150.65 18.79 M150.65 18.79 C150.65 30.48, 150.65 42.17, 150.65 56.36 M150.65 18.79 C150.65 27.11, 150.65 35.43, 150.65 56.36 M150.65 56.36 C150.65 68.88, 144.39 75.14, 131.87 75.14 M150.65 56.36 C150.65 68.88, 144.39 75.14, 131.87 75.14 M131.87 75.14 C93.35 75.14, 54.82 75.14, 18.79 75.14 M131.87 75.14 C87.42 75.14, 42.98 75.14, 18.79 75.14 M18.79 75.14 C6.26 75.14, 0 68.88, 0 56.36 M18.79 75.14 C6.26 75.14, 0 68.88, 0 56.36 M0 56.36 C0 42.34, 0 28.33, 0 18.79 M0 56.36 C0 44.35, 0 32.34, 0 18.79 M0 18.79 C0 6.26, 6.26 0, 18.79 0 M0 18.79 C0 6.26, 6.26 0, 18.79 0" stroke="#1e1e1e" stroke-width="1" fill="none"></path></g><g stroke-linecap="round" transform="translate(561.3994995128601 565.5138092041016) rotate(0 75.32723999023438 37.57110595703125)"><path d="M18.79 0 C46.37 0, 73.95 0, 131.87 0 C144.39 0, 150.65 6.26, 150.65 18.79 C150.65 31.36, 150.65 43.94, 150.65 56.36 C150.65 68.88, 144.39 75.14, 131.87 75.14 C103.53 75.14, 75.19 75.14, 18.79 75.14 C6.26 75.14, 0 68.88, 0 56.36 C0 44.59, 0 32.81, 0 18.79 C0 6.26, 6.26 0, 18.79 0" stroke="none" stroke-width="0" fill="white"></path><path d="M18.79 0 C54.46 0, 90.14 0, 131.87 0 M18.79 0 C43.92 0, 69.05 0, 131.87 0 M131.87 0 C144.39 0, 150.65 6.26, 150.65 18.79 M131.87 0 C144.39 0, 150.65 6.26, 150.65 18.79 M150.65 18.79 C150.65 28.43, 150.65 38.08, 150.65 56.36 M150.65 18.79 C150.65 27.29, 150.65 35.79, 150.65 56.36 M150.65 56.36 C150.65 68.88, 144.39 75.14, 131.87 75.14 M150.65 56.36 C150.65 68.88, 144.39 75.14, 131.87 75.14 M131.87 75.14 C88.05 75.14, 44.22 75.14, 18.79 75.14 M131.87 75.14 C98.51 75.14, 65.16 75.14, 18.79 75.14 M18.79 75.14 C6.26 75.14, 0 68.88, 0 56.36 M18.79 75.14 C6.26 75.14, 0 68.88, 0 56.36 M0 56.36 C0 42.93, 0 29.51, 0 18.79 M0 56.36 C0 43.08, 0 29.81, 0 18.79 M0 18.79 C0 6.26, 6.26 0, 18.79 0 M0 18.79 C0 6.26, 6.26 0, 18.79 0" stroke="#1e1e1e" stroke-width="1" fill="none"></path></g><g transform="translate(585.2945190441101 579.5446624755859) rotate(0 51.5625 19.19999999999999)"><text x="51.5625" y="0" font-family="Cascadia, Segoe UI Emoji" font-size="16px" fill="#1e1e1e" text-anchor="middle" style="white-space: pre;" direction="ltr" dominant-baseline="text-before-edge">Reporting</text><text x="51.5625" y="19.2" font-family="Cascadia, Segoe UI Emoji" font-size="16px" fill="#1e1e1e" text-anchor="middle" style="white-space: pre;" direction="ltr" dominant-baseline="text-before-edge">Service API</text></g><g stroke-linecap="round"><g transform="translate(391.3279815685242 746.8011474609375) rotate(0 64.08114624023438 -62.988067626953125)"><path d="M0 0 C21.36 -21, 106.8 -104.98, 128.16 -125.98 M0 0 C21.36 -21, 106.8 -104.98, 128.16 -125.98" stroke="#1e1e1e" stroke-width="1" fill="none"></path></g><g transform="translate(391.3279815685242 746.8011474609375) rotate(0 64.08114624023438 -62.988067626953125)"><path d="M117.4 -103.41 C120.97 -110.89, 124.54 -118.37, 128.16 -125.98 M117.4 -103.41 C121.47 -111.94, 125.54 -120.47, 128.16 -125.98" stroke="#1e1e1e" stroke-width="1" fill="none"></path></g><g transform="translate(391.3279815685242 746.8011474609375) rotate(0 64.08114624023438 -62.988067626953125)"><path d="M105.41 -115.61 C112.96 -119.04, 120.5 -122.48, 128.16 -125.98 M105.41 -115.61 C114.01 -119.53, 122.61 -123.45, 128.16 -125.98" stroke="#1e1e1e" stroke-width="1" fill="none"></path></g></g><mask></mask><g stroke-linecap="round"><g transform="translate(983.6361107701177 528.7277107447578) rotate(0 -96.71256679806243 -0.10254098028906355)"><path d="M0 0 C-32.24 -0.03, -161.19 -0.17, -193.43 -0.21 M0 0 C-32.24 -0.03, -161.19 -0.17, -193.43 -0.21" stroke="#1e1e1e" stroke-width="1" fill="none"></path></g><g transform="translate(983.6361107701177 528.7277107447578) rotate(0 -96.71256679806243 -0.10254098028906355)"><path d="M-169.92 -8.73 C-176.12 -6.48, -182.31 -4.24, -193.43 -0.21 M-169.92 -8.73 C-177.22 -6.08, -184.53 -3.43, -193.43 -0.21" stroke="#1e1e1e" stroke-width="1" fill="none"></path></g><g transform="translate(983.6361107701177 528.7277107447578) rotate(0 -96.71256679806243 -0.10254098028906355)"><path d="M-169.94 8.37 C-176.13 6.11, -182.32 3.85, -193.43 -0.21 M-169.94 8.37 C-177.24 5.71, -184.53 3.04, -193.43 -0.21" stroke="#1e1e1e" stroke-width="1" fill="none"></path></g></g><mask></mask><g transform="translate(23.299615479657035 908.4135215206841) rotate(0 27.76997375488281 12.5)"><text x="0" y="0" font-family="Virgil, Segoe UI Emoji" font-size="20px" fill="#000000" text-anchor="start" style="white-space: pre;" direction="ltr" dominant-baseline="text-before-edge">Users</text></g><g stroke-linecap="round" transform="translate(63.742432418876284 841.1536781863472) rotate(0 9.875171816384785 8.640775339336699)"><path d="M2.19 3.23 C2.19 3.23, 2.19 3.23, 2.19 3.23 M2.19 3.23 C2.19 3.23, 2.19 3.23, 2.19 3.23 M2.98 14.51 C7.29 9.55, 11.61 4.58, 14.79 0.93 M2.98 14.51 C6.3 10.69, 9.62 6.87, 14.79 0.93 M10.33 18.25 C13.38 14.74, 16.43 11.24, 19.51 7.69 M10.33 18.25 C13.91 14.13, 17.5 10, 19.51 7.69 M3.77 15.47 C3.77 15.47, 3.77 15.47, 3.77 15.47 M3.77 15.47 C3.77 15.47, 3.77 15.47, 3.77 15.47 M15.81 15.34 C11.36 11.47, 6.9 7.59, 2.23 3.53 M15.81 15.34 C12.68 12.62, 9.55 9.89, 2.23 3.53 M20.31 8.65 C16.73 5.54, 13.16 2.43, 9.74 -0.54 M20.31 8.65 C16.45 5.3, 12.6 1.95, 9.74 -0.54" stroke="#ced4da" stroke-width="1" fill="none"></path><path d="M19.75 8.64 C19.75 9.14, 19.7 9.65, 19.6 10.14 C19.5 10.63, 19.35 11.13, 19.15 11.6 C18.96 12.07, 18.71 12.53, 18.43 12.96 C18.14 13.39, 17.81 13.81, 17.44 14.19 C17.07 14.58, 16.66 14.94, 16.22 15.26 C15.78 15.58, 15.31 15.87, 14.81 16.12 C14.32 16.37, 13.79 16.59, 13.25 16.76 C12.72 16.93, 12.15 17.06, 11.59 17.15 C11.03 17.24, 10.45 17.28, 9.88 17.28 C9.3 17.28, 8.72 17.24, 8.16 17.15 C7.6 17.06, 7.03 16.93, 6.5 16.76 C5.96 16.59, 5.43 16.37, 4.94 16.12 C4.44 15.87, 3.97 15.58, 3.53 15.26 C3.09 14.94, 2.68 14.58, 2.31 14.19 C1.94 13.81, 1.61 13.39, 1.32 12.96 C1.04 12.53, 0.79 12.07, 0.6 11.6 C0.4 11.13, 0.25 10.63, 0.15 10.14 C0.05 9.65, 0 9.14, 0 8.64 C0 8.14, 0.05 7.63, 0.15 7.14 C0.25 6.65, 0.4 6.16, 0.6 5.69 C0.79 5.22, 1.04 4.75, 1.32 4.32 C1.61 3.89, 1.94 3.47, 2.31 3.09 C2.68 2.7, 3.09 2.34, 3.53 2.02 C3.97 1.7, 4.44 1.41, 4.94 1.16 C5.43 0.91, 5.96 0.69, 6.5 0.52 C7.03 0.35, 7.6 0.22, 8.16 0.13 C8.72 0.04, 9.3 0, 9.88 0 C10.45 0, 11.03 0.04, 11.59 0.13 C12.15 0.22, 12.72 0.35, 13.25 0.52 C13.79 0.69, 14.32 0.91, 14.81 1.16 C15.31 1.41, 15.78 1.7, 16.22 2.02 C16.66 2.34, 17.07 2.7, 17.44 3.09 C17.81 3.47, 18.14 3.89, 18.43 4.32 C18.71 4.75, 18.96 5.22, 19.15 5.69 C19.35 6.16, 19.5 6.65, 19.6 7.14 C19.7 7.63, 19.73 8.39, 19.75 8.64 C19.78 8.89, 19.78 8.39, 19.75 8.64" stroke="#000000" stroke-width="2" fill="none"></path></g><g stroke-linecap="round" transform="translate(20.558758294554394 841.7367459699813) rotate(0 9.875171816384789 8.640775339336699)"><path d="M2.19 3.23 C2.19 3.23, 2.19 3.23, 2.19 3.23 M2.19 3.23 C2.19 3.23, 2.19 3.23, 2.19 3.23 M2.98 14.51 C6.36 10.62, 9.75 6.72, 14.79 0.93 M2.98 14.51 C6.26 10.74, 9.54 6.96, 14.79 0.93 M10.33 18.25 C13.35 14.78, 16.37 11.3, 19.51 7.69 M10.33 18.25 C13.2 14.95, 16.07 11.65, 19.51 7.69 M3.77 15.47 C3.77 15.47, 3.77 15.47, 3.77 15.47 M3.77 15.47 C3.77 15.47, 3.77 15.47, 3.77 15.47 M15.81 15.34 C12.26 12.25, 8.71 9.17, 2.23 3.53 M15.81 15.34 C12.77 12.7, 9.73 10.05, 2.23 3.53 M20.31 8.65 C17.76 6.43, 15.22 4.22, 9.74 -0.54 M20.31 8.65 C17.02 5.79, 13.73 2.93, 9.74 -0.54" stroke="#ced4da" stroke-width="1" fill="none"></path><path d="M19.75 8.64 C19.75 9.14, 19.7 9.65, 19.6 10.14 C19.5 10.63, 19.35 11.13, 19.15 11.6 C18.96 12.07, 18.71 12.53, 18.43 12.96 C18.14 13.39, 17.81 13.81, 17.44 14.19 C17.07 14.58, 16.66 14.94, 16.22 15.26 C15.78 15.58, 15.31 15.87, 14.81 16.12 C14.32 16.37, 13.79 16.59, 13.25 16.76 C12.72 16.93, 12.15 17.06, 11.59 17.15 C11.03 17.24, 10.45 17.28, 9.88 17.28 C9.3 17.28, 8.72 17.24, 8.16 17.15 C7.6 17.06, 7.03 16.93, 6.5 16.76 C5.96 16.59, 5.43 16.37, 4.94 16.12 C4.44 15.87, 3.97 15.58, 3.53 15.26 C3.09 14.94, 2.68 14.58, 2.31 14.19 C1.94 13.81, 1.61 13.39, 1.32 12.96 C1.04 12.53, 0.79 12.07, 0.6 11.6 C0.4 11.13, 0.25 10.63, 0.15 10.14 C0.05 9.65, 0 9.14, 0 8.64 C0 8.14, 0.05 7.63, 0.15 7.14 C0.25 6.65, 0.4 6.16, 0.6 5.69 C0.79 5.22, 1.04 4.75, 1.32 4.32 C1.61 3.89, 1.94 3.47, 2.31 3.09 C2.68 2.7, 3.09 2.34, 3.53 2.02 C3.97 1.7, 4.44 1.41, 4.94 1.16 C5.43 0.91, 5.96 0.69, 6.5 0.52 C7.03 0.35, 7.6 0.22, 8.16 0.13 C8.72 0.04, 9.3 0, 9.88 0 C10.45 0, 11.03 0.04, 11.59 0.13 C12.15 0.22, 12.72 0.35, 13.25 0.52 C13.79 0.69, 14.32 0.91, 14.81 1.16 C15.31 1.41, 15.78 1.7, 16.22 2.02 C16.66 2.34, 17.07 2.7, 17.44 3.09 C17.81 3.47, 18.14 3.89, 18.43 4.32 C18.71 4.75, 18.96 5.22, 19.15 5.69 C19.35 6.16, 19.5 6.65, 19.6 7.14 C19.7 7.63, 19.73 8.39, 19.75 8.64 C19.78 8.89, 19.78 8.39, 19.75 8.64" stroke="#000000" stroke-width="2" fill="none"></path></g><g stroke-linecap="round"><g transform="translate(31.010578301818747 900.6677817076309) rotate(0 20.903001066267336 -18.613522148782124)" fill-rule="evenodd"><path d="M11.93 -33.36 C11.93 -33.36, 11.93 -33.36, 11.93 -33.36 M11.93 -33.36 C11.93 -33.36, 11.93 -33.36, 11.93 -33.36 M1.56 -9.24 C9.33 -18.18, 17.1 -27.11, 25.18 -36.41 M1.56 -9.24 C8.94 -17.73, 16.33 -26.23, 25.18 -36.41 M4.32 -0.22 C14.26 -11.66, 24.2 -23.09, 31.22 -31.16 M4.32 -0.22 C11.5 -8.49, 18.69 -16.75, 31.22 -31.16 M14.95 -0.26 C20.61 -6.77, 26.27 -13.28, 36.6 -25.16 M14.95 -0.26 C19.8 -5.83, 24.64 -11.41, 36.6 -25.16 M25.58 -0.29 C29.21 -4.47, 32.85 -8.65, 40.67 -17.65 M25.58 -0.29 C30.27 -5.69, 34.97 -11.09, 40.67 -17.65 M36.21 -0.32 C39.31 -3.89, 42.42 -7.46, 44.08 -9.38 M36.21 -0.32 C39.25 -3.83, 42.3 -7.33, 44.08 -9.38 M0 0 C0 0, 0 0, 0 0 M0 0 C0 0, 0 0, 0 0 M12.04 -0.13 C8.77 -2.98, 5.49 -5.82, 1.47 -9.32 M12.04 -0.13 C7.91 -3.73, 3.77 -7.32, 1.47 -9.32 M24.08 -0.27 C18.09 -5.48, 12.09 -10.69, 2.95 -18.64 M24.08 -0.27 C18.89 -4.78, 13.7 -9.29, 2.95 -18.64 M35.37 -1.06 C26.95 -8.37, 18.53 -15.69, 5.93 -26.64 M35.37 -1.06 C29.25 -6.37, 23.14 -11.69, 5.93 -26.64 M42.88 -5.12 C32.23 -14.38, 21.58 -23.64, 11.18 -32.68 M42.88 -5.12 C31.74 -14.81, 20.6 -24.49, 11.18 -32.68 M41.34 -17.07 C32.37 -24.86, 23.4 -32.66, 18.7 -36.75 M41.34 -17.07 C34.86 -22.7, 28.37 -28.34, 18.7 -36.75" stroke="#ced4da" stroke-width="1" fill="none"></path><path d="M0 0 C0.78 -4.11, 1.34 -18.46, 4.68 -24.67 C8.03 -30.87, 14.94 -36.78, 20.07 -37.23 C25.2 -37.68, 31.83 -33.14, 35.45 -27.36 C39.07 -21.58, 47.71 -7.12, 41.81 -2.56 C35.9 2, 6.97 -0.43, 0 0 M0 0 C0.78 -4.11, 1.34 -18.46, 4.68 -24.67 C8.03 -30.87, 14.94 -36.78, 20.07 -37.23 C25.2 -37.68, 31.83 -33.14, 35.45 -27.36 C39.07 -21.58, 47.71 -7.12, 41.81 -2.56 C35.9 2, 6.97 -0.43, 0 0" stroke="#000000" stroke-width="2" fill="none"></path></g></g><mask></mask><g stroke-linecap="round" transform="translate(41.49670045262868 844.0932703877938) rotate(0 10.702336545928866 9.364544477687787)"><path d="M2.43 3.43 C2.43 3.43, 2.43 3.43, 2.43 3.43 M2.43 3.43 C2.43 3.43, 2.43 3.43, 2.43 3.43 M2.56 15.48 C7.53 9.76, 12.5 4.04, 15.02 1.14 M2.56 15.48 C5.41 12.2, 8.25 8.92, 15.02 1.14 M10.57 18.46 C12.74 15.95, 14.92 13.45, 21.06 6.38 M10.57 18.46 C14.57 13.85, 18.58 9.24, 21.06 6.38 M4.02 16.71 C4.02 16.71, 4.02 16.71, 4.02 16.71 M4.02 16.71 C4.02 16.71, 4.02 16.71, 4.02 16.71 M16.82 17.23 C10.97 12.15, 5.13 7.07, 1.72 4.11 M16.82 17.23 C11.97 13.02, 7.13 8.81, 1.72 4.11 M21.31 10.54 C18.2 7.84, 15.1 5.14, 9.24 0.04 M21.31 10.54 C18.44 8.04, 15.56 5.54, 9.24 0.04" stroke="#ced4da" stroke-width="1" fill="none"></path><path d="M21.4 9.36 C21.4 9.91, 21.35 10.46, 21.24 10.99 C21.13 11.52, 20.97 12.06, 20.76 12.57 C20.55 13.08, 20.28 13.58, 19.97 14.05 C19.66 14.52, 19.3 14.97, 18.9 15.38 C18.5 15.8, 18.06 16.19, 17.58 16.54 C17.11 16.89, 16.59 17.2, 16.05 17.47 C15.52 17.75, 14.94 17.98, 14.36 18.16 C13.78 18.35, 13.17 18.49, 12.56 18.59 C11.95 18.68, 11.32 18.73, 10.7 18.73 C10.08 18.73, 9.45 18.68, 8.84 18.59 C8.23 18.49, 7.62 18.35, 7.04 18.16 C6.46 17.98, 5.89 17.75, 5.35 17.47 C4.81 17.2, 4.3 16.89, 3.82 16.54 C3.35 16.19, 2.9 15.8, 2.5 15.38 C2.11 14.97, 1.74 14.52, 1.43 14.05 C1.12 13.58, 0.86 13.08, 0.65 12.57 C0.43 12.06, 0.27 11.52, 0.16 10.99 C0.06 10.46, 0 9.91, 0 9.36 C0 8.82, 0.06 8.27, 0.16 7.74 C0.27 7.2, 0.43 6.67, 0.65 6.16 C0.86 5.65, 1.12 5.15, 1.43 4.68 C1.74 4.21, 2.11 3.76, 2.5 3.35 C2.9 2.93, 3.35 2.54, 3.82 2.19 C4.3 1.84, 4.81 1.53, 5.35 1.25 C5.89 0.98, 6.46 0.75, 7.04 0.56 C7.62 0.38, 8.23 0.24, 8.84 0.14 C9.45 0.05, 10.08 0, 10.7 0 C11.32 0, 11.95 0.05, 12.56 0.14 C13.17 0.24, 13.78 0.38, 14.36 0.56 C14.94 0.75, 15.52 0.98, 16.05 1.25 C16.59 1.53, 17.11 1.84, 17.58 2.19 C18.06 2.54, 18.5 2.93, 18.9 3.35 C19.3 3.76, 19.66 4.21, 19.97 4.68 C20.28 5.15, 20.55 5.65, 20.76 6.16 C20.97 6.67, 21.13 7.2, 21.24 7.74 C21.35 8.27, 21.38 9.09, 21.4 9.36 C21.43 9.64, 21.43 9.09, 21.4 9.36" stroke="#000000" stroke-width="2" fill="none"></path></g><g stroke-linecap="round"><g transform="translate(60.16191375626962 866.9987170225779) rotate(0 16.71865860152218 9.951582500906)" fill-rule="evenodd"><path d="M0 0 C0 0, 0 0, 0 0 M0 0 C0 0, 0 0, 0 0 M6.04 5.25 C10.61 -0.01, 15.18 -5.27, 17.85 -8.34 M6.04 5.25 C9.83 0.89, 13.62 -3.47, 17.85 -8.34 M10.11 12.76 C13.99 8.29, 17.87 3.83, 25.2 -4.6 M10.11 12.76 C13.7 8.63, 17.29 4.5, 25.2 -4.6 M14.18 20.27 C17.46 16.49, 20.75 12.71, 29.27 2.92 M14.18 20.27 C17.24 16.74, 20.31 13.21, 29.27 2.92 M17.59 28.54 C22.96 22.36, 28.34 16.18, 32.02 11.94 M17.59 28.54 C20.52 25.18, 23.44 21.81, 32.02 11.94 M29.53 27 C30.56 25.81, 31.59 24.63, 34.12 21.71 M29.53 27 C30.46 25.93, 31.39 24.86, 34.12 21.71 M14.43 27.6 C14.43 27.6, 14.43 27.6, 14.43 27.6 M14.43 27.6 C14.43 27.6, 14.43 27.6, 14.43 27.6 M26.47 27.47 C21.05 22.76, 15.62 18.04, 9.87 13.04 M26.47 27.47 C20.33 22.13, 14.18 16.79, 9.87 13.04 M33.23 22.75 C21.97 12.96, 10.71 3.17, 3.04 -3.5 M33.23 22.75 C23.27 14.09, 13.32 5.44, 3.04 -3.5 M31.68 10.8 C24.24 4.33, 16.79 -2.14, 9.8 -8.22 M31.68 10.8 C24.24 4.33, 16.79 -2.14, 9.8 -8.22" stroke="#ced4da" stroke-width="1" fill="none"></path><path d="M0 0 C0.86 -0.93, 3.58 -4.18, 5.17 -5.57 C6.77 -6.97, 7.56 -7.83, 9.55 -8.36 C11.54 -8.89, 14.99 -8.89, 17.12 -8.76 C19.24 -8.62, 20.83 -8.43, 22.29 -7.56 C23.75 -6.7, 24.88 -5.11, 25.87 -3.58 C26.87 -2.06, 27.47 -0.33, 28.26 1.59 C29.06 3.52, 29.92 5.84, 30.65 7.96 C31.38 10.08, 32.18 12.41, 32.64 14.33 C33.11 16.25, 33.44 17.78, 33.44 19.51 C33.44 21.23, 33.3 23.42, 32.64 24.68 C31.98 25.94, 30.72 26.47, 29.46 27.07 C28.2 27.67, 26.87 28, 25.08 28.26 C23.29 28.53, 20.43 28.73, 18.71 28.66 C16.98 28.59, 15.46 28.93, 14.73 27.86 C14 26.8, 14.66 23.82, 14.33 22.29 C14 20.77, 13.47 20.23, 12.74 18.71 C12.01 17.18, 11.08 15.33, 9.95 13.14 C8.82 10.95, 7.63 7.76, 5.97 5.57 C4.31 3.38, 1 0.93, 0 0 M0 0 C0.86 -0.93, 3.58 -4.18, 5.17 -5.57 C6.77 -6.97, 7.56 -7.83, 9.55 -8.36 C11.54 -8.89, 14.99 -8.89, 17.12 -8.76 C19.24 -8.62, 20.83 -8.43, 22.29 -7.56 C23.75 -6.7, 24.88 -5.11, 25.87 -3.58 C26.87 -2.06, 27.47 -0.33, 28.26 1.59 C29.06 3.52, 29.92 5.84, 30.65 7.96 C31.38 10.08, 32.18 12.41, 32.64 14.33 C33.11 16.25, 33.44 17.78, 33.44 19.51 C33.44 21.23, 33.3 23.42, 32.64 24.68 C31.98 25.94, 30.72 26.47, 29.46 27.07 C28.2 27.67, 26.87 28, 25.08 28.26 C23.29 28.53, 20.43 28.73, 18.71 28.66 C16.98 28.59, 15.46 28.93, 14.73 27.86 C14 26.8, 14.66 23.82, 14.33 22.29 C14 20.77, 13.47 20.23, 12.74 18.71 C12.01 17.18, 11.08 15.33, 9.95 13.14 C8.82 10.95, 7.63 7.76, 5.97 5.57 C4.31 3.38, 1 0.93, 0 0" stroke="#000000" stroke-width="2" fill="none"></path></g></g><mask></mask><g stroke-linecap="round"><g transform="translate(42.24312730293567 866.9868411191735) rotate(0 -16.121563651467834 11.941899001087307)" fill-rule="evenodd"><path d="M-24.42 -2.68 C-24.42 -2.68, -24.42 -2.68, -24.42 -2.68 M-24.42 -2.68 C-24.42 -2.68, -24.42 -2.68, -24.42 -2.68 M-31.51 17.66 C-26.9 12.36, -22.29 7.05, -10.51 -6.49 M-31.51 17.66 C-26.06 11.39, -20.6 5.12, -10.51 -6.49 M-29.41 27.44 C-22.91 19.96, -16.41 12.49, -2.51 -3.51 M-29.41 27.44 C-18.95 15.4, -8.49 3.37, -2.51 -3.51 M-22.06 31.18 C-17 25.36, -11.95 19.55, -8.28 15.33 M-22.06 31.18 C-17.6 26.05, -13.15 20.93, -8.28 15.33 M-12.08 31.9 C-11.66 31.41, -11.23 30.92, -10.77 30.39 M-12.08 31.9 C-11.75 31.51, -11.41 31.12, -10.77 30.39 M-31.63 25.72 C-31.63 25.72, -31.63 25.72, -31.63 25.72 M-31.63 25.72 C-31.63 25.72, -31.63 25.72, -31.63 25.72 M-12.8 31.49 C-19.28 25.85, -25.76 20.22, -30.91 15.74 M-12.8 31.49 C-17.98 26.98, -23.16 22.48, -30.91 15.74 M-9.06 24.14 C-14.92 19.04, -20.78 13.94, -28.68 7.08 M-9.06 24.14 C-15.15 18.84, -21.25 13.54, -28.68 7.08 M-8.34 14.16 C-12.36 10.67, -16.37 7.18, -25.7 -0.93 M-8.34 14.16 C-12.87 10.22, -17.4 6.28, -25.7 -0.93 M-4.6 6.81 C-10.71 1.5, -16.83 -3.82, -20.45 -6.96 M-4.6 6.81 C-9.01 2.98, -13.42 -0.86, -20.45 -6.96 M-0.1 0.12 C-3.08 -2.47, -6.07 -5.06, -9.16 -7.75 M-0.1 0.12 C-3.23 -2.6, -6.37 -5.32, -9.16 -7.75" stroke="#ced4da" stroke-width="1" fill="none"></path><path d="M0 0 C-0.66 -0.73, -2.59 -3.18, -3.98 -4.38 C-5.37 -5.57, -6.37 -6.63, -8.36 -7.17 C-10.35 -7.7, -13.8 -7.7, -15.92 -7.56 C-18.05 -7.43, -19.64 -7.23, -21.1 -6.37 C-22.56 -5.51, -23.68 -3.91, -24.68 -2.39 C-25.68 -0.86, -26.27 0.86, -27.07 2.79 C-27.86 4.71, -28.73 7.03, -29.46 9.16 C-30.19 11.28, -30.98 13.6, -31.45 15.52 C-31.91 17.45, -32.24 18.97, -32.24 20.7 C-32.24 22.42, -32.11 24.61, -31.45 25.87 C-30.78 27.13, -29.46 27.53, -28.26 28.26 C-27.07 28.99, -26.01 29.72, -24.28 30.25 C-22.56 30.78, -20.1 31.25, -17.91 31.45 C-15.72 31.65, -12.41 32.64, -11.15 31.45 C-9.89 30.25, -10.62 26.07, -10.35 24.28 C-10.08 22.49, -9.89 22.29, -9.55 20.7 C-9.22 19.11, -9.16 17.05, -8.36 14.73 C-7.56 12.41, -6.17 9.22, -4.78 6.77 C-3.38 4.31, -0.8 1.13, 0 0 M0 0 C-0.66 -0.73, -2.59 -3.18, -3.98 -4.38 C-5.37 -5.57, -6.37 -6.63, -8.36 -7.17 C-10.35 -7.7, -13.8 -7.7, -15.92 -7.56 C-18.05 -7.43, -19.64 -7.23, -21.1 -6.37 C-22.56 -5.51, -23.68 -3.91, -24.68 -2.39 C-25.68 -0.86, -26.27 0.86, -27.07 2.79 C-27.86 4.71, -28.73 7.03, -29.46 9.16 C-30.19 11.28, -30.98 13.6, -31.45 15.52 C-31.91 17.45, -32.24 18.97, -32.24 20.7 C-32.24 22.42, -32.11 24.61, -31.45 25.87 C-30.78 27.13, -29.46 27.53, -28.26 28.26 C-27.07 28.99, -26.01 29.72, -24.28 30.25 C-22.56 30.78, -20.1 31.25, -17.91 31.45 C-15.72 31.65, -12.41 32.64, -11.15 31.45 C-9.89 30.25, -10.62 26.07, -10.35 24.28 C-10.08 22.49, -9.89 22.29, -9.55 20.7 C-9.22 19.11, -9.16 17.05, -8.36 14.73 C-7.56 12.41, -6.17 9.22, -4.78 6.77 C-3.38 4.31, -0.8 1.13, 0 0" stroke="#000000" stroke-width="2" fill="none"></path></g></g><mask></mask><g stroke-linecap="round"><g transform="translate(99.8394561778992 588.6145935058594) rotate(0 76.01632690429688 73.81280517578125)"><path d="M0 0 C25.34 24.6, 126.69 123.02, 152.03 147.63 M0 0 C25.34 24.6, 126.69 123.02, 152.03 147.63" stroke="#1e1e1e" stroke-width="1" fill="none"></path></g><g transform="translate(99.8394561778992 588.6145935058594) rotate(0 76.01632690429688 73.81280517578125)"><path d="M129.22 137.39 C134.54 139.78, 139.86 142.17, 152.03 147.63 M129.22 137.39 C137.34 141.04, 145.47 144.68, 152.03 147.63" stroke="#1e1e1e" stroke-width="1" fill="none"></path></g><g transform="translate(99.8394561778992 588.6145935058594) rotate(0 76.01632690429688 73.81280517578125)"><path d="M141.14 125.13 C143.68 130.37, 146.22 135.62, 152.03 147.63 M141.14 125.13 C145.02 133.14, 148.9 141.15, 152.03 147.63" stroke="#1e1e1e" stroke-width="1" fill="none"></path></g></g><mask></mask><g transform="translate(1037.254434205243 643.7894744873047) rotate(0 32.8125 9.600000000000023)"><text x="32.8125" y="0" font-family="Cascadia, Segoe UI Emoji" font-size="16px" fill="#1e1e1e" text-anchor="middle" style="white-space: pre;" direction="ltr" dominant-baseline="text-before-edge">MongoDB</text></g><g transform="translate(1149.324990845868 410.7559356689453) rotate(0 98.4375 67.19999999999999)"><text x="0" y="0" font-family="Cascadia, Segoe UI Emoji" font-size="16px" fill="#1e1e1e" text-anchor="start" style="white-space: pre;" direction="ltr" dominant-baseline="text-before-edge">{</text><text x="0" y="19.2" font-family="Cascadia, Segoe UI Emoji" font-size="16px" fill="#1e1e1e" text-anchor="start" style="white-space: pre;" direction="ltr" dominant-baseline="text-before-edge"> userID: abc</text><text x="0" y="38.4" font-family="Cascadia, Segoe UI Emoji" font-size="16px" fill="#1e1e1e" text-anchor="start" style="white-space: pre;" direction="ltr" dominant-baseline="text-before-edge"> streamID: bcd</text><text x="0" y="57.599999999999994" font-family="Cascadia, Segoe UI Emoji" font-size="16px" fill="#1e1e1e" text-anchor="start" style="white-space: pre;" direction="ltr" dominant-baseline="text-before-edge"> device_type: feg</text><text x="0" y="76.8" font-family="Cascadia, Segoe UI Emoji" font-size="16px" fill="#1e1e1e" text-anchor="start" style="white-space: pre;" direction="ltr" dominant-baseline="text-before-edge"> geo: TX </text><text x="0" y="96" font-family="Cascadia, Segoe UI Emoji" font-size="16px" fill="#1e1e1e" text-anchor="start" style="white-space: pre;" direction="ltr" dominant-baseline="text-before-edge"> timestamp: 123456789</text><text x="0" y="115.19999999999999" font-family="Cascadia, Segoe UI Emoji" font-size="16px" fill="#1e1e1e" text-anchor="start" style="white-space: pre;" direction="ltr" dominant-baseline="text-before-edge">}</text></g><g stroke-linecap="round"><g transform="translate(1083.269815064618 976.8914489746094) rotate(0 56.952392578125 -54.9173583984375)"><path d="M0 0 C17.38 -1.6, 85.3 8.7, 104.28 -9.61 C123.27 -27.92, 112.3 -93.13, 113.9 -109.83 M0 0 C17.38 -1.6, 85.3 8.7, 104.28 -9.61 C123.27 -27.92, 112.3 -93.13, 113.9 -109.83" stroke="#1e1e1e" stroke-width="1" fill="none"></path></g><g transform="translate(1083.269815064618 976.8914489746094) rotate(0 56.952392578125 -54.9173583984375)"><path d="M123.19 -86.62 C121.22 -91.54, 119.25 -96.46, 113.9 -109.83 M123.19 -86.62 C120.01 -94.58, 116.82 -102.54, 113.9 -109.83" stroke="#1e1e1e" stroke-width="1" fill="none"></path></g><g transform="translate(1083.269815064618 976.8914489746094) rotate(0 56.952392578125 -54.9173583984375)"><path d="M106.1 -86.09 C107.75 -91.12, 109.4 -96.15, 113.9 -109.83 M106.1 -86.09 C108.77 -94.23, 111.45 -102.37, 113.9 -109.83" stroke="#1e1e1e" stroke-width="1" fill="none"></path></g></g><mask></mask><g transform="translate(828.7816558849304 579.1815032958984) rotate(0 70.3125 38.39999999999998)"><text x="0" y="0" font-family="Cascadia, Segoe UI Emoji" font-size="16px" fill="#1e1e1e" text-anchor="start" style="white-space: pre;" direction="ltr" dominant-baseline="text-before-edge">select data </text><text x="0" y="19.2" font-family="Cascadia, Segoe UI Emoji" font-size="16px" fill="#1e1e1e" text-anchor="start" style="white-space: pre;" direction="ltr" dominant-baseline="text-before-edge">for last 5 min</text><text x="0" y="38.4" font-family="Cascadia, Segoe UI Emoji" font-size="16px" fill="#1e1e1e" text-anchor="start" style="white-space: pre;" direction="ltr" dominant-baseline="text-before-edge">to show current</text><text x="0" y="57.599999999999994" font-family="Cascadia, Segoe UI Emoji" font-size="16px" fill="#1e1e1e" text-anchor="start" style="white-space: pre;" direction="ltr" dominant-baseline="text-before-edge">online user</text></g><g transform="translate(750.4180084239929 1015.6269348144533) rotate(0 98.4375 67.19999999999999)"><text x="0" y="0" font-family="Cascadia, Segoe UI Emoji" font-size="16px" fill="#1e1e1e" text-anchor="start" style="white-space: pre;" direction="ltr" dominant-baseline="text-before-edge">{</text><text x="0" y="19.2" font-family="Cascadia, Segoe UI Emoji" font-size="16px" fill="#1e1e1e" text-anchor="start" style="white-space: pre;" direction="ltr" dominant-baseline="text-before-edge"> userID: abc</text><text x="0" y="38.4" font-family="Cascadia, Segoe UI Emoji" font-size="16px" fill="#1e1e1e" text-anchor="start" style="white-space: pre;" direction="ltr" dominant-baseline="text-before-edge"> streamID: bcd</text><text x="0" y="57.599999999999994" font-family="Cascadia, Segoe UI Emoji" font-size="16px" fill="#1e1e1e" text-anchor="start" style="white-space: pre;" direction="ltr" dominant-baseline="text-before-edge"> device_type: feg</text><text x="0" y="76.8" font-family="Cascadia, Segoe UI Emoji" font-size="16px" fill="#1e1e1e" text-anchor="start" style="white-space: pre;" direction="ltr" dominant-baseline="text-before-edge"> geo: TX </text><text x="0" y="96" font-family="Cascadia, Segoe UI Emoji" font-size="16px" fill="#1e1e1e" text-anchor="start" style="white-space: pre;" direction="ltr" dominant-baseline="text-before-edge"> timestamp: 123456789</text><text x="0" y="115.19999999999999" font-family="Cascadia, Segoe UI Emoji" font-size="16px" fill="#1e1e1e" text-anchor="start" style="white-space: pre;" direction="ltr" dominant-baseline="text-before-edge">}</text></g><g stroke-linecap="round"><g transform="translate(676.6214276689951 269.93389559284424) rotate(0 25.682475716429394 27.89245687248342)" fill-rule="evenodd"><path d="M-1.76 1.27 C-1.5 9.53, 2.48 39.81, 2.55 48.75 C2.62 57.68, -1.47 53.55, -1.33 54.88 C-1.2 56.21, 1.14 56.16, 3.34 56.74 C5.54 57.33, 7.63 57.74, 11.88 58.4 C16.12 59.05, 23.46 60.61, 28.82 60.68 C34.18 60.75, 40.32 59.42, 44.04 58.79 C47.77 58.17, 49.88 57.17, 51.16 56.92 C52.44 56.67, 51.83 58.58, 51.72 57.31 C51.62 56.04, 50.29 58.1, 50.52 49.29 C50.75 40.49, 52.9 12.97, 53.13 4.5 C53.37 -3.98, 53.01 -0.64, 51.93 -1.56 C50.85 -2.47, 48.51 -0.65, 46.67 -0.99 C44.84 -1.33, 44.71 -3.07, 40.93 -3.58 C37.15 -4.09, 28.59 -4, 23.99 -4.04 C19.39 -4.08, 16.69 -3.98, 13.33 -3.82 C9.97 -3.66, 5.81 -3.66, 3.82 -3.09 C1.83 -2.51, 1.92 -1.28, 1.37 -0.37 C0.83 0.54, 0.89 2.52, 0.55 2.35" stroke="none" stroke-width="0" fill="#228be6" fill-rule="evenodd"></path><path d="M1.11 0.52 C1.13 8.54, 1.53 40.18, 1.24 49.31 C0.95 58.45, -0.92 53.77, -0.62 55.33 C-0.32 56.89, 0.85 57.87, 3.05 58.68 C5.25 59.49, 8.46 59.65, 12.56 60.19 C16.67 60.73, 22.64 61.96, 27.7 61.94 C32.77 61.93, 39.3 60.78, 42.94 60.11 C46.57 59.45, 48.13 58.8, 49.52 57.95 C50.9 57.1, 51.01 56.05, 51.24 55.03 C51.48 54, 50.79 60.4, 50.94 51.79 C51.09 43.18, 52.13 11.91, 52.15 3.37 C52.17 -5.16, 51.6 1.56, 51.05 0.61 C50.49 -0.34, 50.35 -1.66, 48.83 -2.32 C47.3 -2.98, 45.85 -2.72, 41.88 -3.36 C37.92 -4.01, 29.9 -6, 25.02 -6.18 C20.14 -6.37, 16.42 -5, 12.61 -4.46 C8.8 -3.91, 4.47 -3.8, 2.17 -2.93 C-0.13 -2.07, -0.78 0.41, -1.22 0.73 C-1.65 1.05, -0.56 -1.04, -0.45 -1.04 M0.23 -0.26 C0.09 8.4, 1.18 40.97, 0.86 50.41 C0.53 59.84, -2.16 54.77, -1.72 56.36 C-1.28 57.95, 1.31 59.28, 3.51 59.96 C5.7 60.64, 7.79 60.22, 11.47 60.46 C15.16 60.69, 20.21 61.64, 25.62 61.36 C31.04 61.08, 39.58 59.39, 43.95 58.8 C48.32 58.21, 50.9 58.11, 51.83 57.82 C52.77 57.53, 49.64 58.08, 49.58 57.08 C49.51 56.08, 50.91 60.69, 51.47 51.83 C52.03 42.97, 53.24 12.46, 52.94 3.92 C52.64 -4.61, 50.82 1.76, 49.66 0.61 C48.5 -0.54, 47.3 -2.34, 45.99 -2.97 C44.68 -3.6, 45.21 -3.07, 41.78 -3.17 C38.35 -3.27, 30.07 -3.56, 25.41 -3.55 C20.76 -3.55, 17.95 -3.3, 13.86 -3.14 C9.78 -2.98, 3.12 -3.37, 0.9 -2.6 C-1.32 -1.82, 0.42 1.29, 0.54 1.5 C0.65 1.71, 1.73 -0.97, 1.58 -1.32" stroke="#0a11d3" stroke-width="1" fill="none"></path></g></g><mask></mask><g stroke-linecap="round"><g transform="translate(677.0220838136843 307.9908533611829) rotate(0 25.736946851799132 2.5930743891766497)"><path d="M1.07 -0.85 C1.01 -0.64, -0.36 0.84, 0.72 1.74 C1.81 2.63, 5.11 3.96, 7.6 4.53 C10.1 5.09, 12.39 4.81, 15.71 5.11 C19.02 5.41, 23.1 6.37, 27.5 6.32 C31.9 6.26, 38.51 5.43, 42.11 4.79 C45.71 4.14, 47.55 3.34, 49.11 2.43 C50.67 1.52, 51.16 -0.4, 51.48 -0.7 M0.18 1.32 C0.41 1.64, 1.96 2.81, 3.1 2.99 C4.25 3.16, 4.84 1.85, 7.05 2.36 C9.25 2.88, 13.14 5.29, 16.33 6.09 C19.52 6.89, 22.21 7.55, 26.19 7.16 C30.18 6.78, 36.36 4.76, 40.23 3.78 C44.1 2.81, 47.73 2.13, 49.43 1.29 C51.14 0.45, 49.9 -1.01, 50.46 -1.26" stroke="#0a11d3" stroke-width="1" fill="none"></path></g></g><mask></mask><g stroke-linecap="round"><g transform="translate(676.3845529068009 288.71226192085464) rotate(0 25.736946851799132 2.5930743891766497)"><path d="M-0.63 -0.54 C-0.52 0.04, 0.33 1.87, 1.76 2.62 C3.18 3.37, 5.67 3.35, 7.93 3.95 C10.18 4.55, 11.98 5.95, 15.31 6.21 C18.63 6.47, 23.63 5.71, 27.88 5.52 C32.13 5.34, 37.16 5.76, 40.8 5.11 C44.44 4.46, 48.02 2.34, 49.72 1.6 C51.43 0.86, 50.58 1.12, 51.02 0.67 M1.24 1.79 C1.13 2.06, -0.03 0.11, 1.02 0.67 C2.07 1.23, 5.09 4.57, 7.54 5.15 C9.99 5.72, 12.51 3.98, 15.72 4.11 C18.93 4.25, 22.42 5.92, 26.78 5.95 C31.14 5.98, 37.96 4.66, 41.89 4.28 C45.83 3.9, 49.06 4.26, 50.37 3.69 C51.68 3.11, 49.63 1.3, 49.76 0.81" stroke="#0a11d3" stroke-width="1" fill="none"></path></g></g><mask></mask><g stroke-linecap="round" transform="translate(675.7312366564033 265.25638101859863) rotate(0 25.545368370569008 5.1663585672501995)"><path d="M28.33 0.06 C33.6 0.1, 40.04 0.54, 43.86 1.36 C47.69 2.18, 50.83 3.8, 51.27 4.99 C51.71 6.18, 49.75 7.59, 46.5 8.5 C43.25 9.41, 37.09 10.21, 31.76 10.45 C26.42 10.7, 19.31 10.49, 14.48 9.94 C9.66 9.4, 5.09 8.14, 2.78 7.17 C0.48 6.2, -0.69 5.12, 0.64 4.12 C1.98 3.13, 6.1 1.85, 10.8 1.19 C15.51 0.52, 25.64 0.3, 28.85 0.14 C32.06 -0.03, 30.11 0.15, 30.06 0.2 M21.56 -0.37 C26.6 -0.67, 33.94 -0.54, 38.67 0.08 C43.4 0.71, 48.09 2.33, 49.93 3.38 C51.77 4.43, 51.68 5.32, 49.69 6.4 C47.7 7.49, 42.8 9.25, 37.99 9.9 C33.18 10.55, 26.22 10.51, 20.83 10.31 C15.43 10.11, 9.21 9.6, 5.61 8.69 C2.02 7.78, -0.79 5.91, -0.73 4.86 C-0.68 3.8, 2.22 3.12, 5.95 2.36 C9.69 1.59, 19.14 0.62, 21.68 0.26 C24.23 -0.1, 21.11 0.22, 21.21 0.19" stroke="none" stroke-width="0" fill="#fff"></path><path d="M29.73 0.35 C34.94 0.38, 41.15 0.72, 44.74 1.5 C48.33 2.28, 51.15 3.93, 51.25 5.04 C51.35 6.16, 48.7 7.28, 45.33 8.2 C41.95 9.13, 36.37 10.34, 30.98 10.6 C25.58 10.85, 17.78 10.24, 12.97 9.72 C8.15 9.21, 4.01 8.48, 2.1 7.52 C0.18 6.57, -0.26 5.11, 1.48 4 C3.22 2.88, 7.74 1.43, 12.54 0.81 C17.34 0.19, 27.06 0.37, 30.28 0.28 C33.5 0.19, 31.92 0.28, 31.85 0.25 M29.22 0.55 C34.51 0.72, 41.6 0.71, 45.15 1.53 C48.7 2.35, 50.39 4.4, 50.55 5.47 C50.71 6.55, 49.53 7.25, 46.1 7.99 C42.67 8.73, 35.43 9.74, 29.97 9.94 C24.51 10.14, 18.05 9.78, 13.34 9.19 C8.63 8.6, 3.61 7.36, 1.69 6.39 C-0.22 5.42, -0.04 4.36, 1.84 3.36 C3.72 2.35, 8.3 0.93, 12.97 0.35 C17.65 -0.23, 27.12 -0.19, 29.9 -0.13 C32.67 -0.07, 29.81 0.7, 29.65 0.73" stroke="#0a11d3" stroke-width="1" fill="none"></path></g><g stroke-linecap="round" transform="translate(717.4135390851121 279.5813688908395) rotate(0 3.7439186081550133 4.063297787381316)"><path d="M3.55 -0.11 C4.3 -0.2, 5.46 0.36, 6.12 0.93 C6.77 1.5, 7.34 2.45, 7.48 3.3 C7.62 4.15, 7.36 5.28, 6.98 6.04 C6.6 6.8, 5.88 7.54, 5.22 7.85 C4.56 8.16, 3.83 8.09, 3.03 7.88 C2.24 7.66, 0.98 7.23, 0.45 6.56 C-0.08 5.88, -0.22 4.72, -0.16 3.82 C-0.09 2.93, 0.26 1.83, 0.83 1.19 C1.39 0.55, 2.8 0.2, 3.21 0 C3.63 -0.21, 3.3 -0.12, 3.33 -0.04 M3.46 -0.44 C4.25 -0.5, 5.44 0.21, 6.14 0.74 C6.83 1.28, 7.45 1.86, 7.63 2.74 C7.81 3.63, 7.58 5.21, 7.2 6.06 C6.83 6.92, 6.15 7.52, 5.39 7.87 C4.63 8.21, 3.52 8.43, 2.64 8.14 C1.76 7.85, 0.58 6.83, 0.1 6.13 C-0.38 5.43, -0.43 4.76, -0.25 3.94 C-0.07 3.12, 0.62 1.86, 1.19 1.21 C1.77 0.55, 2.77 0.27, 3.19 0.02 C3.61 -0.22, 3.65 -0.3, 3.71 -0.27" stroke="none" stroke-width="0" fill="#fff"></path><path d="M3.93 -0.16 C4.67 -0.21, 5.82 0.48, 6.39 1.07 C6.95 1.67, 7.21 2.51, 7.34 3.41 C7.46 4.31, 7.61 5.74, 7.16 6.49 C6.71 7.25, 5.41 7.68, 4.64 7.95 C3.87 8.23, 3.22 8.41, 2.53 8.13 C1.85 7.85, 0.89 7.07, 0.52 6.26 C0.14 5.44, 0.17 4.1, 0.29 3.22 C0.41 2.33, 0.6 1.49, 1.22 0.95 C1.84 0.42, 3.58 0.2, 4.02 0 C4.46 -0.2, 3.81 -0.28, 3.84 -0.23 M3.41 -0.13 C4.13 -0.31, 4.63 0.43, 5.36 0.87 C6.08 1.31, 7.52 1.75, 7.79 2.5 C8.05 3.25, 7.3 4.56, 6.95 5.37 C6.59 6.17, 6.32 6.94, 5.66 7.32 C5 7.69, 3.75 7.76, 2.99 7.63 C2.23 7.49, 1.53 7.15, 1.1 6.5 C0.66 5.84, 0.36 4.56, 0.37 3.68 C0.38 2.81, 0.67 1.77, 1.16 1.23 C1.65 0.68, 2.99 0.66, 3.31 0.42 C3.62 0.18, 2.98 -0.21, 3.04 -0.2" stroke="#0a11d3" stroke-width="1" fill="none"></path></g><g stroke-linecap="round" transform="translate(717.4135390851121 297.41923089614306) rotate(0 3.7439186081550133 4.063297787381316)"><path d="M3.96 0.16 C4.73 0.17, 5.73 0.63, 6.29 1.21 C6.85 1.78, 7.21 2.77, 7.31 3.6 C7.42 4.44, 7.25 5.51, 6.91 6.22 C6.58 6.92, 6.08 7.5, 5.3 7.81 C4.52 8.12, 3.06 8.35, 2.23 8.09 C1.39 7.83, 0.71 7.02, 0.3 6.23 C-0.11 5.45, -0.38 4.25, -0.25 3.36 C-0.13 2.47, 0.4 1.49, 1.04 0.91 C1.68 0.33, 3.14 0, 3.59 -0.12 C4.04 -0.25, 3.71 0.08, 3.74 0.16 M3.51 -0.07 C4.32 -0.2, 5.44 -0.25, 6.1 0.28 C6.76 0.81, 7.28 2.19, 7.49 3.11 C7.7 4.03, 7.71 5, 7.36 5.8 C7.01 6.61, 6.21 7.58, 5.37 7.93 C4.53 8.27, 3.14 8.06, 2.31 7.87 C1.49 7.69, 0.8 7.49, 0.42 6.82 C0.03 6.16, -0.05 4.81, 0 3.88 C0.04 2.94, 0.1 1.93, 0.69 1.23 C1.28 0.53, 3.08 -0.11, 3.52 -0.34 C3.97 -0.56, 3.44 -0.31, 3.36 -0.11" stroke="none" stroke-width="0" fill="#fff"></path><path d="M4.22 0.02 C4.96 0.06, 5.71 0.43, 6.3 1.09 C6.88 1.76, 7.69 3.11, 7.73 4 C7.78 4.89, 7.03 5.72, 6.56 6.44 C6.08 7.16, 5.62 8.05, 4.9 8.31 C4.18 8.58, 2.95 8.47, 2.22 8.05 C1.49 7.62, 0.93 6.6, 0.54 5.78 C0.15 4.95, -0.3 3.93, -0.11 3.09 C0.08 2.24, 0.98 1.27, 1.66 0.7 C2.35 0.14, 3.52 -0.18, 3.99 -0.3 C4.47 -0.41, 4.53 -0.09, 4.51 0 M3.79 0.28 C4.6 0.3, 6.36 0.41, 6.93 0.96 C7.5 1.51, 7.21 2.73, 7.21 3.59 C7.2 4.45, 7.33 5.47, 6.91 6.13 C6.48 6.8, 5.4 7.35, 4.65 7.59 C3.89 7.84, 3.05 7.99, 2.39 7.63 C1.73 7.27, 1.03 6.26, 0.69 5.45 C0.35 4.65, 0.18 3.53, 0.36 2.8 C0.54 2.07, 1.16 1.58, 1.76 1.07 C2.36 0.55, 3.51 -0.15, 3.97 -0.3 C4.43 -0.45, 4.46 0.09, 4.52 0.16" stroke="#0a11d3" stroke-width="1" fill="none"></path></g><g stroke-linecap="round" transform="translate(717.4135390851121 316.8066167662098) rotate(0 3.7439186081550133 4.063297787381316)"><path d="M3.62 0.23 C4.33 0.13, 5.22 0.49, 5.84 0.99 C6.46 1.48, 7.08 2.39, 7.34 3.19 C7.6 3.99, 7.8 4.98, 7.42 5.78 C7.03 6.59, 5.87 7.62, 5.05 8.01 C4.23 8.41, 3.29 8.42, 2.5 8.14 C1.71 7.87, 0.77 7.12, 0.3 6.36 C-0.17 5.6, -0.41 4.49, -0.31 3.6 C-0.21 2.7, 0.27 1.58, 0.89 0.99 C1.5 0.4, 2.94 0.24, 3.39 0.07 C3.84 -0.09, 3.58 -0.03, 3.59 0.02 M3.42 -0.39 C4.17 -0.52, 5.15 0.19, 5.83 0.73 C6.51 1.26, 7.27 1.99, 7.5 2.82 C7.74 3.66, 7.65 4.97, 7.24 5.75 C6.83 6.53, 5.79 7.06, 5.04 7.51 C4.29 7.96, 3.43 8.58, 2.72 8.45 C2.01 8.32, 1.32 7.47, 0.8 6.73 C0.28 5.98, -0.43 4.93, -0.38 3.98 C-0.34 3.03, 0.49 1.71, 1.08 1.02 C1.66 0.33, 2.86 -0.09, 3.15 -0.16 C3.44 -0.23, 2.73 0.41, 2.82 0.59" stroke="none" stroke-width="0" fill="#fff"></path><path d="M3.31 -0.11 C4.09 -0.19, 5.52 0.46, 6.16 0.99 C6.8 1.51, 6.93 2.18, 7.13 3.04 C7.33 3.89, 7.64 5.27, 7.36 6.11 C7.07 6.95, 6.14 7.75, 5.41 8.07 C4.68 8.39, 3.8 8.28, 2.97 8.02 C2.13 7.76, 0.91 7.22, 0.42 6.5 C-0.06 5.78, -0.03 4.63, 0.05 3.69 C0.13 2.75, 0.27 1.49, 0.89 0.85 C1.5 0.22, 3.32 0.04, 3.73 -0.12 C4.13 -0.27, 3.32 -0.18, 3.32 -0.07 M4.02 -0.28 C4.79 -0.46, 5.13 0.09, 5.71 0.61 C6.3 1.12, 7.3 2, 7.53 2.81 C7.76 3.62, 7.43 4.66, 7.09 5.48 C6.76 6.3, 6.19 7.35, 5.51 7.72 C4.83 8.09, 3.81 7.96, 3.03 7.7 C2.25 7.44, 1.31 6.78, 0.82 6.16 C0.34 5.54, 0.1 4.86, 0.13 3.96 C0.16 3.06, 0.37 1.43, 1 0.78 C1.63 0.13, 3.46 0.23, 3.92 0.07 C4.37 -0.1, 3.83 -0.3, 3.73 -0.19" stroke="#0a11d3" stroke-width="1" fill="none"></path></g><g stroke-linecap="round"><g transform="translate(965.6581207286804 296.8018953745743) rotate(0 -112.86223844600897 1.2339127734728663)"><path d="M0 0 C-37.62 0.41, -188.1 2.06, -225.72 2.47 M0 0 C-37.62 0.41, -188.1 2.06, -225.72 2.47" stroke="#1e1e1e" stroke-width="1" fill="none"></path></g><g transform="translate(965.6581207286804 296.8018953745743) rotate(0 -112.86223844600897 1.2339127734728663)"><path d="M-202.33 -6.34 C-208.46 -4.03, -214.59 -1.72, -225.72 2.47 M-202.33 -6.34 C-207.06 -4.56, -211.8 -2.77, -225.72 2.47" stroke="#1e1e1e" stroke-width="1" fill="none"></path></g><g transform="translate(965.6581207286804 296.8018953745743) rotate(0 -112.86223844600897 1.2339127734728663)"><path d="M-202.14 10.76 C-208.32 8.59, -214.5 6.41, -225.72 2.47 M-202.14 10.76 C-206.92 9.08, -211.69 7.4, -225.72 2.47" stroke="#1e1e1e" stroke-width="1" fill="none"></path></g></g><mask></mask><g transform="translate(726.3519073497741 342.98150634765625) rotate(0 32.8125 9.600000000000023)"><text x="0" y="0" font-family="Cascadia, Segoe UI Emoji" font-size="16px" fill="#1e1e1e" text-anchor="start" style="white-space: pre;" direction="ltr" dominant-baseline="text-before-edge">MongoDB</text></g><g stroke-linecap="round"><g transform="translate(681.5160919200866 348.90663146972656) rotate(0 0.186279296875 70.2724609375)"><path d="M0 0 C0.06 23.42, 0.31 117.12, 0.37 140.54 M0 0 C0.06 23.42, 0.31 117.12, 0.37 140.54" stroke="#1e1e1e" stroke-width="1" fill="none"></path></g><g transform="translate(681.5160919200866 348.90663146972656) rotate(0 0.186279296875 70.2724609375)"><path d="M-8.24 117.08 C-5.1 125.62, -1.97 134.16, 0.37 140.54 M-8.24 117.08 C-6.22 122.59, -4.19 128.1, 0.37 140.54" stroke="#1e1e1e" stroke-width="1" fill="none"></path></g><g transform="translate(681.5160919200866 348.90663146972656) rotate(0 0.186279296875 70.2724609375)"><path d="M8.86 117.03 C5.77 125.59, 2.68 134.15, 0.37 140.54 M8.86 117.03 C6.87 122.55, 4.87 128.08, 0.37 140.54" stroke="#1e1e1e" stroke-width="1" fill="none"></path></g></g><mask></mask><g transform="translate(663.8977142345398 213.47073364257812) rotate(0 93.75 19.200000000000045)"><text x="0" y="0" font-family="Cascadia, Segoe UI Emoji" font-size="16px" fill="#1e1e1e" text-anchor="start" style="white-space: pre;" direction="ltr" dominant-baseline="text-before-edge">Aggregate reporting </text><text x="0" y="19.2" font-family="Cascadia, Segoe UI Emoji" font-size="16px" fill="#1e1e1e" text-anchor="start" style="white-space: pre;" direction="ltr" dominant-baseline="text-before-edge">data store</text></g><g transform="translate(414.3469024669617 232.6214141845703) rotate(0 103.125 38.39999999999998)"><text x="0" y="0" font-family="Cascadia, Segoe UI Emoji" font-size="16px" fill="#1e1e1e" text-anchor="start" style="white-space: pre;" direction="ltr" dominant-baseline="text-before-edge">{</text><text x="0" y="19.2" font-family="Cascadia, Segoe UI Emoji" font-size="16px" fill="#1e1e1e" text-anchor="start" style="white-space: pre;" direction="ltr" dominant-baseline="text-before-edge">  user_count: 2</text><text x="0" y="38.4" font-family="Cascadia, Segoe UI Emoji" font-size="16px" fill="#1e1e1e" text-anchor="start" style="white-space: pre;" direction="ltr" dominant-baseline="text-before-edge">  timestamp: 123456789</text><text x="0" y="57.599999999999994" font-family="Cascadia, Segoe UI Emoji" font-size="16px" fill="#1e1e1e" text-anchor="start" style="white-space: pre;" direction="ltr" dominant-baseline="text-before-edge">}</text></g><g transform="translate(416.34220275993044 121.0653076171875) rotate(0 103.125 48)"><text x="0" y="0" font-family="Cascadia, Segoe UI Emoji" font-size="16px" fill="#1e1e1e" text-anchor="start" style="white-space: pre;" direction="ltr" dominant-baseline="text-before-edge">{</text><text x="0" y="19.2" font-family="Cascadia, Segoe UI Emoji" font-size="16px" fill="#1e1e1e" text-anchor="start" style="white-space: pre;" direction="ltr" dominant-baseline="text-before-edge">  sreamID: abc</text><text x="0" y="38.4" font-family="Cascadia, Segoe UI Emoji" font-size="16px" fill="#1e1e1e" text-anchor="start" style="white-space: pre;" direction="ltr" dominant-baseline="text-before-edge">  user_count: 2</text><text x="0" y="57.599999999999994" font-family="Cascadia, Segoe UI Emoji" font-size="16px" fill="#1e1e1e" text-anchor="start" style="white-space: pre;" direction="ltr" dominant-baseline="text-before-edge">  timestamp: 123456789</text><text x="0" y="76.8" font-family="Cascadia, Segoe UI Emoji" font-size="16px" fill="#1e1e1e" text-anchor="start" style="white-space: pre;" direction="ltr" dominant-baseline="text-before-edge">}</text></g><g transform="translate(722.8429351818054 453.8566436767578) rotate(0 103.125 9.600000000000023)"><text x="0" y="0" font-family="Cascadia, Segoe UI Emoji" font-size="16px" fill="#1e1e1e" text-anchor="start" style="white-space: pre;" direction="ltr" dominant-baseline="text-before-edge">select historical data</text></g><g stroke-linecap="round"><g transform="translate(708.6443878185241 485.8675079345703) rotate(0 0.118133544921875 -69.6337890625)"><path d="M0 0 C0.04 -23.21, 0.2 -116.06, 0.24 -139.27 M0 0 C0.04 -23.21, 0.2 -116.06, 0.24 -139.27" stroke="#1e1e1e" stroke-width="1" fill="none"></path></g><g transform="translate(708.6443878185241 485.8675079345703) rotate(0 0.118133544921875 -69.6337890625)"><path d="M8.75 -115.76 C6.26 -122.64, 3.77 -129.51, 0.24 -139.27 M8.75 -115.76 C6.09 -123.1, 3.43 -130.44, 0.24 -139.27" stroke="#1e1e1e" stroke-width="1" fill="none"></path></g><g transform="translate(708.6443878185241 485.8675079345703) rotate(0 0.118133544921875 -69.6337890625)"><path d="M-8.35 -115.79 C-5.84 -122.66, -3.33 -129.53, 0.24 -139.27 M-8.35 -115.79 C-5.67 -123.12, -2.99 -130.45, 0.24 -139.27" stroke="#1e1e1e" stroke-width="1" fill="none"></path></g></g><mask></mask><g stroke-linecap="round"><g transform="translate(790.5651031505554 563.1435394287109) rotate(0 100.09185791015625 -0.202972412109375)"><path d="M0 0 C33.36 -0.07, 166.82 -0.34, 200.18 -0.41 M0 0 C33.36 -0.07, 166.82 -0.34, 200.18 -0.41" stroke="#1e1e1e" stroke-width="1" fill="none"></path></g><g transform="translate(790.5651031505554 563.1435394287109) rotate(0 100.09185791015625 -0.202972412109375)"><path d="M176.71 8.19 C182.42 6.1, 188.14 4.01, 200.18 -0.41 M176.71 8.19 C185.55 4.95, 194.4 1.71, 200.18 -0.41" stroke="#1e1e1e" stroke-width="1" fill="none"></path></g><g transform="translate(790.5651031505554 563.1435394287109) rotate(0 100.09185791015625 -0.202972412109375)"><path d="M176.67 -8.91 C182.4 -6.84, 188.12 -4.77, 200.18 -0.41 M176.67 -8.91 C185.53 -5.71, 194.39 -2.5, 200.18 -0.41" stroke="#1e1e1e" stroke-width="1" fill="none"></path></g></g><mask></mask><g stroke-linecap="round" transform="translate(976.0753570568054 261.00205993652344) rotate(0 75.02597045898438 34.503326416015625)"><path d="M17.25 0 C46.78 0, 76.3 0, 132.8 0 C144.3 0, 150.05 5.75, 150.05 17.25 C150.05 25.7, 150.05 34.15, 150.05 51.75 C150.05 63.26, 144.3 69.01, 132.8 69.01 C98.22 69.01, 63.64 69.01, 17.25 69.01 C5.75 69.01, 0 63.26, 0 51.75 C0 42.04, 0 32.32, 0 17.25 C0 5.75, 5.75 0, 17.25 0" stroke="none" stroke-width="0" fill="white"></path><path d="M17.25 0 C59.06 0, 100.87 0, 132.8 0 M17.25 0 C59.27 0, 101.28 0, 132.8 0 M132.8 0 C144.3 0, 150.05 5.75, 150.05 17.25 M132.8 0 C144.3 0, 150.05 5.75, 150.05 17.25 M150.05 17.25 C150.05 27.6, 150.05 37.95, 150.05 51.75 M150.05 17.25 C150.05 24.23, 150.05 31.2, 150.05 51.75 M150.05 51.75 C150.05 63.26, 144.3 69.01, 132.8 69.01 M150.05 51.75 C150.05 63.26, 144.3 69.01, 132.8 69.01 M132.8 69.01 C108.73 69.01, 84.67 69.01, 17.25 69.01 M132.8 69.01 C108.58 69.01, 84.36 69.01, 17.25 69.01 M17.25 69.01 C5.75 69.01, 0 63.26, 0 51.75 M17.25 69.01 C5.75 69.01, 0 63.26, 0 51.75 M0 51.75 C0 44.44, 0 37.13, 0 17.25 M0 51.75 C0 41.54, 0 31.32, 0 17.25 M0 17.25 C0 5.75, 5.75 0, 17.25 0 M0 17.25 C0 5.75, 5.75 0, 17.25 0" stroke="#1e1e1e" stroke-width="1" fill="none"></path></g><g transform="translate(994.8513275157898 276.305386352539) rotate(0 56.25 19.200000000000045)"><text x="56.25" y="0" font-family="Cascadia, Segoe UI Emoji" font-size="16px" fill="#1e1e1e" text-anchor="middle" style="white-space: pre;" direction="ltr" dominant-baseline="text-before-edge">Aggregation </text><text x="56.25" y="19.2" font-family="Cascadia, Segoe UI Emoji" font-size="16px" fill="#1e1e1e" text-anchor="middle" style="white-space: pre;" direction="ltr" dominant-baseline="text-before-edge">job</text></g><g transform="translate(416.42691955680544 345.5636749267578) rotate(0 103.125 48)"><text x="0" y="0" font-family="Cascadia, Segoe UI Emoji" font-size="16px" fill="#1e1e1e" text-anchor="start" style="white-space: pre;" direction="ltr" dominant-baseline="text-before-edge">{</text><text x="0" y="19.2" font-family="Cascadia, Segoe UI Emoji" font-size="16px" fill="#1e1e1e" text-anchor="start" style="white-space: pre;" direction="ltr" dominant-baseline="text-before-edge">  device_type: abc</text><text x="0" y="38.4" font-family="Cascadia, Segoe UI Emoji" font-size="16px" fill="#1e1e1e" text-anchor="start" style="white-space: pre;" direction="ltr" dominant-baseline="text-before-edge">  user_count: 2</text><text x="0" y="57.599999999999994" font-family="Cascadia, Segoe UI Emoji" font-size="16px" fill="#1e1e1e" text-anchor="start" style="white-space: pre;" direction="ltr" dominant-baseline="text-before-edge">  timestamp: 123456789</text><text x="0" y="76.8" font-family="Cascadia, Segoe UI Emoji" font-size="16px" fill="#1e1e1e" text-anchor="start" style="white-space: pre;" direction="ltr" dominant-baseline="text-before-edge">}</text></g><g transform="translate(489.8277374278992 10) rotate(0 103.125 48)"><text x="0" y="0" font-family="Cascadia, Segoe UI Emoji" font-size="16px" fill="#1e1e1e" text-anchor="start" style="white-space: pre;" direction="ltr" dominant-baseline="text-before-edge">{</text><text x="0" y="19.2" font-family="Cascadia, Segoe UI Emoji" font-size="16px" fill="#1e1e1e" text-anchor="start" style="white-space: pre;" direction="ltr" dominant-baseline="text-before-edge">  geo: TX</text><text x="0" y="38.4" font-family="Cascadia, Segoe UI Emoji" font-size="16px" fill="#1e1e1e" text-anchor="start" style="white-space: pre;" direction="ltr" dominant-baseline="text-before-edge">  user_count: 2</text><text x="0" y="57.599999999999994" font-family="Cascadia, Segoe UI Emoji" font-size="16px" fill="#1e1e1e" text-anchor="start" style="white-space: pre;" direction="ltr" dominant-baseline="text-before-edge">  timestamp: 123456789</text><text x="0" y="76.8" font-family="Cascadia, Segoe UI Emoji" font-size="16px" fill="#1e1e1e" text-anchor="start" style="white-space: pre;" direction="ltr" dominant-baseline="text-before-edge">}</text></g><g transform="translate(714.6420074474304 65.29243469238281) rotate(0 103.125 48)"><text x="0" y="0" font-family="Cascadia, Segoe UI Emoji" font-size="16px" fill="#1e1e1e" text-anchor="start" style="white-space: pre;" direction="ltr" dominant-baseline="text-before-edge">{</text><text x="0" y="19.2" font-family="Cascadia, Segoe UI Emoji" font-size="16px" fill="#1e1e1e" text-anchor="start" style="white-space: pre;" direction="ltr" dominant-baseline="text-before-edge">  userID: abc</text><text x="0" y="38.4" font-family="Cascadia, Segoe UI Emoji" font-size="16px" fill="#1e1e1e" text-anchor="start" style="white-space: pre;" direction="ltr" dominant-baseline="text-before-edge">  strem_count: 2</text><text x="0" y="57.599999999999994" font-family="Cascadia, Segoe UI Emoji" font-size="16px" fill="#1e1e1e" text-anchor="start" style="white-space: pre;" direction="ltr" dominant-baseline="text-before-edge">  timestamp: 123456789</text><text x="0" y="76.8" font-family="Cascadia, Segoe UI Emoji" font-size="16px" fill="#1e1e1e" text-anchor="start" style="white-space: pre;" direction="ltr" dominant-baseline="text-before-edge">}</text></g><g stroke-linecap="round"><g transform="translate(1023.5709625255554 352.5236358642578) rotate(0 28.0889892578125 70.69009399414062)"><path d="M0 0 C5.72 23.84, 24.96 143.33, 34.32 143.05 C43.68 142.77, 52.54 22.45, 56.18 -1.67 M0 0 C5.72 23.84, 24.96 143.33, 34.32 143.05 C43.68 142.77, 52.54 22.45, 56.18 -1.67" stroke="#1e1e1e" stroke-width="1" fill="none"></path></g><g transform="translate(1023.5709625255554 352.5236358642578) rotate(0 28.0889892578125 70.69009399414062)"><path d="M62.13 22.61 C60.79 17.14, 59.45 11.67, 56.18 -1.67 M62.13 22.61 C60.5 15.94, 58.86 9.27, 56.18 -1.67" stroke="#1e1e1e" stroke-width="1" fill="none"></path></g><g transform="translate(1023.5709625255554 352.5236358642578) rotate(0 28.0889892578125 70.69009399414062)"><path d="M45.13 20.76 C47.62 15.71, 50.11 10.65, 56.18 -1.67 M45.13 20.76 C48.17 14.6, 51.2 8.44, 56.18 -1.67" stroke="#1e1e1e" stroke-width="1" fill="none"></path></g></g><mask></mask><g transform="translate(1108.9940582286804 338.8432159423828) rotate(0 51.5625 9.600000000000023)"><text x="0" y="0" font-family="Cascadia, Segoe UI Emoji" font-size="16px" fill="#1e1e1e" text-anchor="start" style="white-space: pre;" direction="ltr" dominant-baseline="text-before-edge">Every 5 min</text></g></svg>