<svg version="1.1" xmlns="http://www.w3.org/2000/svg" viewBox="0 0 2064.1880028026117 1160.0269348144534" width="2064.1880028026117" height="1160.0269348144534">
  <!-- svg-source:excalidraw -->
  
  <defs>
    <style class="style-fonts">
      @font-face {
        font-family: "Virgil";
        src: url("https://excalidraw.com/Virgil.woff2");
      }
      @font-face {
        font-family: "Cascadia";
        src: url("https://excalidraw.com/Cascadia.woff2");
      }
      @font-face {
        font-family: "Assistant";
        src: url("https://excalidraw.com/Assistant-Regular.woff2");
      }
    </style>
    
  </defs>
  <rect x="0" y="0" width="2064.1880028026117" height="1160.0269348144534" fill="#ffffff"></rect><g transform="translate(34.74581336205901 612.108357747527) rotate(0 22.339981079101562 12.5)"><text x="0" y="0" font-family="Virgil, Segoe UI Emoji" font-size="20px" fill="#000000" text-anchor="start" style="white-space: pre;" direction="ltr" dominant-baseline="text-before-edge">User</text></g><g stroke-linecap="round"><g transform="translate(31.958592713551838 602.4554317375482) rotate(0 24.634710359068734 -21.936502105304612)" fill-rule="evenodd"><path d="M13.47 -38.64 C13.47 -38.64, 13.47 -38.64, 13.47 -38.64 M13.47 -38.64 C13.47 -38.64, 13.47 -38.64, 13.47 -38.64 M3.11 -14.53 C9.19 -21.53, 15.28 -28.53, 28.04 -43.2 M3.11 -14.53 C11.51 -24.19, 19.92 -33.86, 28.04 -43.2 M0.61 0.53 C11.3 -11.75, 21.98 -24.04, 35.39 -39.47 M0.61 0.53 C13.04 -13.77, 25.48 -28.06, 35.39 -39.47 M11.24 0.5 C22.74 -12.73, 34.24 -25.96, 40.77 -33.46 M11.24 0.5 C19.77 -9.31, 28.29 -19.11, 40.77 -33.46 M21.87 0.47 C28.18 -6.79, 34.48 -14.04, 44.84 -25.95 M21.87 0.47 C27.42 -5.92, 32.97 -12.3, 44.84 -25.95 M32.5 0.43 C38.86 -6.88, 45.22 -14.2, 48.91 -18.44 M32.5 0.43 C38.02 -5.92, 43.54 -12.26, 48.91 -18.44 M44.45 -1.11 C46.39 -3.34, 48.32 -5.57, 51.66 -9.41 M44.45 -1.11 C46.47 -3.44, 48.5 -5.78, 51.66 -9.41 M0 0 C0 0, 0 0, 0 0 M0 0 C0 0, 0 0, 0 0 M12.04 -0.13 C7.89 -3.74, 3.75 -7.34, 1.47 -9.32 M12.04 -0.13 C9.32 -2.49, 6.61 -4.86, 1.47 -9.32 M24.84 0.39 C17.59 -5.91, 10.35 -12.2, 2.95 -18.64 M24.84 0.39 C19.46 -4.28, 14.08 -8.96, 2.95 -18.64 M36.12 -0.4 C27.7 -7.72, 19.27 -15.05, 5.18 -27.3 M36.12 -0.4 C28.27 -7.23, 20.42 -14.05, 5.18 -27.3 M46.65 -1.84 C35.42 -11.61, 24.19 -21.37, 9.67 -33.99 M46.65 -1.84 C35.59 -11.46, 24.53 -21.08, 9.67 -33.99 M51.9 -7.88 C38.67 -19.39, 25.43 -30.9, 14.92 -40.03 M51.9 -7.88 C38.74 -19.32, 25.58 -30.76, 14.92 -40.03 M47.34 -22.45 C37.76 -30.78, 28.18 -39.11, 22.43 -44.1 M47.34 -22.45 C41.55 -27.48, 35.76 -32.51, 22.43 -44.1" stroke="#ced4da" stroke-width="1" fill="none"></path><path d="M0 0 C0.92 -4.85, 1.58 -21.76, 5.52 -29.07 C9.46 -36.38, 17.61 -43.34, 23.65 -43.87 C29.69 -44.4, 37.51 -39.05, 41.78 -32.24 C46.05 -25.43, 56.23 -8.39, 49.27 -3.02 C42.31 2.36, 8.21 -0.5, 0 0 M0 0 C0.92 -4.85, 1.58 -21.76, 5.52 -29.07 C9.46 -36.38, 17.61 -43.34, 23.65 -43.87 C29.69 -44.4, 37.51 -39.05, 41.78 -32.24 C46.05 -25.43, 56.23 -8.39, 49.27 -3.02 C42.31 2.36, 8.21 -0.5, 0 0" stroke="#000000" stroke-width="2" fill="none"></path></g></g><mask></mask><g stroke-linecap="round" transform="translate(44.41246354986751 535.7643839516918) rotate(0 12.6129717038432 11.036350240862816)"><path d="M2.98 3.91 C2.98 3.91, 2.98 3.91, 2.98 3.91 M2.98 3.91 C2.98 3.91, 2.98 3.91, 2.98 3.91 M2.45 16.71 C6.28 12.3, 10.11 7.9, 16.23 0.86 M2.45 16.71 C7.63 10.75, 12.81 4.8, 16.23 0.86 M8.49 21.96 C13.48 16.22, 18.47 10.48, 22.92 5.35 M8.49 21.96 C12.96 16.82, 17.43 11.67, 22.92 5.35 M4.36 19.37 C4.36 19.37, 4.36 19.37, 4.36 19.37 M4.36 19.37 C4.36 19.37, 4.36 19.37, 4.36 19.37 M17.91 20.55 C13.91 17.06, 9.9 13.58, 1.31 6.11 M17.91 20.55 C12.52 15.85, 7.12 11.16, 1.31 6.11 M23.92 15.17 C19.75 11.55, 15.59 7.93, 7.31 0.73 M23.92 15.17 C18.01 10.03, 12.1 4.89, 7.31 0.73" stroke="#ced4da" stroke-width="1" fill="none"></path><path d="M25.23 11.04 C25.23 11.68, 25.16 12.32, 25.03 12.95 C24.91 13.58, 24.71 14.21, 24.47 14.81 C24.22 15.41, 23.9 16, 23.54 16.55 C23.17 17.11, 22.74 17.64, 22.28 18.13 C21.81 18.62, 21.28 19.08, 20.72 19.49 C20.16 19.9, 19.55 20.27, 18.92 20.59 C18.29 20.91, 17.61 21.19, 16.93 21.41 C16.24 21.63, 15.52 21.79, 14.8 21.91 C14.08 22.02, 13.34 22.07, 12.61 22.07 C11.88 22.07, 11.14 22.02, 10.42 21.91 C9.7 21.79, 8.99 21.63, 8.3 21.41 C7.61 21.19, 6.94 20.91, 6.31 20.59 C5.67 20.27, 5.06 19.9, 4.51 19.49 C3.95 19.08, 3.42 18.62, 2.95 18.13 C2.48 17.64, 2.05 17.11, 1.69 16.55 C1.32 16, 1.01 15.41, 0.76 14.81 C0.51 14.21, 0.32 13.58, 0.19 12.95 C0.06 12.32, 0 11.68, 0 11.04 C0 10.4, 0.06 9.75, 0.19 9.12 C0.32 8.49, 0.51 7.86, 0.76 7.26 C1.01 6.66, 1.32 6.07, 1.69 5.52 C2.05 4.96, 2.48 4.43, 2.95 3.94 C3.42 3.45, 3.95 2.99, 4.51 2.58 C5.06 2.17, 5.67 1.8, 6.31 1.48 C6.94 1.16, 7.61 0.88, 8.3 0.67 C8.99 0.45, 9.7 0.28, 10.42 0.17 C11.14 0.06, 11.88 0, 12.61 0 C13.34 0, 14.08 0.06, 14.8 0.17 C15.52 0.28, 16.24 0.45, 16.93 0.67 C17.61 0.88, 18.29 1.16, 18.92 1.48 C19.55 1.8, 20.16 2.17, 20.72 2.58 C21.28 2.99, 21.81 3.45, 22.28 3.94 C22.74 4.43, 23.17 4.96, 23.54 5.52 C23.9 6.07, 24.22 6.66, 24.47 7.26 C24.71 7.86, 24.91 8.49, 25.03 9.12 C25.16 9.75, 25.19 10.72, 25.23 11.04 C25.26 11.36, 25.26 10.72, 25.23 11.04" stroke="#000000" stroke-width="2" fill="none"></path></g><g stroke-linecap="round" transform="translate(300.5328389839716 724.7183844842898) rotate(0 32.326690673828125 32.326690673828125)"><path d="M-1.53 1.45 L64.43 -2.28 L68.31 64.19 L-2.35 61.79" stroke="none" stroke-width="0" fill="#e64980"></path><path d="M0.38 -0.95 C17.98 -2.83, 35.49 0.59, 68.2 -0.5 M0.82 1.96 C16.32 0.37, 35.31 -0.59, 66.36 -0.32 M65.95 -2.23 C69.56 18.72, 67.54 33.54, 64.04 68.41 M63.06 0.19 C62.01 21.47, 63.93 45.11, 64.88 66.51 M66.95 62.63 C47.93 62.26, 24.32 65.09, -1.41 68.23 M63.48 64.97 C44.73 64.97, 24.23 67, -1.08 65.16 M-1.09 61.9 C-3.22 44.57, -2.75 31.83, -2.34 3.64 M1.7 65.04 C0.69 37.65, -1.14 12.79, 1.76 -1.2" stroke="#00000000" stroke-width="1" fill="none"></path></g><g stroke-linecap="round" transform="translate(294.69565262603066 724.8370506119813) rotate(0 32.326690673828125 32.326690673828125)"><path d="M0 0 C0 0, 0 0, 0 0 M0 0 C0 0, 0 0, 0 0 M-0.26 6.4 C1.05 4.88, 2.37 3.37, 4.99 0.36 M-0.26 6.4 C1.61 4.25, 3.48 2.1, 4.99 0.36 M0.13 12.04 C4.21 7.36, 8.28 2.67, 10.63 -0.03 M0.13 12.04 C3.16 8.56, 6.19 5.08, 10.63 -0.03 M-0.13 18.44 C3.82 13.9, 7.77 9.36, 15.62 0.33 M-0.13 18.44 C6.07 11.31, 12.27 4.17, 15.62 0.33 M0.27 24.08 C7.16 16.15, 14.05 8.22, 21.26 -0.07 M0.27 24.08 C6.64 16.75, 13.01 9.42, 21.26 -0.07 M0 30.48 C7.21 22.19, 14.41 13.91, 26.25 0.29 M0 30.48 C10.15 18.81, 20.29 7.15, 26.25 0.29 M-0.26 36.88 C8.7 26.58, 17.65 16.28, 31.89 -0.1 M-0.26 36.88 C7.04 28.48, 14.34 20.09, 31.89 -0.1 M0.14 42.52 C12.54 28.25, 24.94 13.99, 36.88 0.26 M0.14 42.52 C7.61 33.92, 15.09 25.32, 36.88 0.26 M-0.12 48.92 C9.61 37.72, 19.35 26.52, 42.52 -0.14 M-0.12 48.92 C15.49 30.95, 31.11 12.99, 42.52 -0.14 M0.27 54.56 C18.16 33.98, 36.06 13.39, 47.51 0.22 M0.27 54.56 C10.46 42.84, 20.65 31.12, 47.51 0.22 M0.01 60.96 C12.8 46.25, 25.58 31.54, 53.15 -0.17 M0.01 60.96 C20.23 37.7, 40.45 14.44, 53.15 -0.17 M1.72 65.09 C22.05 41.7, 42.38 18.31, 58.14 0.19 M1.72 65.09 C24.04 39.41, 46.36 13.73, 58.14 0.19 M7.36 64.7 C27.22 41.85, 47.08 19.01, 63.78 -0.21 M7.36 64.7 C28.83 40, 50.3 15.3, 63.78 -0.21 M12.35 65.06 C31.67 42.83, 50.99 20.61, 64.83 4.68 M12.35 65.06 C23.75 51.93, 35.16 38.81, 64.83 4.68 M17.99 64.66 C30.68 50.07, 43.36 35.47, 64.57 11.08 M17.99 64.66 C28.65 52.4, 39.3 40.15, 64.57 11.08 M22.98 65.02 C36.04 50, 49.1 34.97, 64.96 16.72 M22.98 65.02 C37.94 47.81, 52.91 30.59, 64.96 16.72 M27.96 65.38 C38.44 53.33, 48.92 41.28, 64.7 23.12 M27.96 65.38 C36.74 55.28, 45.53 45.18, 64.7 23.12 M33.61 64.99 C40.59 56.95, 47.58 48.91, 65.1 28.76 M33.61 64.99 C45.89 50.86, 58.18 36.72, 65.1 28.76 M38.59 65.35 C47.7 54.87, 56.81 44.39, 64.84 35.16 M38.59 65.35 C45.85 57, 53.12 48.64, 64.84 35.16 M44.24 64.95 C51.49 56.61, 58.74 48.27, 64.57 41.56 M44.24 64.95 C50.28 58.01, 56.32 51.06, 64.57 41.56 M49.22 65.31 C55.34 58.28, 61.46 51.24, 64.97 47.2 M49.22 65.31 C53.3 60.63, 57.38 55.94, 64.97 47.2 M54.87 64.92 C57.77 61.58, 60.67 58.25, 64.71 53.6 M54.87 64.92 C58.39 60.87, 61.9 56.82, 64.71 53.6 M59.85 65.28 C60.97 63.99, 62.09 62.71, 65.1 59.24 M59.85 65.28 C61.19 63.75, 62.52 62.21, 65.1 59.24" stroke="#e64980" stroke-width="0.5" fill="none"></path><path d="M0 0 C21.44 0, 42.88 0, 64.65 0 M0 0 C25.13 0, 50.26 0, 64.65 0 M64.65 0 C64.65 17.97, 64.65 35.94, 64.65 64.65 M64.65 0 C64.65 24.29, 64.65 48.59, 64.65 64.65 M64.65 64.65 C42.31 64.65, 19.96 64.65, 0 64.65 M64.65 64.65 C44.63 64.65, 24.62 64.65, 0 64.65 M0 64.65 C0 46.38, 0 28.11, 0 0 M0 64.65 C0 51.37, 0 38.09, 0 0" stroke="#000000" stroke-width="1" fill="none"></path></g><g stroke-linecap="round"><g transform="translate(320.5921529715134 744.9331461350075) rotate(0 7.584660526743164 0)"><path d="M0 0 C4.19 0, 8.38 0, 15.17 0" stroke="#ffffff" stroke-width="2.5" fill="none" stroke-dasharray="1.5 8"></path></g></g><mask></mask><g stroke-linecap="round"><g transform="translate(319.1202586180717 769.7120406535037) rotate(0 8.568918700631542 0)"><path d="M0 0 C4.11 0, 8.21 0, 17.14 0" stroke="#ffffff" stroke-width="2.5" fill="none" stroke-dasharray="1.5 8"></path></g></g><mask></mask><g stroke-linecap="round"><g transform="translate(302.3197090097598 740.7624855684685) rotate(0 8.477523156769621 16.805789676925713)"><path d="M0 0 C5.51 -2.4, 11.02 -4.81, 16.96 -7.4 M0 0 C6.75 -2.95, 13.5 -5.89, 16.96 -7.4 M16.96 -7.4 C16.93 4.47, 16.91 16.35, 16.87 41.01 M16.96 -7.4 C16.93 9.44, 16.9 26.27, 16.87 41.01 M16.87 41.01 C13.17 39.34, 9.46 37.68, 0.08 33.45 M16.87 41.01 C10.28 38.04, 3.69 35.08, 0.08 33.45 M0.08 33.45 C0.06 26.35, 0.05 19.25, 0 0 M0.08 33.45 C0.05 22.02, 0.03 10.58, 0 0" stroke="#ffffff" stroke-width="2" fill="none"></path></g></g><mask></mask><g stroke-linecap="round"><g transform="translate(336.7807526890598 733.1768741092615) rotate(0 8.48838764300524 24.139529940593718)"><path d="M0 0 C0.06 13.88, 0.11 27.77, 0.2 48.28 M0 0 C0.06 14.32, 0.12 28.63, 0.2 48.28 M0.2 48.28 C6.43 45.56, 12.66 42.83, 16.96 40.95 M0.2 48.28 C4.97 46.19, 9.74 44.11, 16.96 40.95 M16.96 40.95 C16.96 33.88, 16.97 26.82, 16.98 7.51 M16.96 40.95 C16.97 32.67, 16.97 24.39, 16.98 7.51 M16.98 7.51 C12.17 5.38, 7.37 3.26, 0 0 M16.98 7.51 C11.61 5.14, 6.25 2.76, 0 0" stroke="#ffffff" stroke-width="2" fill="none"></path></g></g><mask></mask><g stroke-linecap="round"><g transform="translate(323.46172090257426 763.312513671958) rotate(0 4.55055974260361 -6.101967954136683)"><path d="M0 0 C2.61 -3.5, 5.23 -7.01, 9.1 -12.2 M0 0 C2.26 -3.03, 4.52 -6.06, 9.1 -12.2" stroke="#ffffff" stroke-width="2" fill="none"></path></g></g><mask></mask><g stroke-linecap="round"><g transform="translate(331.2702349073812 753.4437597535143) rotate(0 2.4973872120515352 4.2069285343138745)"><path d="M0 0 C1.71 1.49, 3.42 2.98, 5.01 4.37 M0 0 C1.42 1.24, 2.84 2.48, 5.01 4.37 M5.01 4.37 C3.14 5.87, 1.28 7.38, -0.01 8.41 M5.01 4.37 C3.72 5.4, 2.44 6.44, -0.01 8.41" stroke="#ffffff" stroke-width="2" fill="none"></path></g></g><mask></mask><g stroke-linecap="round"><g transform="translate(319.4644183062493 752.9003764007641) rotate(180 2.4973872120515352 4.2069285343138745)"><path d="M0 0 C1.39 1.21, 2.78 2.43, 5.01 4.37 M0 0 C1.88 1.64, 3.76 3.28, 5.01 4.37 M5.01 4.37 C3.27 5.77, 1.54 7.17, -0.01 8.41 M5.01 4.37 C3.45 5.62, 1.9 6.87, -0.01 8.41" stroke="#ffffff" stroke-width="2" fill="none"></path></g></g><mask></mask><g transform="translate(273.6622711193055 791.1470940313352) rotate(0 53.39996337890625 20)"><text x="53.39996337890625" y="0" font-family="Virgil, Segoe UI Emoji" font-size="16px" fill="#000000" text-anchor="middle" style="white-space: pre;" direction="ltr" dominant-baseline="text-before-edge">Amazon</text><text x="53.39996337890625" y="20" font-family="Virgil, Segoe UI Emoji" font-size="16px" fill="#000000" text-anchor="middle" style="white-space: pre;" direction="ltr" dominant-baseline="text-before-edge">API Gateway</text></g><g stroke-linecap="round"><g transform="translate(942.3096505044447 898.6922274040619) rotate(89.99999999999994 31.297249589261924 77.8063403669114)" fill-rule="evenodd"><path d="M2.5 -5.78 C2.5 -5.78, 2.5 -5.78, 2.5 -5.78 M2.5 -5.78 C2.5 -5.78, 2.5 -5.78, 2.5 -5.78 M0.27 2.88 C6.68 -2.47, 11.65 -9.92, 12.73 -11.46 M0.27 2.88 C3.46 -1.84, 8.07 -5.78, 12.73 -11.46 M0.01 9.28 C3.41 2.37, 8.74 -0.8, 19.69 -13.36 M0.01 9.28 C6.19 3, 11.23 -2.92, 19.69 -13.36 M-0.26 15.68 C3.59 9.08, 11.36 4.6, 25.33 -13.76 M-0.26 15.68 C7.53 6.22, 14.69 -2.4, 25.33 -13.76 M0.14 21.32 C8.64 10.64, 22.61 -2.03, 30.97 -14.15 M0.14 21.32 C11.09 9.07, 20.23 -1.94, 30.97 -14.15 M-0.12 27.72 C10.18 13.78, 22.09 1.47, 35.31 -13.04 M-0.12 27.72 C12.98 10.65, 27.27 -5.03, 35.31 -13.04 M0.27 33.36 C10.22 26.31, 15.8 13.66, 40.29 -12.67 M0.27 33.36 C8.24 22.34, 17.37 12.9, 40.29 -12.67 M0.01 39.76 C9.12 29.2, 21.13 17.35, 44.62 -11.56 M0.01 39.76 C17.21 21.06, 33.32 0.71, 44.62 -11.56 M-0.25 46.16 C13.68 31.74, 26.58 17.86, 48.95 -10.45 M-0.25 46.16 C11.86 32.65, 23.88 18.66, 48.95 -10.45 M0.14 51.8 C16.59 32.53, 35.24 13.26, 53.29 -9.33 M0.14 51.8 C13.54 37.47, 25 22.31, 53.29 -9.33 M-0.12 58.2 C20.74 34.96, 38.26 14.05, 56.96 -7.46 M-0.12 58.2 C15.16 41.11, 30.93 22.9, 56.96 -7.46 M0.28 63.84 C19.26 40.01, 39.35 19.05, 59.98 -4.84 M0.28 63.84 C18.58 41.09, 37.26 19.98, 59.98 -4.84 M0.02 70.24 C25.01 44.06, 47.37 16.31, 62.34 -1.46 M0.02 70.24 C16.37 51.49, 32.76 31.71, 62.34 -1.46 M63 -2.21 C63 -2.21, 63 -2.21, 63 -2.21 M63 -2.21 C63 -2.21, 63 -2.21, 63 -2.21 M-0.25 76.64 C18.85 53.6, 40.88 33.78, 62.74 4.19 M-0.25 76.64 C22.55 49.27, 46.01 23.81, 62.74 4.19 M0.15 82.28 C13.02 68.19, 24.07 54.06, 62.47 10.58 M0.15 82.28 C16.05 63.28, 31 45.05, 62.47 10.58 M-0.11 88.68 C23.18 62.85, 45.34 37.94, 62.87 16.23 M-0.11 88.68 C23.08 63.15, 46.62 36.96, 62.87 16.23 M0.28 94.32 C26.74 64.02, 50 37.31, 62.61 22.62 M0.28 94.32 C18.13 73.38, 35.73 52.42, 62.61 22.62 M0.02 100.72 C23.78 77.11, 43.04 51.36, 63 28.27 M0.02 100.72 C15.16 82.69, 29.88 66.72, 63 28.27 M-0.24 107.12 C15.7 85.41, 34.4 66.52, 62.74 34.66 M-0.24 107.12 C18.84 85.28, 37.01 63.69, 62.74 34.66 M0.15 112.76 C13.94 96.12, 30.73 79.17, 62.48 41.06 M0.15 112.76 C15.04 97.64, 28.52 81.89, 62.48 41.06 M-0.11 119.16 C24.04 88.99, 49.98 61.17, 62.87 46.71 M-0.11 119.16 C18.84 97.13, 38.87 75.18, 62.87 46.71 M-0.37 125.56 C21.49 99.65, 42.67 75.74, 62.61 53.1 M-0.37 125.56 C20.72 101.07, 42.86 74.85, 62.61 53.1 M0.03 131.2 C20.86 108.17, 36.56 88.15, 63.01 58.75 M0.03 131.2 C19.7 107.61, 39.46 85.08, 63.01 58.75 M-0.24 137.6 C20.79 112.59, 43.67 87.19, 62.75 65.14 M-0.24 137.6 C18.82 114.64, 37.87 93.74, 62.75 65.14 M0.16 143.24 C21.05 118.32, 43.58 89.46, 62.48 71.54 M0.16 143.24 C18.1 121.68, 36.69 101.11, 62.48 71.54 M-0.1 149.64 C15.44 133.14, 30.75 114.16, 62.88 77.19 M-0.1 149.64 C23.32 123.2, 46.1 96.16, 62.88 77.19 M0.29 155.28 C21.98 133.77, 42.18 107.93, 62.62 83.58 M0.29 155.28 C23.22 129.39, 44.72 105.04, 62.62 83.58 M1.34 160.17 C25.01 132.1, 48.18 103.81, 63.01 89.23 M1.34 160.17 C19.13 140.49, 36.86 119.84, 63.01 89.23 M4.36 162.79 C21.89 141.86, 41.4 119.36, 62.75 95.62 M4.36 162.79 C19.84 143.48, 35.72 126.72, 62.75 95.62 M7.38 165.42 C27.19 142.55, 44.49 123.16, 62.49 102.02 M7.38 165.42 C25.27 144.24, 43.94 120.87, 62.49 102.02 M11.06 167.29 C30.6 146.32, 51.17 123.75, 62.88 107.66 M11.06 167.29 C25.22 150.01, 39.97 134.54, 62.88 107.66 M15.39 168.4 C30.9 150.92, 46.98 133.94, 62.62 114.06 M15.39 168.4 C32.23 148.1, 47.98 130.41, 62.62 114.06 M19.72 169.52 C36.89 153.19, 51.06 133.11, 63.02 119.71 M19.72 169.52 C30.93 156.08, 42.24 143.32, 63.02 119.71 M24.05 170.63 C33.1 161.79, 40.6 154.02, 62.76 126.1 M24.05 170.63 C35.41 159.42, 45.88 146.19, 62.76 126.1 M29.04 170.99 C38.22 158.77, 50.45 147.97, 62.49 132.5 M29.04 170.99 C37.66 161.59, 45.43 152.43, 62.49 132.5 M35.33 169.84 C44.59 160.68, 52.47 146.92, 62.89 138.14 M35.33 169.84 C45.45 159.82, 54.16 148.5, 62.89 138.14 M40.98 169.45 C47.83 162.11, 55.36 154.12, 62.63 144.54 M40.98 169.45 C46.23 162.88, 51.86 156.48, 62.63 144.54 M47.28 168.3 C52.04 164.47, 55.2 158.07, 63.02 150.18 M47.28 168.3 C52.01 161.92, 57.86 155.55, 63.02 150.18 M55.54 164.88 C57.04 164.07, 57.86 161.87, 62.1 157.34 M55.54 164.88 C57.21 162.3, 58.79 160.88, 62.1 157.34" stroke="#40c057" stroke-width="0.5" fill="none"></path><path d="M-0.66 0.91 C-0.65 24.33, 1.07 114.29, 1.07 140.31 C1.07 166.33, -1.16 153.19, -0.66 157.03 C-0.16 160.86, 1.48 161.41, 4.09 163.31 C6.69 165.2, 9.91 167.12, 14.98 168.37 C20.05 169.62, 28.55 171.05, 34.5 170.82 C40.44 170.58, 46.39 168.64, 50.66 166.94 C54.93 165.25, 58.34 162.74, 60.13 160.66 C61.91 158.59, 60.94 157.49, 61.37 154.52 C61.81 151.54, 62.51 166.41, 62.71 142.8 C62.92 119.18, 62.75 36.85, 62.62 12.85 C62.49 -11.15, 62.51 2.08, 61.93 -1.19 C61.36 -4.45, 61.3 -5.11, 59.15 -6.74 C57.01 -8.37, 54.02 -9.42, 49.04 -10.94 C44.06 -12.47, 35.02 -15.52, 29.29 -15.89 C23.55 -16.27, 18.91 -14.87, 14.65 -13.19 C10.4 -11.51, 6.14 -8.08, 3.76 -5.81 C1.37 -3.55, 1.11 -0.58, 0.36 0.42 C-0.38 1.42, -0.69 0.28, -0.7 0.19 M1.2 0.34 C1.03 23.4, 1.07 112.57, 0.57 138.39 C0.07 164.22, -2.48 151.53, -1.78 155.3 C-1.08 159.08, 2.19 158.82, 4.78 161.05 C7.38 163.28, 9.12 167.17, 13.8 168.67 C18.47 170.16, 26.66 169.96, 32.84 170.01 C39.02 170.06, 45.97 170.58, 50.88 168.98 C55.78 167.37, 60.27 163.04, 62.26 160.38 C64.25 157.73, 62.59 155.96, 62.8 153.03 C63.01 150.1, 63.49 166.53, 63.53 142.82 C63.56 119.11, 63.53 34.88, 63.01 10.76 C62.49 -13.37, 60.93 1.05, 60.41 -1.94 C59.9 -4.93, 61.99 -5.71, 59.93 -7.2 C57.86 -8.69, 53.16 -9.86, 48.01 -10.89 C42.87 -11.92, 34.47 -13.18, 29.06 -13.39 C23.66 -13.6, 19.91 -13.56, 15.58 -12.16 C11.25 -10.75, 5.78 -7.17, 3.07 -4.97 C0.35 -2.77, -0.4 0.13, -0.72 1.05 C-1.03 1.97, 0.93 0.44, 1.2 0.55" stroke="#087f5b" stroke-width="1" fill="none"></path></g></g><mask></mask><g stroke-linecap="round"><g transform="translate(912.9324294446429 969.4840209891329) rotate(89.99999999999994 30.37292764020924 6.9054319199414635)"><path d="M0.86 0.39 C1.12 1.45, -0.49 5.35, 0.93 7.24 C2.35 9.13, 6.48 10.59, 9.36 11.72 C12.25 12.86, 14.26 13.51, 18.23 14.04 C22.21 14.58, 28.23 15.29, 33.2 14.96 C38.17 14.62, 43.97 13.59, 48.06 12.02 C52.14 10.45, 55.78 7.68, 57.72 5.53 C59.65 3.38, 59.16 -0.01, 59.68 -0.89 M-0.15 -0.45 C0.57 0.22, 1.76 4.05, 3.29 5.74 C4.82 7.42, 6.47 8.13, 9.05 9.68 C11.63 11.23, 14.89 14.07, 18.77 15.05 C22.65 16.03, 27.27 15.7, 32.32 15.58 C37.37 15.46, 44.79 16.25, 49.04 14.36 C53.3 12.47, 55.74 6.86, 57.86 4.24 C59.98 1.63, 61.53 -0.51, 61.76 -1.34" stroke="#087f5b" stroke-width="1" fill="none"></path></g></g><mask></mask><g stroke-linecap="round"><g transform="translate(967.3402610343525 969.89015349603) rotate(89.99999999999994 30.2860936553285 5.53539447441932)"><path d="M-0.67 1.18 C-0.4 2.02, 0.84 4.17, 2.45 5.43 C4.07 6.7, 6.31 7.68, 9.03 8.75 C11.74 9.82, 15.07 11.46, 18.76 11.85 C22.45 12.24, 26.34 11.38, 31.17 11.1 C36.01 10.82, 43.39 11.33, 47.77 10.17 C52.15 9.02, 55.29 5.78, 57.44 4.15 C59.59 2.51, 60.11 0.95, 60.66 0.35 M1.18 0.75 C1.29 1.2, 0.73 2.07, 1.96 3.61 C3.19 5.15, 6.22 8.38, 8.55 9.97 C10.88 11.57, 11.88 12.98, 15.94 13.19 C20.01 13.4, 27.48 11.88, 32.94 11.21 C38.4 10.55, 44.59 10.61, 48.68 9.2 C52.78 7.78, 55.69 4.15, 57.52 2.7 C59.36 1.25, 59.41 0.98, 59.68 0.49" stroke="#087f5b" stroke-width="1" fill="none"></path></g></g><mask></mask><g stroke-linecap="round" transform="translate(1023.16020697128 962.8796037625077) rotate(89.99999999999994 30.70868250431886 13.65241946688451)"><path d="M44.15 1.24 C49.98 2.49, 55.34 6.27, 58.02 8.84 C60.7 11.41, 61.98 14.03, 60.23 16.65 C58.48 19.26, 52.83 22.81, 47.52 24.55 C42.21 26.29, 34.91 27.41, 28.37 27.11 C21.84 26.82, 12.98 24.81, 8.34 22.78 C3.69 20.74, 1 17.63, 0.52 14.91 C0.03 12.19, 1.85 8.84, 5.43 6.46 C9 4.09, 15.01 1.55, 21.98 0.66 C28.96 -0.23, 42.88 0.71, 47.26 1.14 C51.65 1.57, 48.59 2.93, 48.31 3.24 M18.67 0.16 C24.17 -0.9, 33.33 0.23, 39.89 1.3 C46.45 2.38, 54.72 4.06, 58.03 6.63 C61.35 9.2, 60.74 13.78, 59.79 16.74 C58.84 19.71, 56.97 22.45, 52.33 24.43 C47.69 26.41, 38.8 28.42, 31.93 28.61 C25.06 28.8, 16.4 27.73, 11.09 25.57 C5.78 23.41, 1.12 18.74, 0.05 15.67 C-1.01 12.59, 1.55 9.36, 4.72 7.12 C7.89 4.88, 16.62 3.37, 19.07 2.22 C21.51 1.07, 19.04 0.38, 19.39 0.21" stroke="none" stroke-width="0" fill="#fff"></path><path d="M38.03 -0.32 C44.16 -0.15, 50.91 2.35, 54.82 4.66 C58.72 6.96, 61.78 10.43, 61.47 13.5 C61.16 16.57, 57.36 20.75, 52.98 23.05 C48.59 25.35, 41.52 27.01, 35.17 27.32 C28.81 27.63, 20.6 26.39, 14.87 24.92 C9.15 23.45, 2.78 21.34, 0.81 18.49 C-1.17 15.63, 0.3 10.77, 3.03 7.79 C5.76 4.81, 10.41 1.68, 17.19 0.6 C23.98 -0.47, 38.27 0.69, 43.76 1.33 C49.26 1.98, 50.21 4.19, 50.16 4.47 M37.42 0.13 C43.8 0.72, 51.26 4.2, 55.13 6.6 C58.99 8.99, 60.9 11.63, 60.59 14.5 C60.27 17.38, 57.57 21.8, 53.24 23.85 C48.9 25.89, 41.24 26.67, 34.61 26.76 C27.97 26.85, 19.05 25.96, 13.41 24.37 C7.77 22.77, 2.41 19.97, 0.77 17.19 C-0.88 14.4, 0.7 10.03, 3.51 7.66 C6.33 5.3, 11.85 4.1, 17.65 3.02 C23.45 1.93, 34.9 1.5, 38.33 1.14 C41.76 0.78, 38.33 0.96, 38.24 0.86" stroke="#087f5b" stroke-width="1" fill="none"></path></g><g transform="translate(912.8802886974305 918.9719543457031) rotate(0 56.25 9.600000000000023)"><text x="0" y="0" font-family="Cascadia, Segoe UI Emoji" font-size="16px" fill="#1e1e1e" text-anchor="start" style="white-space: pre;" direction="ltr" dominant-baseline="text-before-edge">Apache Kafka</text></g><g stroke-linecap="round"><g transform="translate(106.06717834586797 855.7935485839844) rotate(0 73.17153930664062 -37.32432556152344)"><path d="M0 0 C24.39 -12.44, 121.95 -62.21, 146.34 -74.65 M0 0 C24.39 -12.44, 121.95 -62.21, 146.34 -74.65" stroke="#1e1e1e" stroke-width="1" fill="none"></path></g><g transform="translate(106.06717834586797 855.7935485839844) rotate(0 73.17153930664062 -37.32432556152344)"><path d="M129.3 -56.36 C135.19 -62.68, 141.08 -69, 146.34 -74.65 M129.3 -56.36 C134.58 -62.02, 139.85 -67.68, 146.34 -74.65" stroke="#1e1e1e" stroke-width="1" fill="none"></path></g><g transform="translate(106.06717834586797 855.7935485839844) rotate(0 73.17153930664062 -37.32432556152344)"><path d="M121.53 -71.59 C130.11 -72.65, 138.68 -73.7, 146.34 -74.65 M121.53 -71.59 C129.21 -72.54, 136.9 -73.48, 146.34 -74.65" stroke="#1e1e1e" stroke-width="1" fill="none"></path></g></g><mask></mask><g stroke-linecap="round"><g transform="translate(398.05845031852425 792.8097229003906) rotate(0 58.51389142709667 87.57354076590741)"><path d="M0 0 C19.5 29.19, 97.52 145.96, 117.03 175.15 M0 0 C19.5 29.19, 97.52 145.96, 117.03 175.15" stroke="#1e1e1e" stroke-width="1" fill="none"></path></g><g transform="translate(398.05845031852425 792.8097229003906) rotate(0 58.51389142709667 87.57354076590741)"><path d="M96.87 160.36 C104.81 166.19, 112.75 172.01, 117.03 175.15 M96.87 160.36 C102.59 164.56, 108.31 168.75, 117.03 175.15" stroke="#1e1e1e" stroke-width="1" fill="none"></path></g><g transform="translate(398.05845031852425 792.8097229003906) rotate(0 58.51389142709667 87.57354076590741)"><path d="M111.09 150.86 C113.43 160.43, 115.77 169.99, 117.03 175.15 M111.09 150.86 C112.77 157.75, 114.46 164.65, 117.03 175.15" stroke="#1e1e1e" stroke-width="1" fill="none"></path></g></g><mask></mask><g stroke-linecap="round"><g transform="translate(748.182168580243 968.6530456831197) rotate(0 58.814239501953125 -0.07687379370821645)"><path d="M0 0 C19.6 -0.03, 98.02 -0.13, 117.63 -0.15 M0 0 C19.6 -0.03, 98.02 -0.13, 117.63 -0.15" stroke="#1e1e1e" stroke-width="1" fill="none"></path></g><g transform="translate(748.182168580243 968.6530456831197) rotate(0 58.814239501953125 -0.07687379370821645)"><path d="M94.15 8.43 C99.61 6.43, 105.07 4.43, 117.63 -0.15 M94.15 8.43 C102.97 5.2, 111.79 1.98, 117.63 -0.15" stroke="#1e1e1e" stroke-width="1" fill="none"></path></g><g transform="translate(748.182168580243 968.6530456831197) rotate(0 58.814239501953125 -0.07687379370821645)"><path d="M94.13 -8.67 C99.59 -6.69, 105.06 -4.71, 117.63 -0.15 M94.13 -8.67 C102.96 -5.47, 111.79 -2.27, 117.63 -0.15" stroke="#1e1e1e" stroke-width="1" fill="none"></path></g></g><mask></mask><g stroke-linecap="round" transform="translate(581.2299896251649 918.6561889648438) rotate(0 75.32723999023438 37.57110595703125)"><path d="M18.79 0 C43.73 0, 68.67 0, 131.87 0 M18.79 0 C63.18 0, 107.58 0, 131.87 0 M131.87 0 C144.39 0, 150.65 6.26, 150.65 18.79 M131.87 0 C144.39 0, 150.65 6.26, 150.65 18.79 M150.65 18.79 C150.65 27.85, 150.65 36.92, 150.65 56.36 M150.65 18.79 C150.65 31, 150.65 43.22, 150.65 56.36 M150.65 56.36 C150.65 68.88, 144.39 75.14, 131.87 75.14 M150.65 56.36 C150.65 68.88, 144.39 75.14, 131.87 75.14 M131.87 75.14 C88.32 75.14, 44.76 75.14, 18.79 75.14 M131.87 75.14 C104.73 75.14, 77.6 75.14, 18.79 75.14 M18.79 75.14 C6.26 75.14, 0 68.88, 0 56.36 M18.79 75.14 C6.26 75.14, 0 68.88, 0 56.36 M0 56.36 C0 44.65, 0 32.95, 0 18.79 M0 56.36 C0 45.32, 0 34.29, 0 18.79 M0 18.79 C0 6.26, 6.26 0, 18.79 0 M0 18.79 C0 6.26, 6.26 0, 18.79 0" stroke="#1e1e1e" stroke-width="1" fill="none"></path></g><g stroke-linecap="round" transform="translate(551.6373992931336 941.1028442382812) rotate(0 75.32723999023438 37.57110595703125)"><path d="M18.79 0 C56.98 0, 95.17 0, 131.87 0 C144.39 0, 150.65 6.26, 150.65 18.79 C150.65 27.63, 150.65 36.48, 150.65 56.36 C150.65 68.88, 144.39 75.14, 131.87 75.14 C95.52 75.14, 59.16 75.14, 18.79 75.14 C6.26 75.14, 0 68.88, 0 56.36 C0 46.82, 0 37.29, 0 18.79 C0 6.26, 6.26 0, 18.79 0" stroke="none" stroke-width="0" fill="white"></path><path d="M18.79 0 C42.69 0, 66.59 0, 131.87 0 M18.79 0 C46.79 0, 74.79 0, 131.87 0 M131.87 0 C144.39 0, 150.65 6.26, 150.65 18.79 M131.87 0 C144.39 0, 150.65 6.26, 150.65 18.79 M150.65 18.79 C150.65 30.88, 150.65 42.97, 150.65 56.36 M150.65 18.79 C150.65 32.71, 150.65 46.64, 150.65 56.36 M150.65 56.36 C150.65 68.88, 144.39 75.14, 131.87 75.14 M150.65 56.36 C150.65 68.88, 144.39 75.14, 131.87 75.14 M131.87 75.14 C88.03 75.14, 44.18 75.14, 18.79 75.14 M131.87 75.14 C93.83 75.14, 55.8 75.14, 18.79 75.14 M18.79 75.14 C6.26 75.14, 0 68.88, 0 56.36 M18.79 75.14 C6.26 75.14, 0 68.88, 0 56.36 M0 56.36 C0 42.53, 0 28.7, 0 18.79 M0 56.36 C0 42.04, 0 27.72, 0 18.79 M0 18.79 C0 6.26, 6.26 0, 18.79 0 M0 18.79 C0 6.26, 6.26 0, 18.79 0" stroke="#1e1e1e" stroke-width="1" fill="none"></path></g><g stroke-linecap="round" transform="translate(529.9952789318055 971.0504760742188) rotate(0 75.32723999023438 37.57110595703125)"><path d="M18.79 0 C49.83 0, 80.87 0, 131.87 0 C144.39 0, 150.65 6.26, 150.65 18.79 C150.65 27.67, 150.65 36.56, 150.65 56.36 C150.65 68.88, 144.39 75.14, 131.87 75.14 C86.88 75.14, 41.9 75.14, 18.79 75.14 C6.26 75.14, 0 68.88, 0 56.36 C0 47.65, 0 38.95, 0 18.79 C0 6.26, 6.26 0, 18.79 0" stroke="none" stroke-width="0" fill="white"></path><path d="M18.79 0 C53.52 0, 88.26 0, 131.87 0 M18.79 0 C59.21 0, 99.64 0, 131.87 0 M131.87 0 C144.39 0, 150.65 6.26, 150.65 18.79 M131.87 0 C144.39 0, 150.65 6.26, 150.65 18.79 M150.65 18.79 C150.65 30.61, 150.65 42.44, 150.65 56.36 M150.65 18.79 C150.65 29.03, 150.65 39.27, 150.65 56.36 M150.65 56.36 C150.65 68.88, 144.39 75.14, 131.87 75.14 M150.65 56.36 C150.65 68.88, 144.39 75.14, 131.87 75.14 M131.87 75.14 C98.34 75.14, 64.81 75.14, 18.79 75.14 M131.87 75.14 C104.38 75.14, 76.9 75.14, 18.79 75.14 M18.79 75.14 C6.26 75.14, 0 68.88, 0 56.36 M18.79 75.14 C6.26 75.14, 0 68.88, 0 56.36 M0 56.36 C0 44.31, 0 32.25, 0 18.79 M0 56.36 C0 47.87, 0 39.38, 0 18.79 M0 18.79 C0 6.26, 6.26 0, 18.79 0 M0 18.79 C0 6.26, 6.26 0, 18.79 0" stroke="#1e1e1e" stroke-width="1" fill="none"></path></g><g transform="translate(553.8902984630555 985.0813293457031) rotate(0 51.5625 19.19999999999999)"><text x="51.5625" y="0" font-family="Cascadia, Segoe UI Emoji" font-size="16px" fill="#1e1e1e" text-anchor="middle" style="white-space: pre;" direction="ltr" dominant-baseline="text-before-edge">Tracking</text><text x="51.5625" y="19.2" font-family="Cascadia, Segoe UI Emoji" font-size="16px" fill="#1e1e1e" text-anchor="middle" style="white-space: pre;" direction="ltr" dominant-baseline="text-before-edge">Service API</text></g><g stroke-linecap="round" transform="translate(1468.0811447692042 876.9617480366925) rotate(0 75.32723999023438 37.57110595703125)"><path d="M18.79 0 C50.75 0, 82.71 0, 131.87 0 M18.79 0 C42.02 0, 65.24 0, 131.87 0 M131.87 0 C144.39 0, 150.65 6.26, 150.65 18.79 M131.87 0 C144.39 0, 150.65 6.26, 150.65 18.79 M150.65 18.79 C150.65 29.31, 150.65 39.84, 150.65 56.36 M150.65 18.79 C150.65 28.34, 150.65 37.89, 150.65 56.36 M150.65 56.36 C150.65 68.88, 144.39 75.14, 131.87 75.14 M150.65 56.36 C150.65 68.88, 144.39 75.14, 131.87 75.14 M131.87 75.14 C102.26 75.14, 72.64 75.14, 18.79 75.14 M131.87 75.14 C106.03 75.14, 80.18 75.14, 18.79 75.14 M18.79 75.14 C6.26 75.14, 0 68.88, 0 56.36 M18.79 75.14 C6.26 75.14, 0 68.88, 0 56.36 M0 56.36 C0 43.49, 0 30.62, 0 18.79 M0 56.36 C0 47.02, 0 37.67, 0 18.79 M0 18.79 C0 6.26, 6.26 0, 18.79 0 M0 18.79 C0 6.26, 6.26 0, 18.79 0" stroke="#1e1e1e" stroke-width="1" fill="none"></path></g><g stroke-linecap="round" transform="translate(1438.488554437173 899.40840331013) rotate(0 75.32723999023438 37.57110595703125)"><path d="M18.79 0 C48.73 0, 78.68 0, 131.87 0 C144.39 0, 150.65 6.26, 150.65 18.79 C150.65 28.02, 150.65 37.25, 150.65 56.36 C150.65 68.88, 144.39 75.14, 131.87 75.14 C93.69 75.14, 55.52 75.14, 18.79 75.14 C6.26 75.14, 0 68.88, 0 56.36 C0 43.33, 0 30.3, 0 18.79 C0 6.26, 6.26 0, 18.79 0" stroke="none" stroke-width="0" fill="white"></path><path d="M18.79 0 C62.47 0, 106.16 0, 131.87 0 M18.79 0 C48.72 0, 78.65 0, 131.87 0 M131.87 0 C144.39 0, 150.65 6.26, 150.65 18.79 M131.87 0 C144.39 0, 150.65 6.26, 150.65 18.79 M150.65 18.79 C150.65 29.1, 150.65 39.41, 150.65 56.36 M150.65 18.79 C150.65 27.86, 150.65 36.94, 150.65 56.36 M150.65 56.36 C150.65 68.88, 144.39 75.14, 131.87 75.14 M150.65 56.36 C150.65 68.88, 144.39 75.14, 131.87 75.14 M131.87 75.14 C98.58 75.14, 65.29 75.14, 18.79 75.14 M131.87 75.14 C92.83 75.14, 53.78 75.14, 18.79 75.14 M18.79 75.14 C6.26 75.14, 0 68.88, 0 56.36 M18.79 75.14 C6.26 75.14, 0 68.88, 0 56.36 M0 56.36 C0 45.17, 0 33.97, 0 18.79 M0 56.36 C0 43.64, 0 30.92, 0 18.79 M0 18.79 C0 6.26, 6.26 0, 18.79 0 M0 18.79 C0 6.26, 6.26 0, 18.79 0" stroke="#1e1e1e" stroke-width="1" fill="none"></path></g><g stroke-linecap="round" transform="translate(1416.8464340758449 929.3560351460675) rotate(0 75.32723999023438 37.57110595703125)"><path d="M18.79 0 C49.51 0, 80.23 0, 131.87 0 C144.39 0, 150.65 6.26, 150.65 18.79 C150.65 26.38, 150.65 33.98, 150.65 56.36 C150.65 68.88, 144.39 75.14, 131.87 75.14 C107.38 75.14, 82.9 75.14, 18.79 75.14 C6.26 75.14, 0 68.88, 0 56.36 C0 44.59, 0 32.82, 0 18.79 C0 6.26, 6.26 0, 18.79 0" stroke="none" stroke-width="0" fill="white"></path><path d="M18.79 0 C46.98 0, 75.17 0, 131.87 0 M18.79 0 C54.39 0, 90 0, 131.87 0 M131.87 0 C144.39 0, 150.65 6.26, 150.65 18.79 M131.87 0 C144.39 0, 150.65 6.26, 150.65 18.79 M150.65 18.79 C150.65 27.47, 150.65 36.16, 150.65 56.36 M150.65 18.79 C150.65 33.61, 150.65 48.43, 150.65 56.36 M150.65 56.36 C150.65 68.88, 144.39 75.14, 131.87 75.14 M150.65 56.36 C150.65 68.88, 144.39 75.14, 131.87 75.14 M131.87 75.14 C87.61 75.14, 43.36 75.14, 18.79 75.14 M131.87 75.14 C104.5 75.14, 77.13 75.14, 18.79 75.14 M18.79 75.14 C6.26 75.14, 0 68.88, 0 56.36 M18.79 75.14 C6.26 75.14, 0 68.88, 0 56.36 M0 56.36 C0 44.02, 0 31.69, 0 18.79 M0 56.36 C0 44.95, 0 33.55, 0 18.79 M0 18.79 C0 6.26, 6.26 0, 18.79 0 M0 18.79 C0 6.26, 6.26 0, 18.79 0" stroke="#1e1e1e" stroke-width="1" fill="none"></path></g><g transform="translate(1454.8039536070949 943.3868884175519) rotate(0 37.5 19.19999999999999)"><text x="37.5" y="0" font-family="Cascadia, Segoe UI Emoji" font-size="16px" fill="#1e1e1e" text-anchor="middle" style="white-space: pre;" direction="ltr" dominant-baseline="text-before-edge">Tracking</text><text x="37.5" y="19.2" font-family="Cascadia, Segoe UI Emoji" font-size="16px" fill="#1e1e1e" text-anchor="middle" style="white-space: pre;" direction="ltr" dominant-baseline="text-before-edge">Consumer</text></g><g stroke-linecap="round"><g transform="translate(1717.483025401004 675.473459471543) rotate(0 44.06059301640448 47.85201411482012)" fill-rule="evenodd"><path d="M-0.77 1.11 C-0.54 15.51, 0.03 68.68, -0.04 84.63 C-0.11 100.59, -2 94.36, -1.19 96.86 C-0.38 99.35, 0.96 98.84, 4.82 99.61 C8.69 100.39, 14.87 100.26, 21.98 101.5 C29.09 102.75, 39.38 106.85, 47.49 107.08 C55.59 107.3, 64.02 103.9, 70.61 102.84 C77.2 101.79, 84.16 102.31, 87.03 100.73 C89.9 99.14, 87.54 95.6, 87.85 93.34 C88.15 91.07, 89.09 101.7, 88.86 87.14 C88.63 72.57, 86.87 20.38, 86.45 5.96 C86.03 -8.46, 86.82 2.34, 86.34 0.6 C85.86 -1.14, 86.64 -3.49, 83.55 -4.48 C80.47 -5.48, 74.26 -4.75, 67.83 -5.38 C61.4 -6, 52.64 -8.19, 44.97 -8.24 C37.31 -8.3, 28.81 -6.82, 21.84 -5.71 C14.87 -4.61, 6.94 -2.37, 3.15 -1.61 C-0.64 -0.84, -0.64 -1.38, -0.92 -1.1 C-1.19 -0.82, 1.5 -0.47, 1.51 0.07" stroke="none" stroke-width="0" fill="#228be6" fill-rule="evenodd"></path><path d="M1.07 0.18 C1.22 14.68, 0.98 70.58, 0.69 86.56 C0.39 102.53, -1.38 93.81, -0.69 96.04 C0 98.27, 1.28 98.5, 4.81 99.95 C8.34 101.4, 13.57 103.89, 20.5 104.75 C27.42 105.6, 37.71 105.23, 46.33 105.08 C54.95 104.93, 65.66 104.96, 72.22 103.85 C78.78 102.74, 83.21 99.98, 85.69 98.41 C88.16 96.85, 86.76 96.41, 87.07 94.46 C87.39 92.51, 87.26 101.37, 87.58 86.71 C87.89 72.06, 88.81 20.84, 88.98 6.52 C89.15 -7.8, 89.6 2.53, 88.58 0.79 C87.55 -0.95, 85.75 -2.64, 82.81 -3.9 C79.87 -5.16, 77.42 -5.77, 70.91 -6.78 C64.41 -7.8, 52.1 -9.71, 43.76 -9.98 C35.42 -10.24, 27.36 -9.29, 20.87 -8.36 C14.39 -7.44, 8.39 -5.86, 4.83 -4.41 C1.27 -2.95, 0.31 -0.24, -0.51 0.38 C-1.32 1, -0.33 -0.6, -0.07 -0.68 M0.18 -0.77 C0.22 13.4, -0.33 68.32, -0.05 84.7 C0.22 101.07, 0.96 94.74, 1.83 97.46 C2.71 100.17, 2.31 100.22, 5.19 100.98 C8.07 101.74, 12.08 101.51, 19.12 102.05 C26.15 102.58, 38.47 104.05, 47.4 104.2 C56.34 104.35, 66.55 104, 72.74 102.95 C78.92 101.9, 81.85 98.99, 84.5 97.9 C87.15 96.8, 88.04 98.36, 88.63 96.37 C89.22 94.39, 88.44 100.85, 88.03 85.97 C87.63 71.1, 86.23 21.3, 86.18 7.14 C86.13 -7.03, 88.17 2.88, 87.74 0.96 C87.3 -0.96, 86.39 -3.07, 83.56 -4.37 C80.73 -5.67, 77.84 -6.36, 70.75 -6.85 C63.65 -7.35, 49.13 -7.26, 40.98 -7.34 C32.84 -7.43, 28.03 -7.94, 21.89 -7.38 C15.75 -6.83, 7.51 -5.43, 4.13 -4.03 C0.76 -2.64, 2.57 0.44, 1.63 0.98 C0.69 1.52, -0.97 -0.9, -1.49 -0.79" stroke="#0a11d3" stroke-width="1" fill="none"></path></g></g><mask></mask><g stroke-linecap="round"><g transform="translate(1718.1703869905014 740.7635875023307) rotate(0 44.15404313987267 4.448651936218255)"><path d="M0.4 0.5 C0.49 1.16, -0.42 3.01, 1.62 4.1 C3.66 5.19, 8.58 6.02, 12.62 7.05 C16.67 8.07, 20.33 9.81, 25.89 10.25 C31.45 10.68, 38.49 9.87, 45.98 9.65 C53.46 9.43, 64.3 10.01, 70.8 8.93 C77.3 7.85, 82.2 4.84, 84.98 3.16 C87.76 1.48, 87.03 -0.45, 87.48 -1.14 M-0.86 -0.28 C-0.47 0.58, 1.82 4.31, 3.97 5.73 C6.11 7.16, 8.28 7.87, 12 8.29 C15.71 8.71, 20.26 7.94, 26.23 8.26 C32.2 8.58, 40.18 10.19, 47.83 10.2 C55.47 10.21, 65.81 9.16, 72.08 8.34 C78.36 7.52, 82.53 7, 85.47 5.3 C88.4 3.6, 89.03 -1.13, 89.68 -1.84" stroke="#0a11d3" stroke-width="1" fill="none"></path></g></g><mask></mask><g stroke-linecap="round"><g transform="translate(1717.0766454784398 707.6894329402589) rotate(0 44.15404313987267 4.448651936218255)"><path d="M-0.7 0.19 C-0.34 0.74, 0.38 2.42, 2.59 3.77 C4.8 5.12, 8.79 7.31, 12.54 8.26 C16.28 9.21, 19.42 9.15, 25.06 9.47 C30.7 9.79, 38.78 10.48, 46.39 10.2 C54 9.91, 64.38 8.99, 70.73 7.76 C77.08 6.52, 81.63 4.26, 84.46 2.8 C87.3 1.34, 86.91 -0.34, 87.72 -1 M1.13 -0.75 C1.32 -0.06, -0.01 4.03, 1.78 5.24 C3.57 6.44, 8 5.57, 11.86 6.49 C15.73 7.41, 18.87 9.97, 24.97 10.73 C31.07 11.49, 40.62 11.73, 48.45 11.03 C56.29 10.34, 65.94 7.59, 71.98 6.54 C78.02 5.5, 81.66 6.11, 84.67 4.75 C87.68 3.39, 89.45 -0.96, 90.04 -1.63" stroke="#0a11d3" stroke-width="1" fill="none"></path></g></g><mask></mask><g stroke-linecap="round" transform="translate(1715.955822792278 667.4487632444464) rotate(0 43.825373054270926 8.863351988406805)"><path d="M38.73 -0.36 C47.55 -0.67, 60.35 0.77, 68.22 1.92 C76.1 3.06, 83.26 4.78, 85.97 6.51 C88.69 8.23, 88.18 10.56, 84.51 12.24 C80.84 13.93, 72.44 15.68, 63.94 16.6 C55.44 17.53, 42.73 18.23, 33.53 17.8 C24.32 17.36, 14.2 15.58, 8.7 13.98 C3.2 12.39, 0.02 10.05, 0.51 8.21 C0.99 6.37, 5.12 4.22, 11.61 2.94 C18.1 1.66, 34.54 0.99, 39.45 0.52 C44.36 0.04, 40.99 0.11, 41.05 0.09 M38.05 -0.47 C47 -0.58, 60.04 1.08, 67.92 2.1 C75.81 3.12, 82.71 3.98, 85.35 5.64 C87.99 7.29, 87.25 10.3, 83.78 12.03 C80.31 13.77, 72.84 15.2, 64.53 16.05 C56.23 16.91, 43.18 17.56, 33.92 17.18 C24.67 16.8, 14.75 15.34, 9.01 13.78 C3.27 12.22, -0.81 9.55, -0.52 7.8 C-0.23 6.04, 4.36 4.47, 10.77 3.24 C17.17 2.02, 33.29 0.91, 37.92 0.43 C42.55 -0.05, 38.56 0.2, 38.57 0.36" stroke="none" stroke-width="0" fill="#fff"></path><path d="M45.57 -0.09 C54.49 -0.12, 66.65 0.93, 73.57 2.16 C80.49 3.39, 85.92 5.44, 87.1 7.3 C88.28 9.17, 85.66 11.59, 80.66 13.33 C75.65 15.07, 65.99 17.02, 57.05 17.72 C48.12 18.42, 35.61 18.25, 27.03 17.53 C18.45 16.81, 9.86 15.1, 5.56 13.42 C1.26 11.74, -0.65 9.28, 1.26 7.43 C3.17 5.58, 9.42 3.54, 17.01 2.31 C24.6 1.07, 41.53 0.28, 46.79 0.01 C52.05 -0.26, 48.61 0.56, 48.57 0.68 M48.49 -0.05 C57.36 -0.02, 68.02 0.66, 74.49 2.08 C80.95 3.5, 86.42 6.55, 87.26 8.46 C88.1 10.37, 84.97 11.99, 79.53 13.54 C74.1 15.09, 63.69 17.21, 54.64 17.74 C45.6 18.28, 33.6 17.71, 25.25 16.74 C16.9 15.77, 8.48 13.5, 4.55 11.92 C0.62 10.33, -0.59 8.97, 1.69 7.24 C3.97 5.51, 10.51 2.64, 18.25 1.54 C25.99 0.44, 43.21 0.96, 48.12 0.64 C53.03 0.33, 47.79 -0.38, 47.71 -0.34" stroke="#0a11d3" stroke-width="1" fill="none"></path></g><g stroke-linecap="round" transform="translate(1787.4655550928587 692.0245661215799) rotate(0 6.423028523489961 6.970952181208077)"><path d="M7.89 0.57 C9.22 0.83, 10.62 1.64, 11.52 2.69 C12.42 3.74, 13.24 5.43, 13.28 6.86 C13.32 8.29, 12.75 10.07, 11.76 11.29 C10.76 12.5, 8.73 13.89, 7.31 14.15 C5.88 14.4, 4.29 13.65, 3.21 12.82 C2.13 12, 1.34 10.55, 0.81 9.2 C0.29 7.85, -0.28 6.02, 0.07 4.73 C0.42 3.43, 1.59 2.18, 2.91 1.41 C4.22 0.63, 7.18 0.31, 7.96 0.05 C8.75 -0.2, 7.71 -0.23, 7.61 -0.14 M5.6 0.94 C6.79 0.52, 8.02 -0.31, 9.03 0.19 C10.04 0.69, 11.03 2.61, 11.67 3.95 C12.32 5.29, 13.26 6.83, 12.88 8.24 C12.5 9.65, 10.61 11.54, 9.39 12.4 C8.17 13.26, 6.93 13.61, 5.57 13.39 C4.22 13.17, 2.28 12.02, 1.25 11.09 C0.22 10.16, -0.59 9.11, -0.59 7.79 C-0.59 6.48, 0.25 4.47, 1.25 3.23 C2.25 1.98, 4.91 0.72, 5.42 0.31 C5.94 -0.1, 4.4 0.68, 4.36 0.77" stroke="none" stroke-width="0" fill="#fff"></path><path d="M5.91 -0.06 C7.15 -0.38, 8.66 -0.05, 9.71 0.73 C10.77 1.51, 11.85 3.05, 12.25 4.6 C12.66 6.15, 12.66 8.54, 12.14 10.04 C11.62 11.54, 10.22 12.9, 9.12 13.59 C8.02 14.29, 6.78 14.52, 5.53 14.2 C4.28 13.87, 2.53 12.84, 1.62 11.66 C0.72 10.49, 0.16 8.7, 0.1 7.14 C0.05 5.57, 0.35 3.38, 1.29 2.27 C2.23 1.15, 4.95 0.84, 5.74 0.46 C6.54 0.07, 5.99 -0.09, 6.06 -0.05 M5.07 -0.47 C6.2 -0.68, 8.35 0.58, 9.58 1.39 C10.8 2.19, 12.02 2.95, 12.43 4.36 C12.83 5.78, 12.5 8.44, 12.01 9.87 C11.53 11.31, 10.61 12.43, 9.54 12.97 C8.47 13.52, 6.95 13.3, 5.62 13.13 C4.28 12.97, 2.56 13.05, 1.53 11.98 C0.5 10.91, -0.63 8.21, -0.56 6.7 C-0.49 5.19, 0.95 4.13, 1.96 2.93 C2.97 1.73, 4.86 -0.03, 5.5 -0.49 C6.13 -0.94, 5.8 0.03, 5.74 0.17" stroke="#0a11d3" stroke-width="1" fill="none"></path></g><g stroke-linecap="round" transform="translate(1787.4655550928587 722.6270199806404) rotate(0 6.423028523489961 6.970952181208077)"><path d="M5.25 0.34 C6.53 -0.14, 8.61 0.05, 9.87 0.68 C11.13 1.32, 12.39 2.72, 12.8 4.17 C13.21 5.63, 12.81 8, 12.32 9.43 C11.83 10.85, 10.91 11.98, 9.85 12.7 C8.79 13.42, 7.39 13.88, 5.97 13.73 C4.55 13.58, 2.38 12.8, 1.33 11.8 C0.29 10.79, -0.34 9.24, -0.31 7.7 C-0.28 6.17, 0.64 3.93, 1.52 2.58 C2.41 1.23, 4.34 0.03, 5 -0.41 C5.65 -0.85, 5.45 -0.3, 5.45 -0.09 M5.05 -0.4 C6.09 -0.9, 7.7 0.01, 8.97 0.72 C10.25 1.44, 12.24 2.51, 12.72 3.88 C13.2 5.26, 12.39 7.53, 11.85 8.96 C11.31 10.39, 10.67 11.77, 9.5 12.47 C8.33 13.16, 6.23 13.23, 4.81 13.12 C3.38 13.02, 1.73 12.79, 0.93 11.83 C0.14 10.87, -0.15 8.91, 0.03 7.38 C0.21 5.84, 1.24 3.77, 2.03 2.63 C2.81 1.49, 4.15 0.94, 4.72 0.55 C5.28 0.15, 5.43 0.25, 5.42 0.25" stroke="none" stroke-width="0" fill="#fff"></path><path d="M5.97 -0.34 C7.16 -0.51, 8.93 0.14, 10.01 1.17 C11.1 2.2, 12.15 4.27, 12.46 5.85 C12.76 7.42, 12.36 9.28, 11.85 10.61 C11.33 11.93, 10.56 13.23, 9.39 13.81 C8.22 14.38, 6.19 14.49, 4.81 14.06 C3.43 13.62, 1.98 12.52, 1.12 11.19 C0.27 9.86, -0.44 7.57, -0.32 6.09 C-0.2 4.6, 0.78 3.35, 1.84 2.3 C2.9 1.25, 5.22 0.17, 6.03 -0.19 C6.85 -0.55, 6.74 -0.11, 6.74 0.11 M6 0.34 C7.36 0.23, 9.25 0.15, 10.31 1.07 C11.36 1.99, 12.03 4.36, 12.34 5.87 C12.65 7.38, 12.67 8.98, 12.16 10.13 C11.66 11.29, 10.57 12.09, 9.31 12.79 C8.04 13.48, 6.04 14.66, 4.56 14.29 C3.07 13.92, 1.09 11.87, 0.39 10.58 C-0.3 9.3, 0.1 8.13, 0.39 6.57 C0.68 5.01, 1.13 2.31, 2.14 1.21 C3.15 0.11, 5.84 0.21, 6.45 -0.04 C7.05 -0.28, 5.87 -0.41, 5.78 -0.24" stroke="#0a11d3" stroke-width="1" fill="none"></path></g><g stroke-linecap="round" transform="translate(1787.4655550928587 755.8878211551371) rotate(0 6.423028523489961 6.970952181208077)"><path d="M8.33 0.06 C9.66 0.23, 11.28 1.35, 11.99 2.62 C12.71 3.89, 12.77 6.18, 12.62 7.67 C12.48 9.16, 11.95 10.56, 11.12 11.57 C10.28 12.58, 9.03 13.52, 7.61 13.75 C6.19 13.98, 3.86 13.67, 2.58 12.96 C1.3 12.24, 0.27 10.94, -0.04 9.46 C-0.36 7.99, 0.16 5.65, 0.68 4.11 C1.21 2.58, 1.94 0.94, 3.13 0.25 C4.33 -0.44, 7.06 -0.07, 7.84 -0.02 C8.62 0.03, 7.85 0.32, 7.81 0.56 M7.37 0.02 C8.74 0.26, 11.1 1.05, 11.9 2.23 C12.71 3.41, 12.38 5.6, 12.2 7.12 C12.03 8.63, 11.8 10.29, 10.86 11.3 C9.92 12.32, 7.98 12.88, 6.54 13.18 C5.1 13.48, 3.27 13.74, 2.23 13.08 C1.18 12.43, 0.46 10.71, 0.28 9.24 C0.09 7.76, 0.65 5.58, 1.11 4.23 C1.58 2.88, 1.91 1.81, 3.07 1.13 C4.24 0.46, 7.43 0.38, 8.12 0.2 C8.81 0.02, 7.27 -0.14, 7.22 0.05" stroke="none" stroke-width="0" fill="#fff"></path><path d="M5.73 -0.23 C7.01 -0.28, 8.89 0.78, 10 1.78 C11.11 2.78, 11.93 4.33, 12.37 5.78 C12.81 7.23, 13.17 9.14, 12.65 10.48 C12.14 11.81, 10.6 13.18, 9.28 13.78 C7.96 14.39, 6.14 14.59, 4.71 14.1 C3.28 13.6, 1.52 12.06, 0.7 10.82 C-0.11 9.57, -0.34 8.15, -0.18 6.64 C-0.01 5.13, 0.57 2.85, 1.69 1.74 C2.8 0.63, 5.74 0.16, 6.52 -0.03 C7.3 -0.22, 6.41 0.53, 6.37 0.6 M5.18 -0.32 C6.43 -0.67, 8.02 0.44, 9.24 1.23 C10.47 2.02, 11.91 3.18, 12.54 4.42 C13.16 5.66, 13.43 7.12, 12.98 8.67 C12.52 10.21, 11.18 12.84, 9.81 13.7 C8.45 14.55, 6.1 14.06, 4.77 13.79 C3.44 13.52, 2.64 13.31, 1.84 12.08 C1.04 10.86, 0.01 8.05, -0.02 6.44 C-0.04 4.84, 0.89 3.59, 1.7 2.47 C2.5 1.35, 4.28 0.05, 4.82 -0.27 C5.36 -0.6, 4.77 0.35, 4.95 0.54" stroke="#0a11d3" stroke-width="1" fill="none"></path></g><g stroke-linecap="round" transform="translate(612.6342102062196 513.1195220947266) rotate(0 75.32723999023438 37.57110595703125)"><path d="M18.79 0 C49.83 0, 80.87 0, 131.87 0 M18.79 0 C46.11 0, 73.43 0, 131.87 0 M131.87 0 C144.39 0, 150.65 6.26, 150.65 18.79 M131.87 0 C144.39 0, 150.65 6.26, 150.65 18.79 M150.65 18.79 C150.65 29.85, 150.65 40.91, 150.65 56.36 M150.65 18.79 C150.65 31.76, 150.65 44.73, 150.65 56.36 M150.65 56.36 C150.65 68.88, 144.39 75.14, 131.87 75.14 M150.65 56.36 C150.65 68.88, 144.39 75.14, 131.87 75.14 M131.87 75.14 C98.18 75.14, 64.5 75.14, 18.79 75.14 M131.87 75.14 C93.59 75.14, 55.31 75.14, 18.79 75.14 M18.79 75.14 C6.26 75.14, 0 68.88, 0 56.36 M18.79 75.14 C6.26 75.14, 0 68.88, 0 56.36 M0 56.36 C0 46.41, 0 36.46, 0 18.79 M0 56.36 C0 43.86, 0 31.35, 0 18.79 M0 18.79 C0 6.26, 6.26 0, 18.79 0 M0 18.79 C0 6.26, 6.26 0, 18.79 0" stroke="#1e1e1e" stroke-width="1" fill="none"></path></g><g stroke-linecap="round" transform="translate(583.0416198741883 535.5661773681641) rotate(0 75.32723999023438 37.57110595703125)"><path d="M18.79 0 C43.27 0, 67.76 0, 131.87 0 C144.39 0, 150.65 6.26, 150.65 18.79 C150.65 30.55, 150.65 42.32, 150.65 56.36 C150.65 68.88, 144.39 75.14, 131.87 75.14 C91.39 75.14, 50.92 75.14, 18.79 75.14 C6.26 75.14, 0 68.88, 0 56.36 C0 48.25, 0 40.15, 0 18.79 C0 6.26, 6.26 0, 18.79 0" stroke="none" stroke-width="0" fill="white"></path><path d="M18.79 0 C44.93 0, 71.07 0, 131.87 0 M18.79 0 C63.39 0, 108 0, 131.87 0 M131.87 0 C144.39 0, 150.65 6.26, 150.65 18.79 M131.87 0 C144.39 0, 150.65 6.26, 150.65 18.79 M150.65 18.79 C150.65 33.49, 150.65 48.19, 150.65 56.36 M150.65 18.79 C150.65 27.88, 150.65 36.97, 150.65 56.36 M150.65 56.36 C150.65 68.88, 144.39 75.14, 131.87 75.14 M150.65 56.36 C150.65 68.88, 144.39 75.14, 131.87 75.14 M131.87 75.14 C94.74 75.14, 57.61 75.14, 18.79 75.14 M131.87 75.14 C97.54 75.14, 63.22 75.14, 18.79 75.14 M18.79 75.14 C6.26 75.14, 0 68.88, 0 56.36 M18.79 75.14 C6.26 75.14, 0 68.88, 0 56.36 M0 56.36 C0 46.15, 0 35.94, 0 18.79 M0 56.36 C0 48.08, 0 39.8, 0 18.79 M0 18.79 C0 6.26, 6.26 0, 18.79 0 M0 18.79 C0 6.26, 6.26 0, 18.79 0" stroke="#1e1e1e" stroke-width="1" fill="none"></path></g><g stroke-linecap="round" transform="translate(561.3994995128602 565.5138092041016) rotate(0 75.32723999023438 37.57110595703125)"><path d="M18.79 0 C50 0, 81.22 0, 131.87 0 C144.39 0, 150.65 6.26, 150.65 18.79 C150.65 32.22, 150.65 45.65, 150.65 56.36 C150.65 68.88, 144.39 75.14, 131.87 75.14 C105.39 75.14, 78.92 75.14, 18.79 75.14 C6.26 75.14, 0 68.88, 0 56.36 C0 46.1, 0 35.85, 0 18.79 C0 6.26, 6.26 0, 18.79 0" stroke="none" stroke-width="0" fill="white"></path><path d="M18.79 0 C47.14 0, 75.49 0, 131.87 0 M18.79 0 C59.04 0, 99.3 0, 131.87 0 M131.87 0 C144.39 0, 150.65 6.26, 150.65 18.79 M131.87 0 C144.39 0, 150.65 6.26, 150.65 18.79 M150.65 18.79 C150.65 27.85, 150.65 36.92, 150.65 56.36 M150.65 18.79 C150.65 31.61, 150.65 44.42, 150.65 56.36 M150.65 56.36 C150.65 68.88, 144.39 75.14, 131.87 75.14 M150.65 56.36 C150.65 68.88, 144.39 75.14, 131.87 75.14 M131.87 75.14 C104.9 75.14, 77.93 75.14, 18.79 75.14 M131.87 75.14 C90.36 75.14, 48.84 75.14, 18.79 75.14 M18.79 75.14 C6.26 75.14, 0 68.88, 0 56.36 M18.79 75.14 C6.26 75.14, 0 68.88, 0 56.36 M0 56.36 C0 43.92, 0 31.49, 0 18.79 M0 56.36 C0 47.13, 0 37.9, 0 18.79 M0 18.79 C0 6.26, 6.26 0, 18.79 0 M0 18.79 C0 6.26, 6.26 0, 18.79 0" stroke="#1e1e1e" stroke-width="1" fill="none"></path></g><g transform="translate(585.2945190441102 579.5446624755859) rotate(0 51.5625 19.19999999999999)"><text x="51.5625" y="0" font-family="Cascadia, Segoe UI Emoji" font-size="16px" fill="#1e1e1e" text-anchor="middle" style="white-space: pre;" direction="ltr" dominant-baseline="text-before-edge">Reporting</text><text x="51.5625" y="19.2" font-family="Cascadia, Segoe UI Emoji" font-size="16px" fill="#1e1e1e" text-anchor="middle" style="white-space: pre;" direction="ltr" dominant-baseline="text-before-edge">Service API</text></g><g stroke-linecap="round"><g transform="translate(391.32798156852425 746.8011474609375) rotate(0 64.08114624023438 -62.988067626953125)"><path d="M0 0 C21.36 -21, 106.8 -104.98, 128.16 -125.98 M0 0 C21.36 -21, 106.8 -104.98, 128.16 -125.98" stroke="#1e1e1e" stroke-width="1" fill="none"></path></g><g transform="translate(391.32798156852425 746.8011474609375) rotate(0 64.08114624023438 -62.988067626953125)"><path d="M117.4 -103.41 C121.61 -112.23, 125.82 -121.06, 128.16 -125.98 M117.4 -103.41 C119.82 -108.49, 122.25 -113.57, 128.16 -125.98" stroke="#1e1e1e" stroke-width="1" fill="none"></path></g><g transform="translate(391.32798156852425 746.8011474609375) rotate(0 64.08114624023438 -62.988067626953125)"><path d="M105.41 -115.61 C114.31 -119.66, 123.2 -123.71, 128.16 -125.98 M105.41 -115.61 C110.54 -117.94, 115.66 -120.28, 128.16 -125.98" stroke="#1e1e1e" stroke-width="1" fill="none"></path></g></g><mask></mask><g stroke-linecap="round"><g transform="translate(1195.7737591402838 702.6612528092288) rotate(0 -203.75718014382585 -64.50659388804297)"><path d="M0 0 C-8.1 -19.23, 19.33 -93.91, -48.59 -115.41 C-116.5 -136.91, -347.69 -126.75, -407.51 -129.01 M0 0 C-8.1 -19.23, 19.33 -93.91, -48.59 -115.41 C-116.5 -136.91, -347.69 -126.75, -407.51 -129.01" stroke="#1e1e1e" stroke-width="1" fill="none"></path></g><g transform="translate(1195.7737591402838 702.6612528092288) rotate(0 -203.75718014382585 -64.50659388804297)"><path d="M-384.03 -137.6 C-393.02 -134.31, -402 -131.03, -407.51 -129.01 M-384.03 -137.6 C-390.07 -135.39, -396.1 -133.18, -407.51 -129.01" stroke="#1e1e1e" stroke-width="1" fill="none"></path></g><g transform="translate(1195.7737591402838 702.6612528092288) rotate(0 -203.75718014382585 -64.50659388804297)"><path d="M-384.01 -120.5 C-393 -123.75, -402 -127.01, -407.51 -129.01 M-384.01 -120.5 C-390.05 -122.68, -396.09 -124.87, -407.51 -129.01" stroke="#1e1e1e" stroke-width="1" fill="none"></path></g></g><mask></mask><g transform="translate(23.299615479657035 908.4135215206841) rotate(0 27.769973754882812 12.5)"><text x="0" y="0" font-family="Virgil, Segoe UI Emoji" font-size="20px" fill="#000000" text-anchor="start" style="white-space: pre;" direction="ltr" dominant-baseline="text-before-edge">Users</text></g><g stroke-linecap="round" transform="translate(63.74243241887652 841.1536781863472) rotate(0 9.875171816384778 8.640775339336699)"><path d="M2.19 3.23 C2.19 3.23, 2.19 3.23, 2.19 3.23 M2.19 3.23 C2.19 3.23, 2.19 3.23, 2.19 3.23 M2.98 14.51 C5.94 11.11, 8.9 7.7, 14.79 0.93 M2.98 14.51 C7.63 9.16, 12.28 3.82, 14.79 0.93 M10.33 18.25 C13.34 14.78, 16.36 11.31, 19.51 7.69 M10.33 18.25 C13.12 15.05, 15.9 11.84, 19.51 7.69 M3.77 15.47 C3.77 15.47, 3.77 15.47, 3.77 15.47 M3.77 15.47 C3.77 15.47, 3.77 15.47, 3.77 15.47 M15.81 15.34 C12.03 12.05, 8.25 8.76, 2.23 3.53 M15.81 15.34 C12.73 12.66, 9.65 9.98, 2.23 3.53 M20.31 8.65 C16.74 5.55, 13.17 2.45, 9.74 -0.54 M20.31 8.65 C18.16 6.78, 16.01 4.91, 9.74 -0.54" stroke="#ced4da" stroke-width="1" fill="none"></path><path d="M19.75 8.64 C19.75 9.14, 19.7 9.65, 19.6 10.14 C19.5 10.63, 19.35 11.13, 19.15 11.6 C18.96 12.07, 18.71 12.53, 18.43 12.96 C18.14 13.39, 17.81 13.81, 17.44 14.19 C17.07 14.58, 16.66 14.94, 16.22 15.26 C15.78 15.58, 15.31 15.87, 14.81 16.12 C14.32 16.37, 13.79 16.59, 13.25 16.76 C12.72 16.93, 12.15 17.06, 11.59 17.15 C11.03 17.24, 10.45 17.28, 9.88 17.28 C9.3 17.28, 8.72 17.24, 8.16 17.15 C7.6 17.06, 7.03 16.93, 6.5 16.76 C5.96 16.59, 5.43 16.37, 4.94 16.12 C4.44 15.87, 3.97 15.58, 3.53 15.26 C3.09 14.94, 2.68 14.58, 2.31 14.19 C1.94 13.81, 1.61 13.39, 1.32 12.96 C1.04 12.53, 0.79 12.07, 0.6 11.6 C0.4 11.13, 0.25 10.63, 0.15 10.14 C0.05 9.65, 0 9.14, 0 8.64 C0 8.14, 0.05 7.63, 0.15 7.14 C0.25 6.65, 0.4 6.16, 0.6 5.69 C0.79 5.22, 1.04 4.75, 1.32 4.32 C1.61 3.89, 1.94 3.47, 2.31 3.09 C2.68 2.7, 3.09 2.34, 3.53 2.02 C3.97 1.7, 4.44 1.41, 4.94 1.16 C5.43 0.91, 5.96 0.69, 6.5 0.52 C7.03 0.35, 7.6 0.22, 8.16 0.13 C8.72 0.04, 9.3 0, 9.88 0 C10.45 0, 11.03 0.04, 11.59 0.13 C12.15 0.22, 12.72 0.35, 13.25 0.52 C13.79 0.69, 14.32 0.91, 14.81 1.16 C15.31 1.41, 15.78 1.7, 16.22 2.02 C16.66 2.34, 17.07 2.7, 17.44 3.09 C17.81 3.47, 18.14 3.89, 18.43 4.32 C18.71 4.75, 18.96 5.22, 19.15 5.69 C19.35 6.16, 19.5 6.65, 19.6 7.14 C19.7 7.63, 19.73 8.39, 19.75 8.64 C19.78 8.89, 19.78 8.39, 19.75 8.64" stroke="#000000" stroke-width="2" fill="none"></path></g><g stroke-linecap="round" transform="translate(20.55875829455462 841.7367459699813) rotate(0 9.875171816384778 8.640775339336699)"><path d="M2.19 3.23 C2.19 3.23, 2.19 3.23, 2.19 3.23 M2.19 3.23 C2.19 3.23, 2.19 3.23, 2.19 3.23 M2.98 14.51 C6.66 10.28, 10.33 6.05, 14.79 0.93 M2.98 14.51 C6.45 10.52, 9.91 6.53, 14.79 0.93 M10.33 18.25 C12.52 15.73, 14.71 13.21, 19.51 7.69 M10.33 18.25 C13.7 14.37, 17.07 10.49, 19.51 7.69 M3.77 15.47 C3.77 15.47, 3.77 15.47, 3.77 15.47 M3.77 15.47 C3.77 15.47, 3.77 15.47, 3.77 15.47 M15.81 15.34 C13.1 12.98, 10.38 10.62, 2.23 3.53 M15.81 15.34 C10.41 10.64, 5 5.94, 2.23 3.53 M20.31 8.65 C18.02 6.66, 15.73 4.67, 9.74 -0.54 M20.31 8.65 C16.67 5.48, 13.02 2.31, 9.74 -0.54" stroke="#ced4da" stroke-width="1" fill="none"></path><path d="M19.75 8.64 C19.75 9.14, 19.7 9.65, 19.6 10.14 C19.5 10.63, 19.35 11.13, 19.15 11.6 C18.96 12.07, 18.71 12.53, 18.43 12.96 C18.14 13.39, 17.81 13.81, 17.44 14.19 C17.07 14.58, 16.66 14.94, 16.22 15.26 C15.78 15.58, 15.31 15.87, 14.81 16.12 C14.32 16.37, 13.79 16.59, 13.25 16.76 C12.72 16.93, 12.15 17.06, 11.59 17.15 C11.03 17.24, 10.45 17.28, 9.88 17.28 C9.3 17.28, 8.72 17.24, 8.16 17.15 C7.6 17.06, 7.03 16.93, 6.5 16.76 C5.96 16.59, 5.43 16.37, 4.94 16.12 C4.44 15.87, 3.97 15.58, 3.53 15.26 C3.09 14.94, 2.68 14.58, 2.31 14.19 C1.94 13.81, 1.61 13.39, 1.32 12.96 C1.04 12.53, 0.79 12.07, 0.6 11.6 C0.4 11.13, 0.25 10.63, 0.15 10.14 C0.05 9.65, 0 9.14, 0 8.64 C0 8.14, 0.05 7.63, 0.15 7.14 C0.25 6.65, 0.4 6.16, 0.6 5.69 C0.79 5.22, 1.04 4.75, 1.32 4.32 C1.61 3.89, 1.94 3.47, 2.31 3.09 C2.68 2.7, 3.09 2.34, 3.53 2.02 C3.97 1.7, 4.44 1.41, 4.94 1.16 C5.43 0.91, 5.96 0.69, 6.5 0.52 C7.03 0.35, 7.6 0.22, 8.16 0.13 C8.72 0.04, 9.3 0, 9.88 0 C10.45 0, 11.03 0.04, 11.59 0.13 C12.15 0.22, 12.72 0.35, 13.25 0.52 C13.79 0.69, 14.32 0.91, 14.81 1.16 C15.31 1.41, 15.78 1.7, 16.22 2.02 C16.66 2.34, 17.07 2.7, 17.44 3.09 C17.81 3.47, 18.14 3.89, 18.43 4.32 C18.71 4.75, 18.96 5.22, 19.15 5.69 C19.35 6.16, 19.5 6.65, 19.6 7.14 C19.7 7.63, 19.73 8.39, 19.75 8.64 C19.78 8.89, 19.78 8.39, 19.75 8.64" stroke="#000000" stroke-width="2" fill="none"></path></g><g stroke-linecap="round"><g transform="translate(31.01057830181898 900.6677817076309) rotate(0 20.903001066267336 -18.613522148782124)" fill-rule="evenodd"><path d="M11.93 -33.36 C11.93 -33.36, 11.93 -33.36, 11.93 -33.36 M11.93 -33.36 C11.93 -33.36, 11.93 -33.36, 11.93 -33.36 M1.56 -9.24 C7.19 -15.72, 12.83 -22.2, 25.18 -36.41 M1.56 -9.24 C10.23 -19.22, 18.9 -29.19, 25.18 -36.41 M4.32 -0.22 C11.43 -8.4, 18.55 -16.59, 31.22 -31.16 M4.32 -0.22 C10.65 -7.51, 16.99 -14.79, 31.22 -31.16 M14.95 -0.26 C19.28 -5.24, 23.61 -10.22, 36.6 -25.16 M14.95 -0.26 C23.57 -10.17, 32.18 -20.08, 36.6 -25.16 M25.58 -0.29 C28.85 -4.05, 32.11 -7.81, 40.67 -17.65 M25.58 -0.29 C30.78 -6.27, 35.98 -12.26, 40.67 -17.65 M36.21 -0.32 C38.71 -3.21, 41.22 -6.09, 44.08 -9.38 M36.21 -0.32 C38.84 -3.35, 41.48 -6.38, 44.08 -9.38 M0 0 C0 0, 0 0, 0 0 M0 0 C0 0, 0 0, 0 0 M12.04 -0.13 C9 -2.78, 5.96 -5.42, 1.47 -9.32 M12.04 -0.13 C8.97 -2.81, 5.89 -5.48, 1.47 -9.32 M24.08 -0.27 C16.16 -7.15, 8.25 -14.03, 2.95 -18.64 M24.08 -0.27 C19.37 -4.36, 14.66 -8.45, 2.95 -18.64 M35.37 -1.06 C28.66 -6.88, 21.96 -12.71, 5.93 -26.64 M35.37 -1.06 C24.07 -10.88, 12.77 -20.7, 5.93 -26.64 M42.88 -5.12 C30.43 -15.95, 17.97 -26.78, 11.18 -32.68 M42.88 -5.12 C34.99 -11.99, 27.09 -18.85, 11.18 -32.68 M41.34 -17.07 C32.74 -24.54, 24.14 -32.02, 18.7 -36.75 M41.34 -17.07 C36.11 -21.61, 30.88 -26.16, 18.7 -36.75" stroke="#ced4da" stroke-width="1" fill="none"></path><path d="M0 0 C0.78 -4.11, 1.34 -18.46, 4.68 -24.67 C8.03 -30.87, 14.94 -36.78, 20.07 -37.23 C25.2 -37.68, 31.83 -33.14, 35.45 -27.36 C39.07 -21.58, 47.71 -7.12, 41.81 -2.56 C35.9 2, 6.97 -0.43, 0 0 M0 0 C0.78 -4.11, 1.34 -18.46, 4.68 -24.67 C8.03 -30.87, 14.94 -36.78, 20.07 -37.23 C25.2 -37.68, 31.83 -33.14, 35.45 -27.36 C39.07 -21.58, 47.71 -7.12, 41.81 -2.56 C35.9 2, 6.97 -0.43, 0 0" stroke="#000000" stroke-width="2" fill="none"></path></g></g><mask></mask><g stroke-linecap="round" transform="translate(41.496700452628914 844.0932703877938) rotate(0 10.702336545928873 9.364544477687787)"><path d="M2.43 3.43 C2.43 3.43, 2.43 3.43, 2.43 3.43 M2.43 3.43 C2.43 3.43, 2.43 3.43, 2.43 3.43 M2.56 15.48 C6.56 10.88, 10.56 6.28, 15.02 1.14 M2.56 15.48 C5.38 12.24, 8.19 9, 15.02 1.14 M10.57 18.46 C14.46 13.98, 18.35 9.5, 21.06 6.38 M10.57 18.46 C14.63 13.78, 18.7 9.11, 21.06 6.38 M4.02 16.71 C4.02 16.71, 4.02 16.71, 4.02 16.71 M4.02 16.71 C4.02 16.71, 4.02 16.71, 4.02 16.71 M16.82 17.23 C11.97 13.02, 7.11 8.8, 1.72 4.11 M16.82 17.23 C12.66 13.62, 8.5 10, 1.72 4.11 M21.31 10.54 C18.58 8.16, 15.85 5.79, 9.24 0.04 M21.31 10.54 C17.53 7.25, 13.75 3.96, 9.24 0.04" stroke="#ced4da" stroke-width="1" fill="none"></path><path d="M21.4 9.36 C21.4 9.91, 21.35 10.46, 21.24 10.99 C21.13 11.52, 20.97 12.06, 20.76 12.57 C20.55 13.08, 20.28 13.58, 19.97 14.05 C19.66 14.52, 19.3 14.97, 18.9 15.38 C18.5 15.8, 18.06 16.19, 17.58 16.54 C17.11 16.89, 16.59 17.2, 16.05 17.47 C15.52 17.75, 14.94 17.98, 14.36 18.16 C13.78 18.35, 13.17 18.49, 12.56 18.59 C11.95 18.68, 11.32 18.73, 10.7 18.73 C10.08 18.73, 9.45 18.68, 8.84 18.59 C8.23 18.49, 7.62 18.35, 7.04 18.16 C6.46 17.98, 5.89 17.75, 5.35 17.47 C4.81 17.2, 4.3 16.89, 3.82 16.54 C3.35 16.19, 2.9 15.8, 2.5 15.38 C2.11 14.97, 1.74 14.52, 1.43 14.05 C1.12 13.58, 0.86 13.08, 0.65 12.57 C0.43 12.06, 0.27 11.52, 0.16 10.99 C0.06 10.46, 0 9.91, 0 9.36 C0 8.82, 0.06 8.27, 0.16 7.74 C0.27 7.2, 0.43 6.67, 0.65 6.16 C0.86 5.65, 1.12 5.15, 1.43 4.68 C1.74 4.21, 2.11 3.76, 2.5 3.35 C2.9 2.93, 3.35 2.54, 3.82 2.19 C4.3 1.84, 4.81 1.53, 5.35 1.25 C5.89 0.98, 6.46 0.75, 7.04 0.56 C7.62 0.38, 8.23 0.24, 8.84 0.14 C9.45 0.05, 10.08 0, 10.7 0 C11.32 0, 11.95 0.05, 12.56 0.14 C13.17 0.24, 13.78 0.38, 14.36 0.56 C14.94 0.75, 15.52 0.98, 16.05 1.25 C16.59 1.53, 17.11 1.84, 17.58 2.19 C18.06 2.54, 18.5 2.93, 18.9 3.35 C19.3 3.76, 19.66 4.21, 19.97 4.68 C20.28 5.15, 20.55 5.65, 20.76 6.16 C20.97 6.67, 21.13 7.2, 21.24 7.74 C21.35 8.27, 21.38 9.09, 21.4 9.36 C21.43 9.64, 21.43 9.09, 21.4 9.36" stroke="#000000" stroke-width="2" fill="none"></path></g><g stroke-linecap="round"><g transform="translate(60.161913756269854 866.9987170225779) rotate(0 16.71865860152218 9.951582500906)" fill-rule="evenodd"><path d="M0 0 C0 0, 0 0, 0 0 M0 0 C0 0, 0 0, 0 0 M6.04 5.25 C9.83 0.88, 13.63 -3.49, 17.85 -8.34 M6.04 5.25 C9.29 1.51, 12.55 -2.24, 17.85 -8.34 M10.11 12.76 C13.52 8.83, 16.94 4.9, 25.2 -4.6 M10.11 12.76 C14.83 7.32, 19.56 1.89, 25.2 -4.6 M14.18 20.27 C18.77 14.99, 23.35 9.72, 29.27 2.92 M14.18 20.27 C17.29 16.7, 20.39 13.12, 29.27 2.92 M17.59 28.54 C21.78 23.72, 25.97 18.9, 32.02 11.94 M17.59 28.54 C21.27 24.31, 24.94 20.08, 32.02 11.94 M29.53 27 C30.46 25.93, 31.4 24.85, 34.12 21.71 M29.53 27 C30.81 25.52, 32.1 24.05, 34.12 21.71 M14.43 27.6 C14.43 27.6, 14.43 27.6, 14.43 27.6 M14.43 27.6 C14.43 27.6, 14.43 27.6, 14.43 27.6 M26.47 27.47 C22.73 24.22, 18.98 20.96, 9.87 13.04 M26.47 27.47 C21.53 23.18, 16.59 18.89, 9.87 13.04 M33.23 22.75 C26.22 16.66, 19.22 10.57, 3.04 -3.5 M33.23 22.75 C23.33 14.14, 13.42 5.53, 3.04 -3.5 M31.68 10.8 C27.25 6.95, 22.81 3.09, 9.8 -8.22 M31.68 10.8 C25.9 5.78, 20.12 0.75, 9.8 -8.22" stroke="#ced4da" stroke-width="1" fill="none"></path><path d="M0 0 C0.86 -0.93, 3.58 -4.18, 5.17 -5.57 C6.77 -6.97, 7.56 -7.83, 9.55 -8.36 C11.54 -8.89, 14.99 -8.89, 17.12 -8.76 C19.24 -8.62, 20.83 -8.43, 22.29 -7.56 C23.75 -6.7, 24.88 -5.11, 25.87 -3.58 C26.87 -2.06, 27.47 -0.33, 28.26 1.59 C29.06 3.52, 29.92 5.84, 30.65 7.96 C31.38 10.08, 32.18 12.41, 32.64 14.33 C33.11 16.25, 33.44 17.78, 33.44 19.51 C33.44 21.23, 33.3 23.42, 32.64 24.68 C31.98 25.94, 30.72 26.47, 29.46 27.07 C28.2 27.67, 26.87 28, 25.08 28.26 C23.29 28.53, 20.43 28.73, 18.71 28.66 C16.98 28.59, 15.46 28.93, 14.73 27.86 C14 26.8, 14.66 23.82, 14.33 22.29 C14 20.77, 13.47 20.23, 12.74 18.71 C12.01 17.18, 11.08 15.33, 9.95 13.14 C8.82 10.95, 7.63 7.76, 5.97 5.57 C4.31 3.38, 1 0.93, 0 0 M0 0 C0.86 -0.93, 3.58 -4.18, 5.17 -5.57 C6.77 -6.97, 7.56 -7.83, 9.55 -8.36 C11.54 -8.89, 14.99 -8.89, 17.12 -8.76 C19.24 -8.62, 20.83 -8.43, 22.29 -7.56 C23.75 -6.7, 24.88 -5.11, 25.87 -3.58 C26.87 -2.06, 27.47 -0.33, 28.26 1.59 C29.06 3.52, 29.92 5.84, 30.65 7.96 C31.38 10.08, 32.18 12.41, 32.64 14.33 C33.11 16.25, 33.44 17.78, 33.44 19.51 C33.44 21.23, 33.3 23.42, 32.64 24.68 C31.98 25.94, 30.72 26.47, 29.46 27.07 C28.2 27.67, 26.87 28, 25.08 28.26 C23.29 28.53, 20.43 28.73, 18.71 28.66 C16.98 28.59, 15.46 28.93, 14.73 27.86 C14 26.8, 14.66 23.82, 14.33 22.29 C14 20.77, 13.47 20.23, 12.74 18.71 C12.01 17.18, 11.08 15.33, 9.95 13.14 C8.82 10.95, 7.63 7.76, 5.97 5.57 C4.31 3.38, 1 0.93, 0 0" stroke="#000000" stroke-width="2" fill="none"></path></g></g><mask></mask><g stroke-linecap="round"><g transform="translate(42.243127302935676 866.9868411191735) rotate(0 -16.121563651467838 11.941899001087336)" fill-rule="evenodd"><path d="M-24.42 -2.68 C-24.42 -2.68, -24.42 -2.68, -24.42 -2.68 M-24.42 -2.68 C-24.42 -2.68, -24.42 -2.68, -24.42 -2.68 M-31.51 17.66 C-23.16 8.05, -14.81 -1.55, -10.51 -6.49 M-31.51 17.66 C-27.03 12.51, -22.55 7.36, -10.51 -6.49 M-29.41 27.44 C-23.5 20.64, -17.59 13.84, -2.51 -3.51 M-29.41 27.44 C-19.79 16.37, -10.17 5.31, -2.51 -3.51 M-22.06 31.18 C-17.16 25.55, -12.27 19.92, -8.28 15.33 M-22.06 31.18 C-17.84 26.33, -13.63 21.48, -8.28 15.33 M-12.08 31.9 C-11.71 31.47, -11.33 31.03, -10.77 30.39 M-12.08 31.9 C-11.62 31.37, -11.17 30.84, -10.77 30.39 M-31.63 25.72 C-31.63 25.72, -31.63 25.72, -31.63 25.72 M-31.63 25.72 C-31.63 25.72, -31.63 25.72, -31.63 25.72 M-12.8 31.49 C-18.42 26.6, -24.04 21.72, -30.91 15.74 M-12.8 31.49 C-17.14 27.71, -21.49 23.93, -30.91 15.74 M-9.06 24.14 C-15.61 18.44, -22.17 12.74, -28.68 7.08 M-9.06 24.14 C-14.15 19.71, -19.25 15.28, -28.68 7.08 M-8.34 14.16 C-12.8 10.29, -17.26 6.41, -25.7 -0.93 M-8.34 14.16 C-14.85 8.5, -21.37 2.83, -25.7 -0.93 M-4.6 6.81 C-8.69 3.25, -12.79 -0.31, -20.45 -6.96 M-4.6 6.81 C-8.37 3.54, -12.13 0.26, -20.45 -6.96 M-0.1 0.12 C-2.94 -2.35, -5.78 -4.81, -9.16 -7.75 M-0.1 0.12 C-2.85 -2.27, -5.6 -4.66, -9.16 -7.75" stroke="#ced4da" stroke-width="1" fill="none"></path><path d="M0 0 C-0.66 -0.73, -2.59 -3.18, -3.98 -4.38 C-5.37 -5.57, -6.37 -6.63, -8.36 -7.17 C-10.35 -7.7, -13.8 -7.7, -15.92 -7.56 C-18.05 -7.43, -19.64 -7.23, -21.1 -6.37 C-22.56 -5.51, -23.68 -3.91, -24.68 -2.39 C-25.68 -0.86, -26.27 0.86, -27.07 2.79 C-27.86 4.71, -28.73 7.03, -29.46 9.16 C-30.19 11.28, -30.98 13.6, -31.45 15.52 C-31.91 17.45, -32.24 18.97, -32.24 20.7 C-32.24 22.42, -32.11 24.61, -31.45 25.87 C-30.78 27.13, -29.46 27.53, -28.26 28.26 C-27.07 28.99, -26.01 29.72, -24.28 30.25 C-22.56 30.78, -20.1 31.25, -17.91 31.45 C-15.72 31.65, -12.41 32.64, -11.15 31.45 C-9.89 30.25, -10.62 26.07, -10.35 24.28 C-10.08 22.49, -9.89 22.29, -9.55 20.7 C-9.22 19.11, -9.16 17.05, -8.36 14.73 C-7.56 12.41, -6.17 9.22, -4.78 6.77 C-3.38 4.31, -0.8 1.13, 0 0 M0 0 C-0.66 -0.73, -2.59 -3.18, -3.98 -4.38 C-5.37 -5.57, -6.37 -6.63, -8.36 -7.17 C-10.35 -7.7, -13.8 -7.7, -15.92 -7.56 C-18.05 -7.43, -19.64 -7.23, -21.1 -6.37 C-22.56 -5.51, -23.68 -3.91, -24.68 -2.39 C-25.68 -0.86, -26.27 0.86, -27.07 2.79 C-27.86 4.71, -28.73 7.03, -29.46 9.16 C-30.19 11.28, -30.98 13.6, -31.45 15.52 C-31.91 17.45, -32.24 18.97, -32.24 20.7 C-32.24 22.42, -32.11 24.61, -31.45 25.87 C-30.78 27.13, -29.46 27.53, -28.26 28.26 C-27.07 28.99, -26.01 29.72, -24.28 30.25 C-22.56 30.78, -20.1 31.25, -17.91 31.45 C-15.72 31.65, -12.41 32.64, -11.15 31.45 C-9.89 30.25, -10.62 26.07, -10.35 24.28 C-10.08 22.49, -9.89 22.29, -9.55 20.7 C-9.22 19.11, -9.16 17.05, -8.36 14.73 C-7.56 12.41, -6.17 9.22, -4.78 6.77 C-3.38 4.31, -0.8 1.13, 0 0" stroke="#000000" stroke-width="2" fill="none"></path></g></g><mask></mask><g stroke-linecap="round"><g transform="translate(99.83945617789922 588.6145935058594) rotate(0 76.01632690429688 73.81280517578125)"><path d="M0 0 C25.34 24.6, 126.69 123.02, 152.03 147.63 M0 0 C25.34 24.6, 126.69 123.02, 152.03 147.63" stroke="#1e1e1e" stroke-width="1" fill="none"></path></g><g transform="translate(99.83945617789922 588.6145935058594) rotate(0 76.01632690429688 73.81280517578125)"><path d="M129.22 137.39 C134.73 139.86, 140.23 142.33, 152.03 147.63 M129.22 137.39 C137.01 140.89, 144.79 144.38, 152.03 147.63" stroke="#1e1e1e" stroke-width="1" fill="none"></path></g><g transform="translate(99.83945617789922 588.6145935058594) rotate(0 76.01632690429688 73.81280517578125)"><path d="M141.14 125.13 C143.76 130.56, 146.39 135.98, 152.03 147.63 M141.14 125.13 C144.85 132.8, 148.57 140.48, 152.03 147.63" stroke="#1e1e1e" stroke-width="1" fill="none"></path></g></g><mask></mask><g transform="translate(1717.5427986824482 625.162543645481) rotate(0 42.1875 9.600000000000023)"><text x="42.1875" y="0" font-family="Cascadia, Segoe UI Emoji" font-size="16px" fill="#1e1e1e" text-anchor="middle" style="white-space: pre;" direction="ltr" dominant-baseline="text-before-edge">Cassandra</text></g><g transform="translate(1857.3130028026112 665.3053667846472) rotate(0 98.43750000000011 67.19999999999999)"><text x="0" y="0" font-family="Cascadia, Segoe UI Emoji" font-size="16px" fill="#1e1e1e" text-anchor="start" style="white-space: pre;" direction="ltr" dominant-baseline="text-before-edge">{</text><text x="0" y="19.2" font-family="Cascadia, Segoe UI Emoji" font-size="16px" fill="#1e1e1e" text-anchor="start" style="white-space: pre;" direction="ltr" dominant-baseline="text-before-edge"> userID: abc</text><text x="0" y="38.4" font-family="Cascadia, Segoe UI Emoji" font-size="16px" fill="#1e1e1e" text-anchor="start" style="white-space: pre;" direction="ltr" dominant-baseline="text-before-edge"> streamID: bcd</text><text x="0" y="57.599999999999994" font-family="Cascadia, Segoe UI Emoji" font-size="16px" fill="#1e1e1e" text-anchor="start" style="white-space: pre;" direction="ltr" dominant-baseline="text-before-edge"> device_type: feg</text><text x="0" y="76.8" font-family="Cascadia, Segoe UI Emoji" font-size="16px" fill="#1e1e1e" text-anchor="start" style="white-space: pre;" direction="ltr" dominant-baseline="text-before-edge"> geo: TX </text><text x="0" y="96" font-family="Cascadia, Segoe UI Emoji" font-size="16px" fill="#1e1e1e" text-anchor="start" style="white-space: pre;" direction="ltr" dominant-baseline="text-before-edge"> timestamp: 123456789</text><text x="0" y="115.19999999999999" font-family="Cascadia, Segoe UI Emoji" font-size="16px" fill="#1e1e1e" text-anchor="start" style="white-space: pre;" direction="ltr" dominant-baseline="text-before-edge">}</text></g><g stroke-linecap="round"><g transform="translate(1083.2698150646183 976.8914489746094) rotate(0 153.4470636894448 -5.681400528740937)"><path d="M0 0 C17.38 -1.6, 53.14 -7.72, 104.28 -9.61 C155.43 -11.5, 273.13 -11.07, 306.89 -11.36 M0 0 C17.38 -1.6, 53.14 -7.72, 104.28 -9.61 C155.43 -11.5, 273.13 -11.07, 306.89 -11.36" stroke="#1e1e1e" stroke-width="1" fill="none"></path></g><g transform="translate(1083.2698150646183 976.8914489746094) rotate(0 153.4470636894448 -5.681400528740937)"><path d="M283.43 -2.74 C289.31 -4.9, 295.19 -7.06, 306.89 -11.36 M283.43 -2.74 C292.67 -6.14, 301.91 -9.53, 306.89 -11.36" stroke="#1e1e1e" stroke-width="1" fill="none"></path></g><g transform="translate(1083.2698150646183 976.8914489746094) rotate(0 153.4470636894448 -5.681400528740937)"><path d="M283.38 -19.84 C289.27 -17.72, 295.17 -15.59, 306.89 -11.36 M283.38 -19.84 C292.64 -16.5, 301.9 -13.16, 306.89 -11.36" stroke="#1e1e1e" stroke-width="1" fill="none"></path></g></g><mask></mask><g transform="translate(956.712388157181 597.5160886441932) rotate(0 89.0625 38.39999999999998)"><text x="0" y="0" font-family="Cascadia, Segoe UI Emoji" font-size="16px" fill="#1e1e1e" text-anchor="start" style="white-space: pre;" direction="ltr" dominant-baseline="text-before-edge">show current</text><text x="0" y="19.2" font-family="Cascadia, Segoe UI Emoji" font-size="16px" fill="#1e1e1e" text-anchor="start" style="white-space: pre;" direction="ltr" dominant-baseline="text-before-edge">online user</text><text x="0" y="38.4" font-family="Cascadia, Segoe UI Emoji" font-size="16px" fill="#1e1e1e" text-anchor="start" style="white-space: pre;" direction="ltr" dominant-baseline="text-before-edge">SQL API</text><text x="0" y="57.599999999999994" font-family="Cascadia, Segoe UI Emoji" font-size="16px" fill="#1e1e1e" text-anchor="start" style="white-space: pre;" direction="ltr" dominant-baseline="text-before-edge">slide windows 5 min</text></g><g transform="translate(750.418008423993 1015.6269348144533) rotate(0 98.4375 67.20000000000005)"><text x="0" y="0" font-family="Cascadia, Segoe UI Emoji" font-size="16px" fill="#1e1e1e" text-anchor="start" style="white-space: pre;" direction="ltr" dominant-baseline="text-before-edge">{</text><text x="0" y="19.2" font-family="Cascadia, Segoe UI Emoji" font-size="16px" fill="#1e1e1e" text-anchor="start" style="white-space: pre;" direction="ltr" dominant-baseline="text-before-edge"> userID: abc</text><text x="0" y="38.4" font-family="Cascadia, Segoe UI Emoji" font-size="16px" fill="#1e1e1e" text-anchor="start" style="white-space: pre;" direction="ltr" dominant-baseline="text-before-edge"> streamID: bcd</text><text x="0" y="57.599999999999994" font-family="Cascadia, Segoe UI Emoji" font-size="16px" fill="#1e1e1e" text-anchor="start" style="white-space: pre;" direction="ltr" dominant-baseline="text-before-edge"> device_type: feg</text><text x="0" y="76.8" font-family="Cascadia, Segoe UI Emoji" font-size="16px" fill="#1e1e1e" text-anchor="start" style="white-space: pre;" direction="ltr" dominant-baseline="text-before-edge"> geo: TX </text><text x="0" y="96" font-family="Cascadia, Segoe UI Emoji" font-size="16px" fill="#1e1e1e" text-anchor="start" style="white-space: pre;" direction="ltr" dominant-baseline="text-before-edge"> timestamp: 123456789</text><text x="0" y="115.19999999999999" font-family="Cascadia, Segoe UI Emoji" font-size="16px" fill="#1e1e1e" text-anchor="start" style="white-space: pre;" direction="ltr" dominant-baseline="text-before-edge">}</text></g><g stroke-linecap="round"><g transform="translate(676.6214276689954 269.93389559284424) rotate(0 25.682475716429394 27.892456872483365)" fill-rule="evenodd"><path d="M2.39 2.4 C2.22 10.78, 0.22 39.66, -0.51 48.47 C-1.24 57.28, -2.68 53.98, -2 55.27 C-1.32 56.56, 1.6 55.54, 3.57 56.22 C5.54 56.89, 5.93 58.76, 9.8 59.29 C13.67 59.83, 21.69 59.67, 26.8 59.4 C31.9 59.13, 36.87 57.8, 40.43 57.67 C43.99 57.55, 46.34 58.83, 48.16 58.65 C49.97 58.47, 50.49 57.85, 51.33 56.61 C52.17 55.36, 53.51 59.69, 53.21 51.19 C52.9 42.69, 49.81 14.18, 49.51 5.62 C49.22 -2.95, 52.14 1.32, 51.44 -0.22 C50.74 -1.76, 47.09 -3.24, 45.32 -3.62 C43.56 -3.99, 44.02 -2.33, 40.84 -2.47 C37.66 -2.61, 30.78 -4.42, 26.25 -4.45 C21.71 -4.47, 17.89 -2.63, 13.61 -2.63 C9.33 -2.63, 2.54 -4.91, 0.59 -4.45 C-1.36 -3.99, 1.94 -0.85, 1.9 0.12 C1.86 1.08, 0.89 1.33, 0.33 1.37" stroke="none" stroke-width="0" fill="#228be6" fill-rule="evenodd"></path><path d="M-0.9 -0.08 C-0.83 8.26, 0.53 41.96, 0.68 51.13 C0.83 60.31, -0.4 53.79, -0.02 54.98 C0.37 56.17, 1.13 57.47, 2.99 58.28 C4.84 59.08, 7.13 59.27, 11.11 59.81 C15.08 60.35, 21.49 61.49, 26.82 61.54 C32.15 61.58, 39.37 60.61, 43.08 60.08 C46.8 59.55, 47.57 59.06, 49.11 58.36 C50.66 57.66, 51.89 56.94, 52.35 55.87 C52.8 54.79, 52.08 60.35, 51.85 51.91 C51.62 43.47, 51.18 14, 50.96 5.23 C50.75 -3.54, 50.99 0.59, 50.57 -0.71 C50.15 -2.02, 50.14 -2.24, 48.43 -2.63 C46.72 -3.02, 44.3 -2.48, 40.32 -3.05 C36.34 -3.63, 29.18 -5.68, 24.55 -6.06 C19.93 -6.45, 16.1 -6.05, 12.56 -5.34 C9.03 -4.62, 5.5 -2.48, 3.36 -1.75 C1.21 -1.03, 0.47 -1.17, -0.29 -0.99 C-1.04 -0.8, -1.14 -0.62, -1.2 -0.65 M0.82 -1.16 C0.76 7.36, 0.27 40.02, 0 49.52 C-0.27 59.02, -1.37 54.19, -0.8 55.83 C-0.23 57.47, 1.13 58.67, 3.41 59.35 C5.7 60.02, 8.82 59.64, 12.91 59.88 C16.99 60.11, 23.34 60.93, 27.94 60.74 C32.54 60.55, 36.63 59.14, 40.51 58.76 C44.39 58.37, 49.43 59.12, 51.22 58.44 C53.01 57.77, 50.98 55.77, 51.26 54.7 C51.53 53.63, 52.87 60.61, 52.85 52.01 C52.83 43.41, 51.17 11.99, 51.12 3.09 C51.08 -5.82, 52.94 -0.32, 52.59 -1.41 C52.25 -2.5, 51.25 -3.22, 49.05 -3.44 C46.85 -3.65, 43.45 -2.1, 39.39 -2.7 C35.33 -3.3, 28.97 -6.73, 24.71 -7.03 C20.44 -7.33, 17.46 -5.52, 13.79 -4.48 C10.13 -3.45, 5.29 -1.36, 2.71 -0.8 C0.12 -0.24, -1.33 -1.13, -1.71 -1.12 C-2.08 -1.11, 0.24 -0.94, 0.44 -0.74" stroke="#0a11d3" stroke-width="1" fill="none"></path></g></g><mask></mask><g stroke-linecap="round"><g transform="translate(677.0220838136844 307.9908533611829) rotate(0 25.736946851799132 2.5930743891766497)"><path d="M0.51 0.97 C0.88 1.22, 0.16 0.86, 1.33 1.39 C2.5 1.91, 5.39 3.57, 7.54 4.13 C9.7 4.68, 11.07 4.43, 14.25 4.73 C17.43 5.02, 21.95 5.91, 26.62 5.91 C31.29 5.92, 38.57 5.27, 42.26 4.75 C45.94 4.24, 46.98 3.61, 48.7 2.84 C50.43 2.07, 52.05 0.49, 52.58 0.15 M-0.68 0.44 C-0.39 0.82, -0.9 1.63, 0.37 2.46 C1.64 3.29, 4.67 4.9, 6.96 5.41 C9.25 5.92, 10.52 5.32, 14.11 5.51 C17.7 5.7, 24.12 6.84, 28.51 6.54 C32.9 6.25, 37.07 4.51, 40.45 3.74 C43.84 2.97, 46.87 2.54, 48.82 1.92 C50.76 1.3, 51.86 0.35, 52.14 0.02" stroke="#0a11d3" stroke-width="1" fill="none"></path></g></g><mask></mask><g stroke-linecap="round"><g transform="translate(676.3845529068013 288.71226192085464) rotate(0 25.736946851799132 2.5930743891766497)"><path d="M-0.03 -0.89 C0.17 -0.68, 0.61 1.47, 1.7 2.22 C2.78 2.96, 4.34 2.97, 6.47 3.57 C8.59 4.17, 10.83 5.49, 14.43 5.81 C18.02 6.13, 23.7 5.54, 28.03 5.49 C32.36 5.44, 36.6 6.03, 40.39 5.52 C44.19 5.01, 48.9 3.23, 50.82 2.44 C52.75 1.65, 51.87 1.07, 51.93 0.78 M-1.5 1.26 C-1.47 1.58, -0.82 3.17, 0.93 3.72 C2.67 4.27, 6.73 3.99, 8.97 4.56 C11.22 5.14, 11.37 6.93, 14.38 7.15 C17.38 7.38, 22.52 6.28, 27 5.9 C31.49 5.53, 37.71 5.67, 41.28 4.9 C44.84 4.13, 46.75 1.96, 48.39 1.31 C50.03 0.66, 50.37 1.23, 51.14 0.99" stroke="#0a11d3" stroke-width="1" fill="none"></path></g></g><mask></mask><g stroke-linecap="round" transform="translate(675.7312366564034 265.25638101859863) rotate(0 25.545368370569008 5.166358567250171)"><path d="M26.51 0.03 C31.77 0.13, 39.08 0.85, 43.17 1.64 C47.26 2.43, 50.33 3.79, 51.05 4.79 C51.77 5.79, 50.52 6.67, 47.46 7.62 C44.41 8.57, 38 10.09, 32.72 10.49 C27.43 10.89, 20.69 10.55, 15.76 10 C10.83 9.46, 5.66 8.24, 3.15 7.24 C0.63 6.24, -0.39 5.03, 0.68 3.99 C1.76 2.95, 5.14 1.58, 9.61 0.99 C14.08 0.4, 24.38 0.63, 27.51 0.44 C30.64 0.25, 28.42 -0.14, 28.37 -0.17 M28.12 0.37 C33.22 0.62, 39.66 1.51, 43.52 2.25 C47.38 2.99, 50.97 3.73, 51.28 4.83 C51.58 5.93, 48.73 7.97, 45.35 8.84 C41.97 9.71, 36.18 9.9, 31.01 10.05 C25.85 10.19, 19.12 10.14, 14.38 9.72 C9.64 9.31, 4.79 8.55, 2.58 7.55 C0.38 6.56, -0.39 4.77, 1.15 3.77 C2.68 2.77, 7.16 2.27, 11.77 1.55 C16.37 0.83, 25.86 -0.26, 28.76 -0.54 C31.66 -0.82, 29.2 -0.33, 29.16 -0.16" stroke="none" stroke-width="0" fill="#fff"></path><path d="M21.83 0.41 C26.96 0.16, 34.09 -0.27, 38.79 0.33 C43.5 0.92, 48.27 2.81, 50.06 3.96 C51.85 5.11, 51.5 6.29, 49.53 7.22 C47.57 8.16, 43.05 9.09, 38.29 9.57 C33.54 10.04, 26.49 10.2, 21.01 10.06 C15.53 9.91, 8.92 9.57, 5.42 8.71 C1.93 7.85, -0.2 6.06, 0.02 4.88 C0.24 3.7, 3.03 2.4, 6.75 1.62 C10.48 0.84, 19.58 0.36, 22.37 0.19 C25.15 0.02, 23.34 0.56, 23.47 0.6 M20.09 -0.63 C25.27 -0.93, 32.93 -0.69, 37.93 0.08 C42.92 0.86, 48.12 2.98, 50.06 4.02 C52 5.05, 51.52 5.4, 49.55 6.29 C47.58 7.19, 42.83 8.84, 38.24 9.39 C33.66 9.95, 27.43 9.82, 22.01 9.62 C16.6 9.43, 9.46 9.04, 5.76 8.24 C2.06 7.43, -0.05 5.95, -0.17 4.78 C-0.29 3.61, 1.68 1.94, 5.03 1.22 C8.37 0.5, 17.29 0.55, 19.89 0.44 C22.49 0.33, 20.34 0.51, 20.62 0.55" stroke="#0a11d3" stroke-width="1" fill="none"></path></g><g stroke-linecap="round" transform="translate(717.4135390851126 279.5813688908395) rotate(0 3.7439186081550133 4.0632977873813445)"><path d="M3.36 0.24 C4.15 0.08, 5.08 0.39, 5.77 0.76 C6.47 1.14, 7.35 1.67, 7.54 2.5 C7.74 3.34, 7.26 4.91, 6.93 5.77 C6.61 6.62, 6.21 7.31, 5.59 7.65 C4.98 8, 4.01 8.03, 3.23 7.85 C2.45 7.68, 1.48 7.25, 0.89 6.6 C0.3 5.95, -0.27 4.78, -0.28 3.96 C-0.29 3.14, 0.25 2.38, 0.82 1.69 C1.38 1, 2.72 0.13, 3.11 -0.17 C3.5 -0.46, 3.1 -0.18, 3.15 -0.09 M2.84 0.43 C3.68 0.24, 5.27 0.16, 5.96 0.63 C6.64 1.11, 6.77 2.46, 6.95 3.29 C7.12 4.11, 7.21 4.85, 7.01 5.58 C6.8 6.31, 6.34 7.22, 5.71 7.67 C5.09 8.12, 4.07 8.45, 3.24 8.26 C2.41 8.08, 1.27 7.22, 0.75 6.56 C0.22 5.9, 0.03 5.24, 0.08 4.29 C0.14 3.34, 0.48 1.62, 1.08 0.88 C1.68 0.13, 3.29 -0.04, 3.68 -0.17 C4.07 -0.3, 3.42 0.04, 3.41 0.09" stroke="none" stroke-width="0" fill="#fff"></path><path d="M3.46 -0.27 C4.24 -0.37, 5.47 0.49, 6.14 1.06 C6.81 1.64, 7.27 2.4, 7.48 3.17 C7.69 3.95, 7.73 4.99, 7.41 5.73 C7.1 6.47, 6.38 7.23, 5.58 7.64 C4.77 8.05, 3.42 8.42, 2.6 8.18 C1.78 7.95, 1.05 7.01, 0.67 6.25 C0.28 5.48, 0.27 4.41, 0.31 3.58 C0.35 2.75, 0.41 1.81, 0.91 1.27 C1.4 0.73, 2.83 0.54, 3.29 0.33 C3.75 0.12, 3.67 0.06, 3.67 0.01 M3.51 -0.35 C4.39 -0.31, 5.75 0.72, 6.37 1.22 C6.99 1.72, 7.16 1.92, 7.22 2.65 C7.28 3.39, 7.01 4.87, 6.73 5.65 C6.45 6.42, 6.25 6.95, 5.53 7.31 C4.8 7.66, 3.2 7.97, 2.37 7.76 C1.54 7.55, 1.02 6.82, 0.56 6.06 C0.11 5.31, -0.38 4.01, -0.36 3.24 C-0.33 2.47, 0.06 1.92, 0.69 1.42 C1.32 0.93, 2.91 0.46, 3.42 0.25 C3.94 0.04, 3.84 0.09, 3.78 0.16" stroke="#0a11d3" stroke-width="1" fill="none"></path></g><g stroke-linecap="round" transform="translate(717.4135390851126 297.41923089614306) rotate(0 3.7439186081550133 4.0632977873813445)"><path d="M3.88 0.19 C4.65 0.08, 5.9 0.17, 6.44 0.75 C6.97 1.32, 7.03 2.75, 7.12 3.65 C7.22 4.55, 7.32 5.49, 6.99 6.16 C6.67 6.84, 5.94 7.41, 5.19 7.69 C4.44 7.97, 3.31 8.12, 2.49 7.84 C1.66 7.56, 0.63 6.73, 0.21 6.02 C-0.21 5.32, -0.2 4.5, -0.03 3.61 C0.15 2.73, 0.64 1.36, 1.25 0.72 C1.87 0.09, 3.2 -0.08, 3.67 -0.2 C4.13 -0.31, 4.04 -0.02, 4.03 0.04 M4.16 -0.03 C4.94 -0.03, 5.45 0.93, 5.97 1.53 C6.49 2.12, 7.11 2.75, 7.3 3.55 C7.5 4.35, 7.5 5.54, 7.14 6.32 C6.78 7.1, 5.96 7.97, 5.14 8.22 C4.32 8.48, 3 8.17, 2.22 7.85 C1.44 7.53, 0.79 7.17, 0.45 6.31 C0.1 5.45, -0.08 3.64, 0.17 2.68 C0.41 1.72, 1.26 1.02, 1.91 0.57 C2.57 0.12, 3.71 0.12, 4.1 -0.01 C4.49 -0.14, 4.35 -0.21, 4.27 -0.21" stroke="none" stroke-width="0" fill="#fff"></path><path d="M4.41 0.34 C5.19 0.45, 6.02 0.84, 6.58 1.41 C7.15 1.97, 7.7 2.92, 7.77 3.75 C7.85 4.58, 7.58 5.63, 7.03 6.38 C6.47 7.12, 5.28 8.02, 4.46 8.22 C3.63 8.42, 2.71 8.02, 2.07 7.57 C1.42 7.13, 0.95 6.34, 0.59 5.57 C0.24 4.81, -0.2 3.76, -0.06 2.99 C0.09 2.23, 0.74 1.49, 1.48 0.99 C2.22 0.48, 3.94 0.16, 4.36 -0.03 C4.79 -0.23, 4.1 -0.25, 4.05 -0.2 M3.63 0.54 C4.33 0.36, 4.97 -0.12, 5.51 0.22 C6.05 0.56, 6.55 1.79, 6.87 2.6 C7.19 3.4, 7.72 4.27, 7.44 5.06 C7.15 5.86, 5.91 6.93, 5.16 7.37 C4.41 7.82, 3.71 7.92, 2.93 7.71 C2.15 7.51, 1.04 6.74, 0.48 6.16 C-0.08 5.58, -0.47 4.99, -0.4 4.24 C-0.33 3.49, 0.27 2.34, 0.92 1.65 C1.57 0.96, 3.2 0.32, 3.51 0.12 C3.82 -0.08, 2.83 0.37, 2.79 0.42" stroke="#0a11d3" stroke-width="1" fill="none"></path></g><g stroke-linecap="round" transform="translate(717.4135390851126 316.8066167662098) rotate(0 3.7439186081550133 4.0632977873813445)"><path d="M4.35 -0.2 C5.04 -0.17, 5.57 0.8, 6.09 1.47 C6.61 2.13, 7.35 2.98, 7.49 3.77 C7.64 4.56, 7.45 5.51, 6.99 6.21 C6.53 6.91, 5.6 7.71, 4.74 7.96 C3.89 8.21, 2.61 8.01, 1.86 7.69 C1.12 7.37, 0.56 6.86, 0.25 6.05 C-0.05 5.23, -0.17 3.71, 0.03 2.79 C0.23 1.87, 0.74 0.99, 1.46 0.53 C2.18 0.06, 3.92 0.1, 4.34 -0.01 C4.77 -0.12, 4.05 -0.15, 4.04 -0.13 M3.86 0.41 C4.57 0.46, 5.69 0.65, 6.34 1.22 C7 1.8, 7.66 2.94, 7.79 3.87 C7.91 4.8, 7.62 6.09, 7.08 6.8 C6.54 7.5, 5.39 7.89, 4.56 8.11 C3.72 8.34, 2.78 8.62, 2.08 8.14 C1.37 7.66, 0.59 6.14, 0.33 5.22 C0.07 4.3, 0.29 3.4, 0.53 2.63 C0.78 1.86, 1.16 1.09, 1.82 0.61 C2.49 0.13, 4.16 -0.12, 4.5 -0.26 C4.85 -0.41, 3.94 -0.47, 3.87 -0.28" stroke="none" stroke-width="0" fill="#fff"></path><path d="M3.33 0.17 C4.09 -0.07, 5.31 0.11, 6.02 0.53 C6.73 0.95, 7.41 1.81, 7.59 2.69 C7.76 3.56, 7.42 4.98, 7.07 5.79 C6.73 6.6, 6.15 7.17, 5.51 7.53 C4.88 7.89, 4.08 8.09, 3.26 7.94 C2.43 7.8, 1.16 7.29, 0.58 6.67 C0 6.05, -0.29 5.14, -0.21 4.25 C-0.13 3.35, 0.53 2.03, 1.07 1.28 C1.61 0.52, 2.68 -0.08, 3.04 -0.31 C3.4 -0.53, 3.23 -0.21, 3.22 -0.08 M3.15 -0.32 C3.75 -0.57, 4.65 0.07, 5.37 0.53 C6.1 0.99, 7.28 1.63, 7.51 2.44 C7.75 3.26, 7.14 4.61, 6.77 5.42 C6.41 6.24, 6.03 6.99, 5.32 7.34 C4.62 7.7, 3.36 7.64, 2.53 7.54 C1.7 7.44, 0.77 7.31, 0.35 6.73 C-0.07 6.15, -0.15 4.98, 0.02 4.08 C0.19 3.19, 0.89 1.98, 1.38 1.36 C1.86 0.73, 2.6 0.53, 2.93 0.32 C3.27 0.11, 3.4 0.12, 3.39 0.11" stroke="#0a11d3" stroke-width="1" fill="none"></path></g><g stroke-linecap="round"><g transform="translate(1228.997499038612 706.4906955585682) rotate(0 -245.96090272809113 -197.13225381286733)"><path d="M0 0 C-9.39 -58.16, 25.64 -283.27, -56.35 -348.98 C-138.34 -414.69, -419.33 -386.72, -491.92 -394.26 M0 0 C-9.39 -58.16, 25.64 -283.27, -56.35 -348.98 C-138.34 -414.69, -419.33 -386.72, -491.92 -394.26" stroke="#1e1e1e" stroke-width="1" fill="none"></path></g><g transform="translate(1228.997499038612 706.4906955585682) rotate(0 -245.96090272809113 -197.13225381286733)"><path d="M-468.38 -402.67 C-477.11 -399.55, -485.84 -396.44, -491.92 -394.26 M-468.38 -402.67 C-477.49 -399.41, -486.61 -396.16, -491.92 -394.26" stroke="#1e1e1e" stroke-width="1" fill="none"></path></g><g transform="translate(1228.997499038612 706.4906955585682) rotate(0 -245.96090272809113 -197.13225381286733)"><path d="M-468.48 -385.57 C-477.17 -388.79, -485.86 -392.02, -491.92 -394.26 M-468.48 -385.57 C-477.56 -388.94, -486.64 -392.3, -491.92 -394.26" stroke="#1e1e1e" stroke-width="1" fill="none"></path></g></g><mask></mask><g transform="translate(726.3519073497743 342.98150634765625) rotate(0 32.8125 9.599999999999994)"><text x="0" y="0" font-family="Cascadia, Segoe UI Emoji" font-size="16px" fill="#1e1e1e" text-anchor="start" style="white-space: pre;" direction="ltr" dominant-baseline="text-before-edge">MongoDB</text></g><g stroke-linecap="round"><g transform="translate(681.5160919200868 348.90663146972656) rotate(0 0.186279296875 70.2724609375)"><path d="M0 0 C0.06 23.42, 0.31 117.12, 0.37 140.54 M0 0 C0.06 23.42, 0.31 117.12, 0.37 140.54" stroke="#1e1e1e" stroke-width="1" fill="none"></path></g><g transform="translate(681.5160919200868 348.90663146972656) rotate(0 0.186279296875 70.2724609375)"><path d="M-8.24 117.08 C-4.86 126.29, -1.48 135.49, 0.37 140.54 M-8.24 117.08 C-6.03 123.11, -3.81 129.14, 0.37 140.54" stroke="#1e1e1e" stroke-width="1" fill="none"></path></g><g transform="translate(681.5160919200868 348.90663146972656) rotate(0 0.186279296875 70.2724609375)"><path d="M8.86 117.03 C5.53 126.26, 2.2 135.49, 0.37 140.54 M8.86 117.03 C6.68 123.08, 4.5 129.12, 0.37 140.54" stroke="#1e1e1e" stroke-width="1" fill="none"></path></g></g><mask></mask><g transform="translate(663.8977142345399 213.47073364257812) rotate(0 93.75 19.200000000000003)"><text x="0" y="0" font-family="Cascadia, Segoe UI Emoji" font-size="16px" fill="#1e1e1e" text-anchor="start" style="white-space: pre;" direction="ltr" dominant-baseline="text-before-edge">Aggregate reporting </text><text x="0" y="19.2" font-family="Cascadia, Segoe UI Emoji" font-size="16px" fill="#1e1e1e" text-anchor="start" style="white-space: pre;" direction="ltr" dominant-baseline="text-before-edge">data store</text></g><g transform="translate(414.34690246696175 232.6214141845703) rotate(0 103.125 38.400000000000006)"><text x="0" y="0" font-family="Cascadia, Segoe UI Emoji" font-size="16px" fill="#1e1e1e" text-anchor="start" style="white-space: pre;" direction="ltr" dominant-baseline="text-before-edge">{</text><text x="0" y="19.2" font-family="Cascadia, Segoe UI Emoji" font-size="16px" fill="#1e1e1e" text-anchor="start" style="white-space: pre;" direction="ltr" dominant-baseline="text-before-edge">  user_count: 2</text><text x="0" y="38.4" font-family="Cascadia, Segoe UI Emoji" font-size="16px" fill="#1e1e1e" text-anchor="start" style="white-space: pre;" direction="ltr" dominant-baseline="text-before-edge">  timestamp: 123456789</text><text x="0" y="57.599999999999994" font-family="Cascadia, Segoe UI Emoji" font-size="16px" fill="#1e1e1e" text-anchor="start" style="white-space: pre;" direction="ltr" dominant-baseline="text-before-edge">}</text></g><g transform="translate(416.3422027599305 121.0653076171875) rotate(0 103.125 48)"><text x="0" y="0" font-family="Cascadia, Segoe UI Emoji" font-size="16px" fill="#1e1e1e" text-anchor="start" style="white-space: pre;" direction="ltr" dominant-baseline="text-before-edge">{</text><text x="0" y="19.2" font-family="Cascadia, Segoe UI Emoji" font-size="16px" fill="#1e1e1e" text-anchor="start" style="white-space: pre;" direction="ltr" dominant-baseline="text-before-edge">  sreamID: abc</text><text x="0" y="38.4" font-family="Cascadia, Segoe UI Emoji" font-size="16px" fill="#1e1e1e" text-anchor="start" style="white-space: pre;" direction="ltr" dominant-baseline="text-before-edge">  user_count: 2</text><text x="0" y="57.599999999999994" font-family="Cascadia, Segoe UI Emoji" font-size="16px" fill="#1e1e1e" text-anchor="start" style="white-space: pre;" direction="ltr" dominant-baseline="text-before-edge">  timestamp: 123456789</text><text x="0" y="76.8" font-family="Cascadia, Segoe UI Emoji" font-size="16px" fill="#1e1e1e" text-anchor="start" style="white-space: pre;" direction="ltr" dominant-baseline="text-before-edge">}</text></g><g transform="translate(722.8429351818055 453.8566436767578) rotate(0 103.125 9.599999999999994)"><text x="0" y="0" font-family="Cascadia, Segoe UI Emoji" font-size="16px" fill="#1e1e1e" text-anchor="start" style="white-space: pre;" direction="ltr" dominant-baseline="text-before-edge">select historical data</text></g><g stroke-linecap="round"><g transform="translate(708.6443878185243 485.8675079345703) rotate(0 0.118133544921875 -69.6337890625)"><path d="M0 0 C0.04 -23.21, 0.2 -116.06, 0.24 -139.27 M0 0 C0.04 -23.21, 0.2 -116.06, 0.24 -139.27" stroke="#1e1e1e" stroke-width="1" fill="none"></path></g><g transform="translate(708.6443878185243 485.8675079345703) rotate(0 0.118133544921875 -69.6337890625)"><path d="M8.75 -115.76 C6.49 -121.99, 4.24 -128.21, 0.24 -139.27 M8.75 -115.76 C5.92 -123.58, 3.08 -131.4, 0.24 -139.27" stroke="#1e1e1e" stroke-width="1" fill="none"></path></g><g transform="translate(708.6443878185243 485.8675079345703) rotate(0 0.118133544921875 -69.6337890625)"><path d="M-8.35 -115.79 C-6.08 -122.01, -3.8 -128.23, 0.24 -139.27 M-8.35 -115.79 C-5.5 -123.6, -2.64 -131.41, 0.24 -139.27" stroke="#1e1e1e" stroke-width="1" fill="none"></path></g></g><mask></mask><g stroke-linecap="round" transform="translate(1169.9592639694931 720.7471575154394) rotate(0 75.02597045898438 34.503326416015625)"><path d="M17.25 0 C57.92 0, 98.59 0, 132.8 0 C144.3 0, 150.05 5.75, 150.05 17.25 C150.05 29.82, 150.05 42.38, 150.05 51.75 C150.05 63.26, 144.3 69.01, 132.8 69.01 C103.1 69.01, 73.41 69.01, 17.25 69.01 C5.75 69.01, 0 63.26, 0 51.75 C0 41.23, 0 30.7, 0 17.25 C0 5.75, 5.75 0, 17.25 0" stroke="none" stroke-width="0" fill="white"></path><path d="M17.25 0 C55.5 0, 93.74 0, 132.8 0 M17.25 0 C45.64 0, 74.02 0, 132.8 0 M132.8 0 C144.3 0, 150.05 5.75, 150.05 17.25 M132.8 0 C144.3 0, 150.05 5.75, 150.05 17.25 M150.05 17.25 C150.05 26.78, 150.05 36.3, 150.05 51.75 M150.05 17.25 C150.05 29.22, 150.05 41.18, 150.05 51.75 M150.05 51.75 C150.05 63.26, 144.3 69.01, 132.8 69.01 M150.05 51.75 C150.05 63.26, 144.3 69.01, 132.8 69.01 M132.8 69.01 C105.75 69.01, 78.7 69.01, 17.25 69.01 M132.8 69.01 C96.55 69.01, 60.29 69.01, 17.25 69.01 M17.25 69.01 C5.75 69.01, 0 63.26, 0 51.75 M17.25 69.01 C5.75 69.01, 0 63.26, 0 51.75 M0 51.75 C0 44.75, 0 37.75, 0 17.25 M0 51.75 C0 42.12, 0 32.48, 0 17.25 M0 17.25 C0 5.75, 5.75 0, 17.25 0 M0 17.25 C0 5.75, 5.75 0, 17.25 0" stroke="#1e1e1e" stroke-width="1" fill="none"></path></g><g transform="translate(1188.7352344284775 745.650483931455) rotate(0 56.25 9.600000000000023)"><text x="56.25" y="0" font-family="Cascadia, Segoe UI Emoji" font-size="16px" fill="#1e1e1e" text-anchor="middle" style="white-space: pre;" direction="ltr" dominant-baseline="text-before-edge">Apache Flink</text></g><g transform="translate(416.4269195568055 345.5636749267578) rotate(0 103.125 48)"><text x="0" y="0" font-family="Cascadia, Segoe UI Emoji" font-size="16px" fill="#1e1e1e" text-anchor="start" style="white-space: pre;" direction="ltr" dominant-baseline="text-before-edge">{</text><text x="0" y="19.2" font-family="Cascadia, Segoe UI Emoji" font-size="16px" fill="#1e1e1e" text-anchor="start" style="white-space: pre;" direction="ltr" dominant-baseline="text-before-edge">  device_type: abc</text><text x="0" y="38.4" font-family="Cascadia, Segoe UI Emoji" font-size="16px" fill="#1e1e1e" text-anchor="start" style="white-space: pre;" direction="ltr" dominant-baseline="text-before-edge">  user_count: 2</text><text x="0" y="57.599999999999994" font-family="Cascadia, Segoe UI Emoji" font-size="16px" fill="#1e1e1e" text-anchor="start" style="white-space: pre;" direction="ltr" dominant-baseline="text-before-edge">  timestamp: 123456789</text><text x="0" y="76.8" font-family="Cascadia, Segoe UI Emoji" font-size="16px" fill="#1e1e1e" text-anchor="start" style="white-space: pre;" direction="ltr" dominant-baseline="text-before-edge">}</text></g><g transform="translate(489.82773742789925 10) rotate(0 103.125 48)"><text x="0" y="0" font-family="Cascadia, Segoe UI Emoji" font-size="16px" fill="#1e1e1e" text-anchor="start" style="white-space: pre;" direction="ltr" dominant-baseline="text-before-edge">{</text><text x="0" y="19.2" font-family="Cascadia, Segoe UI Emoji" font-size="16px" fill="#1e1e1e" text-anchor="start" style="white-space: pre;" direction="ltr" dominant-baseline="text-before-edge">  geo: TX</text><text x="0" y="38.4" font-family="Cascadia, Segoe UI Emoji" font-size="16px" fill="#1e1e1e" text-anchor="start" style="white-space: pre;" direction="ltr" dominant-baseline="text-before-edge">  user_count: 2</text><text x="0" y="57.599999999999994" font-family="Cascadia, Segoe UI Emoji" font-size="16px" fill="#1e1e1e" text-anchor="start" style="white-space: pre;" direction="ltr" dominant-baseline="text-before-edge">  timestamp: 123456789</text><text x="0" y="76.8" font-family="Cascadia, Segoe UI Emoji" font-size="16px" fill="#1e1e1e" text-anchor="start" style="white-space: pre;" direction="ltr" dominant-baseline="text-before-edge">}</text></g><g transform="translate(714.6420074474305 65.29243469238281) rotate(0 103.125 48)"><text x="0" y="0" font-family="Cascadia, Segoe UI Emoji" font-size="16px" fill="#1e1e1e" text-anchor="start" style="white-space: pre;" direction="ltr" dominant-baseline="text-before-edge">{</text><text x="0" y="19.2" font-family="Cascadia, Segoe UI Emoji" font-size="16px" fill="#1e1e1e" text-anchor="start" style="white-space: pre;" direction="ltr" dominant-baseline="text-before-edge">  userID: abc</text><text x="0" y="38.4" font-family="Cascadia, Segoe UI Emoji" font-size="16px" fill="#1e1e1e" text-anchor="start" style="white-space: pre;" direction="ltr" dominant-baseline="text-before-edge">  strem_count: 2</text><text x="0" y="57.599999999999994" font-family="Cascadia, Segoe UI Emoji" font-size="16px" fill="#1e1e1e" text-anchor="start" style="white-space: pre;" direction="ltr" dominant-baseline="text-before-edge">  timestamp: 123456789</text><text x="0" y="76.8" font-family="Cascadia, Segoe UI Emoji" font-size="16px" fill="#1e1e1e" text-anchor="start" style="white-space: pre;" direction="ltr" dominant-baseline="text-before-edge">}</text></g><g stroke-linecap="round"><g transform="translate(1073.8072699549512 931.1143242021866) rotate(0 70.61321345290071 -58.7227491118519)"><path d="M0.48 0.82 C23.69 -18.45, 116.76 -96.97, 140.13 -116.77 M-0.73 0.2 C22.77 -19.32, 118.88 -99.01, 142.26 -118.54" stroke="#1e1e1e" stroke-width="1" fill="none"></path></g><g transform="translate(1073.8072699549512 931.1143242021866) rotate(0 70.61321345290071 -58.7227491118519)"><path d="M129.67 -96.94 C135.88 -106.79, 140.3 -113.89, 142.26 -118.54 M129.67 -96.94 C132.91 -102.24, 135.55 -108.56, 142.26 -118.54" stroke="#1e1e1e" stroke-width="1" fill="none"></path></g><g transform="translate(1073.8072699549512 931.1143242021866) rotate(0 70.61321345290071 -58.7227491118519)"><path d="M118.73 -110.09 C128.86 -115.13, 137.31 -117.37, 142.26 -118.54 M118.73 -110.09 C124.64 -112.15, 130.07 -115.12, 142.26 -118.54" stroke="#1e1e1e" stroke-width="1" fill="none"></path></g></g><mask></mask><g stroke-linecap="round"><g transform="translate(1642.0050726686936 938.0113616217839) rotate(0 62.3653692661627 -65.34649514061698)"><path d="M0 0 C18.63 -1.69, 90.99 11.67, 111.78 -10.11 C132.56 -31.89, 122.57 -110.6, 124.73 -130.69 M0 0 C18.63 -1.69, 90.99 11.67, 111.78 -10.11 C132.56 -31.89, 122.57 -110.6, 124.73 -130.69" stroke="#1e1e1e" stroke-width="1" fill="none"></path></g><g transform="translate(1642.0050726686936 938.0113616217839) rotate(0 62.3653692661627 -65.34649514061698)"><path d="M133.42 -107.25 C131.46 -112.53, 129.51 -117.81, 124.73 -130.69 M133.42 -107.25 C131.44 -112.58, 129.47 -117.91, 124.73 -130.69" stroke="#1e1e1e" stroke-width="1" fill="none"></path></g><g transform="translate(1642.0050726686936 938.0113616217839) rotate(0 62.3653692661627 -65.34649514061698)"><path d="M116.32 -107.15 C118.21 -112.45, 120.11 -117.75, 124.73 -130.69 M116.32 -107.15 C118.23 -112.5, 120.14 -117.85, 124.73 -130.69" stroke="#1e1e1e" stroke-width="1" fill="none"></path></g></g><mask></mask><g transform="translate(1251.680331288034 536.8272684718708) rotate(0 121.875 19.19999999999999)"><text x="0" y="0" font-family="Cascadia, Segoe UI Emoji" font-size="16px" fill="#1e1e1e" text-anchor="start" style="white-space: pre;" direction="ltr" dominant-baseline="text-before-edge">Aggregate data every 5 min</text><text x="0" y="19.2" font-family="Cascadia, Segoe UI Emoji" font-size="16px" fill="#1e1e1e" text-anchor="start" style="white-space: pre;" direction="ltr" dominant-baseline="text-before-edge">and save to DB</text></g></svg>